<?xml version="1.0" standalone="no"?>
<!DOCTYPE svg PUBLIC "-//W3C//DTD SVG 1.1//EN" "http://www.w3.org/Graphics/SVG/1.1/DTD/svg11.dtd" >
<svg xmlns="http://www.w3.org/2000/svg" xmlns:xlink="http://www.w3.org/1999/xlink" version="1.1">
<metadata>
Created by FontForge 20170731 at Thu Jun  6 03:58:11 2019
 By Aleksey,,,
&#60; info@fontfont.de &#62; Copyright Evert Bloemsma, 1998. Published by FontShop International.  FontFont Release 22
</metadata>
<defs>
<font id="UNICocon-Bold" horiz-adv-x="615" >
  <font-face 
    font-family="UNI Cocon"
    font-weight="700"
    font-stretch="normal"
    units-per-em="1000"
    panose-1="0 0 0 0 0 0 0 0 0 0"
    ascent="800"
    descent="-200"
    x-height="550"
    cap-height="690"
    bbox="-60 -291 1470 1178"
    underline-thickness="20"
    underline-position="-196"
    unicode-range="U+000D-FB02"
  />
<missing-glyph horiz-adv-x="500" 
 />
    <glyph glyph-name=".notdef" horiz-adv-x="500" 
 />
    <glyph glyph-name="uni0000" horiz-adv-x="0" 
 />
    <glyph glyph-name="nonmarkingreturn" unicode="&#xd;" horiz-adv-x="0" 
 />
    <glyph glyph-name="NULL" horiz-adv-x="0" 
 />
    <glyph glyph-name="NULL" horiz-adv-x="0" 
 />
    <glyph glyph-name="uni0020" unicode=" " horiz-adv-x="230" 
 />
    <glyph glyph-name="uni0021" unicode="!" horiz-adv-x="314" 
d="M232 270h-62q-48 0 -72.5 28t-26.5 73l-12 318h89q48 0 73 -28t23 -74zM56 107q0 22 8.5 41.5t23 34t34 23t41.5 8.5t41.5 -8.5t34 -23t23 -34t8.5 -41.5t-8.5 -41.5t-23 -34t-34 -23t-41.5 -8.5t-41.5 8.5t-34 23t-23 34t-8.5 41.5z" />
    <glyph glyph-name="uni0022" unicode="&#x22;" horiz-adv-x="423" 
d="M102 690q42 0 68 -27.5t21 -75.5l-20 -183h-47q-43 0 -63.5 28.5t-25.5 70.5l-19 187h86zM312 690q42 0 68 -27.5t21 -75.5l-20 -183h-46q-43 0 -64 28.5t-26 70.5l-19 187h86z" />
    <glyph glyph-name="uni0023" unicode="#" 
d="M16 220q0 36 17 57t59 21h20l17 103h-84v45q0 36 22 56.5t64 20.5h18l29 166h45q42 0 64 -21t22 -56q0 -5 -0.5 -9t-1.5 -9l-12 -71h77l30 166h45q42 0 64 -22t22 -57q0 -5 -0.5 -10t-1.5 -10l-12 -67h78v-44q0 -36 -21.5 -57t-63.5 -21h-13l-17 -103h86v-45
q0 -36 -21.5 -56.5t-63.5 -20.5h-22l-30 -176h-56q-40 0 -58 20t-18 51v13t2 14l14 78h-77l-31 -176h-56q-40 0 -57.5 20.5t-17.5 50.5v13.5t2 14.5l14 77h-76v44zM342 298l16 103h-76l-17 -103h77z" />
    <glyph glyph-name="uni0024" unicode="$" 
d="M244 799h60q31 0 47 -17.5t16 -48.5v-48q48 -5 82 -17.5t55.5 -30.5t31 -40t9.5 -45v-78h-5q-29 32 -77 47t-96 18q-6 1 -12.5 1h-12.5q-17 0 -38 -1t-39.5 -7t-31.5 -18.5t-13 -35.5q0 -13 4 -21t20 -15q14 -7 41 -13t75 -15q2 0 3.5 -0.5t3.5 -0.5q40 -8 75.5 -22
t62.5 -37t42.5 -56t15.5 -79q0 -88 -49.5 -148t-146.5 -78v-124h-42q-38 0 -59.5 14.5t-21.5 52.5v56q-94 8 -141 49t-47 107v66h5q17 -18 42.5 -31t54 -21t58 -12t54.5 -4q40 0 63 5t34 15q10 8 13 19t3 25q0 22 -16 34q-14 10 -42.5 18t-80.5 17q-1 1 -4 1q-39 7 -75 19.5
t-63.5 34t-44.5 53.5t-17 79q0 38 13 73.5t38.5 64.5t63.5 50t89 30v115z" />
    <glyph glyph-name="uni0025" unicode="%" horiz-adv-x="1070" 
d="M415 481q0 -48 -12.5 -90t-37 -74t-61.5 -50.5t-86 -18.5q-46 0 -81.5 18.5t-59.5 49t-36.5 70t-12.5 81.5q0 48 12.5 90.5t37 74.5t61.5 51t86 19q46 0 81.5 -18.5t59.5 -49.5t36.5 -71t12.5 -82zM737 624q0 -28 -15 -58l-292 -566h-47q-29 0 -50.5 15.5t-21.5 47.5
q0 28 15 58l295 572h47q29 0 49 -20.5t20 -48.5zM1032 218q0 -48 -12.5 -90.5t-37 -74.5t-61.5 -50.5t-86 -18.5q-46 0 -81.5 18.5t-59.5 49t-36.5 70.5t-12.5 82q0 48 12.5 90.5t37 74.5t61.5 50.5t86 18.5q46 0 81.5 -18.5t59.5 -49t36.5 -70.5t12.5 -82zM274 467
q0 66 -15.5 93t-40.5 27q-20 0 -35 -25.5t-15 -79.5q0 -66 15.5 -93t41.5 -27q21 0 35 25.5t14 79.5zM891 204q0 66 -15.5 92.5t-40.5 26.5q-20 0 -35 -25t-15 -79q0 -66 15.5 -93.5t41.5 -27.5q21 0 35 26t14 80z" />
    <glyph glyph-name="uni0026" unicode="&#x26;" horiz-adv-x="708" 
d="M693 77q0 -40 -20.5 -66.5t-75.5 -26.5q-30 0 -55 8.5t-48 24.5q-9 7 -18 14.5t-18 16.5q-7 -7 -20 -18t-34.5 -21t-53 -17.5t-74.5 -7.5q-48 0 -92.5 12.5t-79 38t-55 65t-20.5 94.5q0 63 34.5 115t94.5 88q-22 30 -39 61t-17 63q0 37 14 71t41 59.5t66.5 40.5t89.5 15
q88 0 136.5 -45t48.5 -121q0 -31 -11 -58.5t-29.5 -50.5t-43 -42.5t-52.5 -34.5q7 -9 18.5 -23t24.5 -29.5t27.5 -31.5t27.5 -29q23 27 40 66.5t17 91.5h38q30 0 53.5 -20.5t23.5 -57.5q0 -42 -22.5 -88t-55.5 -85q31 -31 63.5 -43.5t75.5 -11.5v-17zM352 532q0 29 -10 39
t-33 10q-17 0 -31 -11.5t-14 -42.5q0 -24 8.5 -42t21.5 -36q30 15 44 37t14 46zM360 147q-8 8 -24.5 26.5t-35.5 40t-35.5 42t-24.5 33.5q-12 -11 -24.5 -28.5t-12.5 -48.5q0 -48 23.5 -69t65.5 -21q26 0 42.5 7.5t25.5 17.5z" />
    <glyph glyph-name="uni0027" unicode="'" horiz-adv-x="314" 
d="M225 404h-47q-43 0 -63.5 28.5t-25.5 70.5l-19 187h85q42 0 68 -27.5t21 -75.5z" />
    <glyph glyph-name="uni0028" unicode="(" horiz-adv-x="398" 
d="M353 -170q-63 0 -104.5 19.5t-73.5 55.5q-20 22 -42 57t-40.5 81.5t-30.5 104.5t-12 126q0 74 11 135.5t30 111.5t43.5 88.5t51.5 67.5q25 27 68.5 45t98.5 18h59v-5q-28 -24 -58 -65t-55 -97.5t-41.5 -127t-16.5 -152.5q0 -88 16 -162.5t41 -133t55.5 -100t59.5 -62.5
v-5h-60z" />
    <glyph glyph-name="uni0029" unicode=")" horiz-adv-x="398" 
d="M44 740q63 0 104.5 -19.5t73.5 -55.5q20 -23 42 -57.5t40.5 -80.5t30.5 -104t12 -127q0 -74 -11 -135.5t-30 -111.5t-43.5 -88.5t-51.5 -67.5q-26 -27 -69 -45t-98 -18h-59v5q28 24 58 65t55 97.5t41.5 127t16.5 152.5q0 88 -16 162.5t-41 133t-55.5 100t-59.5 62.5v5h60
z" />
    <glyph glyph-name="uni002A" unicode="*" horiz-adv-x="554" 
d="M245 556q0 4 0.5 8t0.5 8q0 34 -13.5 75t-45.5 73q25 8 47.5 13.5t37.5 5.5q17 0 34.5 -4.5t31.5 -14.5t22.5 -25t8.5 -37q0 -27 -12 -52.5t-21 -50.5q16 4 34.5 13.5t36 23t32.5 30.5t24 36q22 -29 36.5 -56.5t14.5 -55.5q0 -38 -22 -60.5t-60 -22.5q-17 0 -33.5 2
t-33.5 2h-9q14 -17 28.5 -34t31.5 -31q13 -10 28.5 -16.5t44.5 -5.5q-10 -18 -20.5 -35t-23 -30.5t-27.5 -21.5t-34 -8t-39.5 9.5t-31.5 26.5q-11 16 -16 40t-10 43q-2 5 -3.5 10t-3.5 10q-15 -20 -24 -37t-14 -34t-6.5 -35.5t-1.5 -40.5q-26 0 -49.5 6t-41 17.5t-27.5 29
t-10 40.5q0 24 9 39t23.5 26.5t31.5 20.5t32 20q-36 16 -86 16q-16 0 -32.5 -3t-40.5 -14q0 23 4 49.5t14.5 49.5t28 38t43.5 15q21 0 35.5 -7.5t26.5 -18t23.5 -23t26.5 -22.5z" />
    <glyph glyph-name="uni002B" unicode="+" horiz-adv-x="592" 
d="M30 211v74q0 29 24 52.5t62 23.5h105v182h77q31 0 55 -23.5t24 -59.5v-99h187v-67q0 -34 -27 -58.5t-75 -24.5h-85v-199h-69q-35 0 -61 25.5t-26 70.5v103h-191z" />
    <glyph glyph-name="uni002C" unicode="," horiz-adv-x="344" 
d="M276 79q0 -43 -14 -81t-39 -66.5t-58 -45t-70 -16.5h-31v9q12 6 23.5 18.5t20.5 27.5t14.5 31.5t5.5 31.5q0 21 -8.5 34t-16.5 20l-9 9t-12 15t-10.5 20t-4.5 24q0 48 27.5 73.5t72.5 25.5q52 0 80.5 -35t28.5 -95z" />
    <glyph glyph-name="uni002D" unicode="-" horiz-adv-x="383" 
d="M345 315q0 -29 -19.5 -50.5t-50.5 -21.5h-240v51q0 75 80 75h230v-54z" />
    <glyph glyph-name="uni002E" unicode="." horiz-adv-x="338" 
d="M56 107q0 22 8.5 41.5t23 34t34 23t41.5 8.5t41.5 -8.5t34 -23t23 -34t8.5 -41.5t-8.5 -41.5t-23 -34t-34 -23t-41.5 -8.5t-41.5 8.5t-34 23t-23 34t-8.5 41.5z" />
    <glyph glyph-name="uni002F" unicode="/" horiz-adv-x="483" 
d="M463 661q0 -29 -15 -59l-309 -602h-47q-29 0 -47 22.5t-18 56.5q0 29 15 59l309 602h47q29 0 47 -22.5t18 -56.5z" />
    <glyph glyph-name="uni0030" unicode="0" 
d="M588 359q0 -88 -15 -157.5t-48.5 -118t-88 -74t-133.5 -25.5q-53 0 -102.5 21.5t-88 65t-62 109t-23.5 153.5q0 98 20 168.5t57.5 116t90.5 67t120 21.5q58 0 108 -18.5t87 -60t57.5 -107.5t20.5 -161zM217 349q0 -61 7 -101t19 -63.5t28.5 -33t36.5 -9.5q24 0 41 8.5
t28 31.5t16 63t5 104q0 58 -6 96.5t-17 61t-28 31.5t-39 9q-21 0 -37.5 -8t-28.5 -30t-18.5 -60.5t-6.5 -99.5z" />
    <glyph glyph-name="uni0031" unicode="1" horiz-adv-x="468" 
d="M289 0q-43 0 -72 27t-29 78v396l-63 -20q-44 -14 -78 0t-40 46l-12 66l105 45q17 8 36.5 15.5t39.5 15.5q23 10 51 15.5t60 5.5q17 0 33.5 -6t29 -17t20.5 -27t8 -36v-604h-89z" />
    <glyph glyph-name="uni0032" unicode="2" 
d="M565 88q0 -42 -25.5 -65t-79.5 -23h-336q-37 0 -64.5 21.5t-27.5 59.5q0 48 32.5 91t89.5 88l159 124q45 34 45 84q0 40 -25.5 61t-73.5 21q-72 0 -122.5 -17.5t-86.5 -65.5h-5v61q0 34 13.5 66.5t43.5 57t78.5 39.5t119.5 15q59 0 105.5 -18t79 -48.5t49.5 -69.5t17 -81
q0 -38 -7.5 -66t-25 -52.5t-47.5 -50t-75 -56.5l-106 -74q-11 -8 -24 -19t-19 -18h318v-65z" />
    <glyph glyph-name="uni0033" unicode="3" 
d="M554 210q0 -112 -73.5 -169t-214.5 -57q-41 0 -79.5 8t-68.5 25.5t-48.5 45.5t-18.5 69v73h5q32 -32 87.5 -50t119.5 -18q62 0 86.5 18.5t24.5 44.5q0 20 -5 34.5t-19 24t-38.5 15t-62.5 8.5t-60.5 20t-22.5 52v42l95 8q39 3 61 10t32.5 17t13 22t2.5 25q0 15 -6 29
t-21 24t-39.5 16t-61.5 6q-55 0 -102.5 -18.5t-80.5 -51.5h-5v77q0 27 14 53t43.5 46.5t75 33.5t108.5 13q51 0 97.5 -14t81.5 -40t55.5 -64t20.5 -86q0 -29 -8.5 -53t-22.5 -43t-32.5 -33.5t-38.5 -24.5q19 -6 38 -19t34 -31t24.5 -40.5t9.5 -47.5z" />
    <glyph glyph-name="uni0034" unicode="4" 
d="M8 234q0 30 6.5 54t19.5 48q27 50 64.5 106t77.5 107t78.5 91t66.5 58h60q46 0 76.5 -29t30.5 -83v-278h105v-74q0 -34 -21 -57t-58 -23h-26v-154h-91q-48 0 -72.5 20.5t-24.5 71.5v62h-187q-20 0 -39 6t-33.5 16.5t-23.5 25.5t-9 32zM300 306v183q-17 -21 -34.5 -46
t-33 -49.5t-28 -47.5t-19.5 -40h115z" />
    <glyph glyph-name="uni0035" unicode="5" 
d="M569 227q0 -59 -20.5 -104t-58 -76t-89.5 -47t-115 -16q-112 0 -169.5 36t-57.5 109v67h5q32 -31 81.5 -45t116.5 -14q68 0 96 23t28 60q0 16 -6 29t-22 22.5t-43.5 15t-70.5 5.5q-45 0 -91 -4t-83 -11v265q0 74 28.5 111t102.5 37h346v-57q0 -45 -29 -70.5t-86 -25.5
h-184v-106q14 1 27.5 1.5t36.5 0.5q51 0 98 -13t82 -39t56 -64.5t21 -89.5z" />
    <glyph glyph-name="uni0036" unicode="6" 
d="M580 232q0 -44 -15 -88t-48 -79.5t-86 -58t-128 -22.5q-60 0 -108.5 21t-83 63.5t-53.5 106t-19 148.5q0 90 22 161t64 120.5t102.5 75.5t137.5 26q85 0 134.5 -36.5t49.5 -99.5v-62h-5q-28 24 -66 36.5t-103 12.5q-66 0 -106 -39.5t-43 -114.5q9 12 24 22t32 17t34.5 11
t31.5 4q112 0 172 -58t60 -167zM223 247q0 -61 24.5 -87.5t70.5 -26.5q37 0 59.5 22.5t22.5 65.5q0 52 -23.5 70.5t-65.5 18.5q-24 0 -40.5 -7t-27 -17t-15.5 -21t-5 -18z" />
    <glyph glyph-name="uni0037" unicode="7" 
d="M573 600q0 -27 -18.5 -69t-45.5 -88l-122 -203q-10 -17 -19 -38t-15.5 -42t-10.5 -41.5t-4 -37.5v-81h-89q-20 0 -38.5 4t-33 15t-23.5 29.5t-9 47.5q0 88 60 186l99 162q17 28 27 48t18 39h-317v57q0 48 25.5 75t79.5 27h331q51 0 78 -24t27 -66z" />
    <glyph glyph-name="uni0038" unicode="8" 
d="M570 203q0 -47 -16.5 -87t-49.5 -69.5t-83.5 -46t-118.5 -16.5q-62 0 -110 15t-81 43t-50.5 67.5t-17.5 87.5q0 22 9 46t24 44.5t34 36.5t39 23q-19 7 -37.5 20.5t-32.5 32.5t-23 42.5t-9 51.5q0 51 21.5 90.5t57.5 66.5t83 41t98 14t98 -13t82.5 -38.5t57 -64.5
t21.5 -90q0 -29 -9.5 -53t-24.5 -43t-33 -32t-35 -19q16 -6 35 -21t34.5 -35.5t26 -44.5t10.5 -49zM306 559q-26 0 -41.5 -6t-24 -16t-11.5 -23t-3 -28q0 -26 17 -46.5t63 -20.5t63 20.5t17 46.5q0 15 -3 28t-11.5 23t-24.5 16t-41 6zM390 214q0 13 -5 25t-15 21.5t-26 15.5
t-38 6q-40 0 -62 -21.5t-22 -46.5q0 -16 4 -31t13.5 -26.5t26 -18.5t40.5 -7t40.5 7t26 18.5t13.5 26.5t4 31z" />
    <glyph glyph-name="uni0039" unicode="9" 
d="M575 377q0 -393 -291 -393q-99 0 -156 39.5t-57 102.5v72h5q33 -33 85.5 -49t109.5 -16q33 0 56 10t37 28.5t21 43.5t8 55q-14 -21 -43.5 -33.5t-58.5 -12.5q-41 0 -86 9t-83 33.5t-63 68.5t-25 113q0 52 18 99t53.5 82t88.5 56t122 21q49 0 95.5 -17t83 -55.5
t58.5 -101.5t22 -155zM392 430q0 67 -21 94.5t-69 27.5q-38 0 -62.5 -23.5t-24.5 -68.5q0 -46 25 -71t60 -25q24 0 41 6.5t28.5 16.5t17 21.5t5.5 21.5z" />
    <glyph glyph-name="uni003A" unicode=":" horiz-adv-x="343" 
d="M64 443q0 22 8.5 41.5t23 34t34 23t41.5 8.5t41.5 -8.5t34 -23t23 -34t8.5 -41.5t-8.5 -41.5t-23 -34t-34 -23t-41.5 -8.5t-41.5 8.5t-34 23t-23 34t-8.5 41.5zM64 107q0 22 8.5 41.5t23 34t34 23t41.5 8.5t41.5 -8.5t34 -23t23 -34t8.5 -41.5t-8.5 -41.5t-23 -34
t-34 -23t-41.5 -8.5t-41.5 8.5t-34 23t-23 34t-8.5 41.5z" />
    <glyph glyph-name="uni003B" unicode=";" horiz-adv-x="343" 
d="M64 443q0 22 8.5 41.5t23 34t34 23t41.5 8.5t41.5 -8.5t34 -23t23 -34t8.5 -41.5t-8.5 -41.5t-23 -34t-34 -23t-41.5 -8.5t-41.5 8.5t-34 23t-23 34t-8.5 41.5zM284 79q0 -43 -14 -81t-39 -66.5t-58 -45t-70 -16.5h-31v9q12 6 23.5 18.5t20.5 27.5t14.5 31.5t5.5 31.5
q0 21 -8.5 34t-16.5 20l-9 9t-12 15t-10.5 20t-4.5 24q0 48 27.5 73.5t72.5 25.5q52 0 80.5 -35t28.5 -95z" />
    <glyph glyph-name="uni003C" unicode="&#x3c;" horiz-adv-x="592" 
d="M548 497q0 -36 -21 -69t-67 -48q-25 -8 -54 -17.5t-58 -20t-56.5 -20.5t-49.5 -19q14 -8 37.5 -19t52.5 -23t60 -24t59.5 -23t52.5 -19t39 -12v-46q0 -22 -7 -36t-17.5 -21.5t-23 -10.5t-24.5 -3q-14 0 -39 4.5t-42 10.5q-35 12 -82.5 33t-98 45.5t-97.5 51.5t-81 51v30
q0 39 21 58.5t46 31.5q42 20 98.5 44.5t118 48.5t122.5 44.5t111 31.5v-54z" />
    <glyph glyph-name="uni003D" unicode="=" 
d="M59 353v60q0 35 26.5 55.5t64.5 20.5h405v-62q0 -17 -8 -30.5t-20.5 -23t-29 -15t-32.5 -5.5h-406zM59 206q0 35 26.5 55.5t64.5 20.5h405v-62q0 -19 -8 -32.5t-21 -22.5t-29 -13t-32 -4h-406v58z" />
    <glyph glyph-name="uni003E" unicode="&#x3e;" horiz-adv-x="592" 
d="M41 118q0 36 21 69t67 48q25 8 54 17.5t58 20t56.5 20.5t49.5 19q-22 12 -63 30t-86.5 36t-87.5 33t-64 21v46q0 22 7 36t17.5 21.5t23 10.5t24.5 3q7 0 17.5 -1.5t22 -3.5t22.5 -4.5t19 -5.5q35 -12 82.5 -33t97.5 -46t97 -51.5t82 -50.5v-30q0 -39 -20.5 -58.5
t-46.5 -31.5q-42 -20 -98.5 -45t-118 -49t-122.5 -44t-111 -31v54z" />
    <glyph glyph-name="uni003F" unicode="?" horiz-adv-x="500" 
d="M300 352q-20 -15 -27.5 -29t-7.5 -39v-30h-66q-45 0 -65 21t-20 50q0 30 11.5 52t25.5 35l93 82q11 10 15.5 26.5t4.5 29.5q0 24 -20.5 40.5t-62.5 16.5q-102 0 -145 -60h-5v60q0 28 13 55t38.5 48t62 33.5t83.5 12.5q52 0 94 -15.5t71 -41.5t44.5 -60.5t15.5 -71.5
q0 -45 -14 -82.5t-48 -63.5zM111 107q0 22 8.5 41.5t23 34t34 23t41.5 8.5t41.5 -8.5t34 -23t23 -34t8.5 -41.5t-8.5 -41.5t-23 -34t-34 -23t-41.5 -8.5t-41.5 8.5t-34 23t-23 34t-8.5 41.5z" />
    <glyph glyph-name="uni0040" unicode="@" horiz-adv-x="833" 
d="M606 270q10 0 24 8t26.5 27t21 49t8.5 75q0 48 -15.5 89t-45.5 70.5t-75 46.5t-103 17q-59 0 -112.5 -21.5t-94 -61.5t-64.5 -98t-24 -130q0 -62 19 -109t53 -79.5t81.5 -49t103.5 -16.5q22 0 49.5 2t57 6.5t58 11.5t51.5 16v-34q0 -35 -15 -56.5t-50 -32.5
q-23 -7 -69.5 -13.5t-101.5 -6.5q-72 0 -137.5 24.5t-116 70t-80 111t-29.5 147.5q0 84 31 161t87.5 135.5t136 93.5t177.5 35q77 0 141.5 -24.5t111 -68t72.5 -103t26 -129.5q0 -62 -18 -112.5t-49.5 -87t-74.5 -56.5t-92 -20q-23 0 -39.5 7.5t-27 19t-17 24.5t-10.5 25
q-18 -30 -49 -54.5t-76 -24.5q-28 0 -54.5 14t-47 38t-33 57t-12.5 71q0 52 18.5 98t51 80.5t78 54.5t99.5 20q25 0 52 -8t49.5 -21.5t37 -31t14.5 -35.5q0 -17 -4 -42.5t-9 -52.5q-5 -28 -9.5 -53.5t-4.5 -41.5q0 -13 7 -22t17 -9zM439 463q-14 0 -29 -8t-27.5 -23
t-20.5 -37t-8 -50q0 -21 4 -33.5t9.5 -19t11 -8.5t9.5 -2q20 0 34 10t24 30.5t17.5 52.5t14.5 77q-8 5 -16.5 8t-22.5 3z" />
    <glyph glyph-name="uni0041" unicode="A" horiz-adv-x="670" 
d="M5 85q0 25 10.5 71t28 103t42 119.5t52 121.5t58 109t60.5 81h74q51 0 84 -21.5t50 -50.5q25 -41 55 -110t58.5 -152.5t52 -175.5t35.5 -180h-86q-52 0 -80 17t-37 65q-4 19 -8.5 39t-10.5 42h-238q-6 -19 -11 -40.5t-9.5 -43.5t-8 -42.5t-6.5 -36.5h-77q-46 0 -67 23.5
t-21 61.5zM404 312q-17 51 -37.5 107.5t-40.5 98.5q-23 -43 -44 -99t-36 -107h158z" />
    <glyph glyph-name="uni0042" unicode="B" horiz-adv-x="663" 
d="M623 213q0 -56 -22.5 -97.5t-59.5 -69t-84.5 -41t-98.5 -13.5h-75q-106 0 -164.5 43t-58.5 134v496q19 6 46.5 12t57 11.5t58 8.5t51.5 3h84q52 0 98.5 -13t81 -38t54.5 -61.5t20 -83.5q0 -24 -9.5 -47t-25.5 -42t-36.5 -33t-41.5 -20q25 -8 47.5 -23.5t39.5 -36
t27.5 -43.5t10.5 -46zM423 488q0 32 -21.5 45.5t-63.5 13.5h-42q-8 0 -22.5 -1t-24.5 -3v-123h84q48 0 69 17.5t21 50.5zM433 218q0 42 -20.5 57.5t-74.5 15.5h-88v-107q0 -30 34 -30h61q48 0 68 17.5t20 46.5z" />
    <glyph glyph-name="uni0043" unicode="C" horiz-adv-x="651" 
d="M621 471q-13 17 -35 30t-48.5 22t-56 14t-57.5 5q-42 0 -77.5 -13.5t-61.5 -37.5t-40.5 -58.5t-14.5 -76.5q0 -53 15 -92t42 -65t63 -38.5t78 -12.5q27 0 55.5 5t54 13.5t46.5 20t34 25.5h5v-71q0 -33 -16 -62t-45.5 -50t-70.5 -33t-92 -12q-71 0 -136 24.5t-114.5 70.5
t-79 111.5t-29.5 147.5q0 75 25.5 142t73.5 117.5t117 79.5t155 29q103 0 159 -45.5t56 -118.5v-71h-5z" />
    <glyph glyph-name="uni0044" unicode="D" horiz-adv-x="720" 
d="M680 356q0 -79 -24.5 -146t-68.5 -115.5t-105.5 -76t-135.5 -27.5h-68q-47 0 -86.5 9t-69 29.5t-46 52t-16.5 76.5v509q19 7 44.5 13t52.5 10.5t53.5 7t46.5 2.5h72q63 0 126 -20.5t113 -63t81 -107.5t31 -153zM490 341q0 51 -13.5 90t-36.5 64.5t-54 38.5t-66 13h-40
q-5 0 -13.5 -1t-16.5 -3v-354q0 -18 10.5 -31.5t29.5 -13.5h31q84 0 126.5 53.5t42.5 143.5z" />
    <glyph glyph-name="uni0045" unicode="E" horiz-adv-x="606" 
d="M575 92q0 -24 -8 -42.5t-27 -31.5t-49.5 -20t-76.5 -7h-78q-138 0 -209.5 69t-71.5 214v116q0 48 3 97t9 89q10 66 46 90t87 24h376v-45q0 -51 -27.5 -80.5t-87.5 -29.5h-210q-3 -26 -5 -59t-2 -58h267v-69q0 -78 -104 -78h-163v-25q0 -28 5 -47t18.5 -31t37 -17t59.5 -5
h50q43 0 81 4t80 15v-73z" />
    <glyph glyph-name="uni0046" unicode="F" horiz-adv-x="539" 
d="M534 623q0 -15 -6 -31t-18.5 -28.5t-31.5 -21t-44 -8.5h-184v-129h243q-1 -11 -0.5 -21.5t0.5 -18.5v-19q0 -39 -24 -62.5t-58 -23.5h-157v-260h-92q-45 0 -73 23t-28 71v471q0 125 139 125h334v-67z" />
    <glyph glyph-name="uni0047" unicode="G" horiz-adv-x="701" 
d="M651 170q0 -43 -14 -77.5t-44 -58.5t-78 -37t-116 -13q-74 0 -139 25t-114 71t-77.5 111.5t-28.5 145.5q0 76 27 143.5t77.5 117.5t123 79t163.5 29q51 0 89.5 -12t64 -32.5t38.5 -47t13 -55.5v-69h-5q-27 25 -75.5 43t-129.5 18q-39 0 -74.5 -12.5t-62.5 -37.5t-43 -62
t-16 -86q0 -56 14.5 -96.5t39.5 -66.5t58.5 -38.5t72.5 -12.5q21 0 32.5 3t17.5 9t7.5 14t1.5 17v77q0 22 -4 50.5t-9 44.5h97q46 0 69.5 -26.5t23.5 -65.5v-92z" />
    <glyph glyph-name="uni0048" unicode="H" horiz-adv-x="725" 
d="M60 690h98q38 0 65 -25t27 -64v-167h225v256h93q16 0 33.5 -6t31.5 -17.5t23 -28t9 -37.5v-601h-82q-20 0 -39 7t-34.5 20.5t-25 33.5t-9.5 46v175h-224v-282h-84q-20 0 -39 7t-34 20.5t-24.5 33.5t-9.5 46v583z" />
    <glyph glyph-name="uni0049" unicode="I" horiz-adv-x="330" 
d="M158 0q-33 0 -60.5 27.5t-27.5 79.5v583h106q14 0 29 -6t27 -17.5t20 -28t8 -37.5v-601h-102z" />
    <glyph glyph-name="uni004A" unicode="J" horiz-adv-x="449" 
d="M379 217q0 -106 -55 -166.5t-169 -60.5q-72 0 -111 29.5t-39 75.5v80h6q17 -14 40 -22.5t65 -8.5q40 0 56.5 21t16.5 54v471h67q54 0 88.5 -28.5t34.5 -80.5v-364z" />
    <glyph glyph-name="uni004B" unicode="K" horiz-adv-x="717" 
d="M137 690q31 0 54 -9.5t38.5 -24.5t23 -34.5t7.5 -39.5v-183q47 66 92 126.5t102 118.5q15 15 27.5 24t26 14t29.5 6.5t38 1.5h139v-5q-33 -31 -70 -70.5t-73.5 -82t-70 -84.5t-59.5 -77q35 -51 71 -100.5t78 -94.5q15 -16 27.5 -28.5t25.5 -22t28.5 -16.5t36.5 -12
q-16 -59 -42 -81.5t-73 -22.5q-29 0 -63.5 13.5t-56.5 37.5q-31 34 -58 67t-52.5 67.5t-50.5 71.5t-52 78v-328h-76q-31 0 -52.5 9.5t-35 25t-20 35t-6.5 39.5v581h67z" />
    <glyph glyph-name="uni004C" unicode="L" horiz-adv-x="556" 
d="M551 106q0 -54 -34.5 -84t-116.5 -30h-80q-132 0 -191 65.5t-59 196.5v436h80q110 0 110 -117v-306q0 -34 5 -56.5t17.5 -36t34 -19t53.5 -5.5h30q42 0 83.5 5.5t62.5 15.5h5v-65z" />
    <glyph glyph-name="uni004D" unicode="M" horiz-adv-x="985" 
d="M55 108q0 74 5 154t13 157t19 147t23 124h66q41 0 72.5 -9t54.5 -24.5t39 -36t25 -43.5l54 -134q18 -45 37 -97.5t30 -97.5q11 38 26 81t31 81l66 158q19 45 41.5 75.5t41.5 46.5h35q75 0 112.5 -39.5t48.5 -114.5q7 -51 13.5 -114.5t11.5 -133.5t7.5 -143.5t2.5 -144.5
h-81q-51 0 -82.5 27t-31.5 81q0 23 -1 65t-3.5 90.5t-5.5 98t-7 87.5l-95 -290q-5 -16 -13 -37t-17 -42.5t-19 -42.5t-20 -37h-53q-49 0 -88 42t-71 147l-35 115q-13 43 -27 84t-22 63q-5 -44 -9 -104t-6.5 -123t-4 -122t-1.5 -102h-71q-22 0 -42 7.5t-35.5 21t-24.5 33.5
t-9 46z" />
    <glyph glyph-name="uni004E" unicode="N" horiz-adv-x="725" 
d="M152 690q76 0 128 -36t87 -106l84 -166l44 -84v392h84q17 0 34 -6t31 -17.5t22.5 -28t8.5 -37.5v-601h-75q-57 0 -107.5 31t-96.5 115l-117 212q-8 14 -14 26l-11 22q-3 5 -5 10t-4 9v-425h-78q-20 0 -39 6.5t-34 20t-24.5 33.5t-9.5 46v584h92z" />
    <glyph glyph-name="uni004F" unicode="O" horiz-adv-x="764" 
d="M724 355q0 -86 -23.5 -154.5t-68.5 -116.5t-110.5 -74t-149.5 -26q-71 0 -131.5 24.5t-105 70.5t-70 111t-25.5 146q0 84 24 152t69.5 116.5t111 75t148.5 26.5q63 0 123 -23t106 -68t74 -110.5t28 -149.5zM534 338q0 114 -40 164t-120 50q-35 0 -62 -14.5t-45 -40.5
t-27.5 -62.5t-9.5 -79.5q0 -112 41 -164t119 -52q66 0 105 51t39 148z" />
    <glyph glyph-name="uni0050" unicode="P" horiz-adv-x="607" 
d="M60 671q19 4 44.5 9t53 9.5t55.5 7.5t53 3h77q54 0 100 -15t80.5 -43.5t54 -70t19.5 -95.5q0 -56 -20 -101.5t-55 -78t-81.5 -50t-100.5 -17.5q-26 0 -48.5 2t-41.5 8v-239h-85q-19 0 -37.5 7t-33.5 21t-24.5 36.5t-9.5 53.5v553zM250 391q16 -5 34 -7t38 -2q45 0 65 20
t20 58q0 54 -22 72t-59 18h-38q-7 0 -19 -1.5t-19 -3.5v-154z" />
    <glyph glyph-name="uni0051" unicode="Q" horiz-adv-x="779" 
d="M698 -102q-100 0 -197 24.5t-188 63.5q-58 16 -108 46t-86.5 73.5t-57.5 101.5t-21 131q0 75 20.5 142t64 117.5t111.5 79.5t163 29q58 0 116.5 -22.5t104.5 -66.5t75 -109t29 -150q0 -68 -15.5 -118t-41 -85t-57.5 -56.5t-66 -33.5q15 -6 41 -11.5t56.5 -9.5t63 -6.5
t59.5 -2.5v-61q0 -35 -19 -55.5t-47 -20.5zM534 339q0 61 -11 101.5t-31 65t-50 34.5t-67 10q-38 0 -65.5 -15t-45 -41.5t-26 -61.5t-8.5 -74q0 -119 44.5 -174t121.5 -55q27 0 51.5 13.5t44 39.5t31 65.5t11.5 91.5z" />
    <glyph glyph-name="uni0052" unicode="R" horiz-adv-x="658" 
d="M60 670q18 6 45 11.5t56.5 9.5t57.5 6.5t48 2.5h77q55 0 101.5 -14.5t80.5 -41.5t52.5 -65t18.5 -85q0 -35 -10.5 -66t-28 -55.5t-40 -41t-47.5 -22.5q25 -11 40.5 -32t35.5 -63l53 -112q15 -31 27.5 -53t20.5 -31v-5q-17 -9 -44 -13.5t-58 -4.5q-48 0 -78.5 19.5
t-45.5 53.5l-51 112q-10 22 -19 36t-19.5 22t-23 12t-29.5 6l-30 3v-259h-73q-57 0 -87 30.5t-30 78.5v561zM250 394q17 -2 35.5 -2.5t40.5 -0.5q20 0 35.5 7t25.5 18.5t15 25.5t5 29q0 38 -19 58.5t-61 20.5h-39q-6 0 -16.5 -1t-21.5 -3v-152z" />
    <glyph glyph-name="uni0053" unicode="S" horiz-adv-x="616" 
d="M578 219q0 -54 -19.5 -97t-56 -74t-90.5 -47.5t-123 -16.5q-115 0 -174.5 41t-59.5 116v68h5q16 -17 40 -30t52.5 -22t59 -13.5t60.5 -4.5q66 0 91 16t25 51q0 16 -7.5 27t-24.5 19.5t-44.5 15.5t-66.5 15q-112 22 -160 67t-48 123q0 46 20 88t57.5 74.5t90.5 51.5
t119 19q64 0 108.5 -13t72.5 -34t41 -47.5t13 -53.5v-73h-5q-17 17 -40.5 29.5t-50 20.5t-55 12t-55.5 4q-71 0 -98.5 -17.5t-27.5 -46.5q0 -12 4 -21t18.5 -17.5t42.5 -17t76 -18.5q109 -23 159.5 -68t50.5 -126z" />
    <glyph glyph-name="uni0054" unicode="T" horiz-adv-x="611" 
d="M601 689v-66q0 -16 -8.5 -32.5t-23 -29.5t-33.5 -21.5t-41 -8.5h-98v-531h-83q-21 0 -40.5 5t-34.5 17t-23.5 31t-8.5 46v432h-197v66q0 16 7 32t20.5 29.5t33.5 22t46 8.5h484z" />
    <glyph glyph-name="uni0055" unicode="U" horiz-adv-x="742" 
d="M60 690h81q46 0 77.5 -30t31.5 -101v-264q0 -87 32 -121t98 -34q57 0 84.5 36t27.5 114v400h81q54 0 81.5 -29t27.5 -98v-268q0 -65 -20 -122t-60 -99t-100 -66t-140 -24q-66 0 -121.5 21.5t-95.5 61t-62.5 96t-22.5 126.5v401z" />
    <glyph glyph-name="uni0056" unicode="V" horiz-adv-x="674" 
d="M116 690q24 0 43.5 -8t33.5 -20.5t22.5 -28.5t11.5 -31q6 -33 17.5 -76t26.5 -90t33.5 -95t38.5 -90q21 43 42 97.5t39 113t32 117.5t22 111h96q35 0 60 -21t25 -58q0 -20 -11.5 -58t-30.5 -95q-17 -51 -44.5 -117.5t-59 -133t-63.5 -124.5t-58 -91h-45q-35 0 -56.5 14
t-43.5 47q-41 63 -78.5 138t-68 157t-54 168.5t-36.5 173.5h106z" />
    <glyph glyph-name="uni0057" unicode="W" horiz-adv-x="1024" 
d="M120 690q42 0 71.5 -23t37.5 -69q12 -72 32.5 -146.5t56.5 -164.5q18 43 35 93t32 100t27 98t19 88h66q51 0 86 -23.5t48 -83.5q7 -34 15 -66t18.5 -64.5t24 -67t31.5 -74.5q36 91 63.5 189.5t44.5 213.5h96q37 0 61 -23t24 -62q0 -15 -3 -31q-14 -62 -39 -139
t-56.5 -156t-68 -154t-73.5 -133h-52q-16 0 -40.5 9.5t-44.5 42.5q-16 26 -32 59.5t-31.5 72t-29 80t-24.5 83.5q-10 -39 -26 -86.5t-36 -94.5t-42 -90.5t-44 -75.5h-52q-7 0 -18 2t-23 7.5t-24 15.5t-22 27q-84 140 -138 298.5t-80 347.5h110z" />
    <glyph glyph-name="uni0058" unicode="X" horiz-adv-x="732" 
d="M151 690q16 0 32.5 -4t34.5 -16t39 -35t47 -61l64 -94q35 40 58 69t37.5 52t22.5 44t14 45h68q44 0 62.5 -24t18.5 -58q0 -21 -13 -49t-37 -62t-57.5 -74t-73.5 -85q28 -41 54 -78t54.5 -71.5t61 -66.5t72.5 -63q-14 -17 -27 -29.5t-27.5 -20.5t-32 -12t-39.5 -4
q-54 0 -97 31.5t-93 103.5l-67 96q-29 -35 -49 -64.5t-34 -56t-23 -51.5t-16 -52h-82q-22 0 -36.5 7t-23 19t-12 27t-3.5 31q0 17 4.5 35t10.5 32q13 31 32 59.5t41 55t45.5 51.5t46.5 49l-77 105q-40 54 -72 107.5t-47 111.5h119z" />
    <glyph glyph-name="uni0059" unicode="Y" horiz-adv-x="629" 
d="M101 690q48 0 76 -18.5t38 -40.5q22 -48 52 -100t59 -94q16 23 34 52t35.5 61.5t33.5 68t28 71.5h90q33 0 52.5 -19t19.5 -42q0 -14 -11 -40t-28.5 -57.5t-40 -66.5t-45.5 -68.5t-44.5 -61.5t-37.5 -46v-289h-83q-20 0 -39 6.5t-34 20t-24.5 33.5t-9.5 46v184
q-30 37 -61 83t-59.5 97.5t-53.5 107t-43 112.5h96z" />
    <glyph glyph-name="uni005A" unicode="Z" horiz-adv-x="641" 
d="M605 91q0 -19 -7.5 -35.5t-21 -29t-32 -19.5t-39.5 -7h-380q-12 0 -27.5 6t-29 18t-23 29t-9.5 40q0 19 4 37.5t15 40t32 48.5t54 63l161 177q20 22 31.5 39.5t18.5 29.5h-314v57q0 49 30.5 77t93.5 28h315q52 0 84 -25t32 -70q0 -20 -2.5 -38t-10 -37t-21.5 -40t-36 -46
l-160 -183q-25 -28 -44.5 -49.5t-33.5 -42.5h320v-68z" />
    <glyph glyph-name="uni005B" unicode="[" horiz-adv-x="320" 
d="M70 740h184q10 0 21.5 -3.5t21 -12t15.5 -22t6 -32.5v-37h-128v-696h64q28 0 46 -18t18 -53v-36h-248v910z" />
    <glyph glyph-name="uni005C" unicode="\" horiz-adv-x="483" 
d="M390 0q-19 0 -38.5 5t-37.5 16t-33 30t-26 48l-226 591h78q33 0 66 -16.5t50 -59.5l235 -614h-68z" />
    <glyph glyph-name="uni005D" unicode="]" horiz-adv-x="320" 
d="M13 -63h128v696h-64q-28 0 -46 18t-18 53v36h248v-910h-184q-11 0 -22 3.5t-20.5 12t-15.5 21.5t-6 33v37z" />
    <glyph glyph-name="uni005E" unicode="^" horiz-adv-x="491" 
d="M395 443q-28 0 -46 9t-27 33q-4 11 -14.5 30.5t-22 40t-22.5 37.5t-17 23q-8 -9 -23.5 -31t-32 -48.5t-32 -53t-24.5 -45.5h-23q-31 0 -45.5 13t-14.5 34q0 6 5 16.5t8 16.5q10 21 27 50t38.5 60t45.5 61t47 52h24q17 0 32.5 -11.5t26.5 -25.5q15 -19 37 -54t43.5 -73.5
t40 -75t26.5 -58.5h-57z" />
    <glyph glyph-name="uni005F" unicode="_" horiz-adv-x="565" 
d="M0 -291v91h565v-91h-565z" />
    <glyph glyph-name="uni0060" unicode="`" horiz-adv-x="529" 
d="M350 630h-46q-102 0 -150 22q-23 10 -42 34t-19 55q0 25 16.5 42t47.5 17q34 0 63.5 -14.5t53.5 -39.5q23 -23 43 -51.5t33 -59.5v-5z" />
    <glyph glyph-name="uni0061" unicode="a" horiz-adv-x="584" 
d="M539 242q0 -75 -13 -124.5t-44 -79t-81.5 -41.5t-125.5 -12q-40 0 -81.5 10t-75.5 31t-56 54t-22 80q0 91 69 137.5t219 46.5h27v23q0 34 -26.5 45t-83.5 11q-39 0 -66.5 -4.5t-47.5 -12t-35.5 -19t-30.5 -24.5h-5v67q0 25 13.5 49.5t41.5 44t71 31t102 11.5
q57 0 103.5 -14.5t79 -44t50.5 -74.5t18 -106v-85zM359 226h-38q-54 0 -77.5 -13.5t-23.5 -41.5q0 -26 17.5 -39.5t57.5 -13.5q26 0 45 14.5t19 52.5v41z" />
    <glyph glyph-name="uni0062" unicode="b" horiz-adv-x="677" 
d="M637 283q0 -69 -22.5 -124t-62.5 -94t-95.5 -59.5t-121.5 -20.5q-71 0 -123.5 18.5t-87 53t-52 83.5t-17.5 110v490h46q39 0 65.5 -6t42.5 -20.5t23 -37.5t7 -56v-129q12 15 25 28.5t29 24t37 16.5t49 6q56 0 103.5 -19t82 -55.5t53.5 -89t19 -119.5zM447 263
q0 84 -26.5 119t-76.5 35q-46 0 -75 -37.5t-29 -106.5q0 -81 29 -112.5t78 -31.5q45 0 72.5 35t27.5 99z" />
    <glyph glyph-name="uni0063" unicode="c" horiz-adv-x="527" 
d="M497 370q-13 14 -47.5 26t-74.5 12q-70 0 -107.5 -33t-37.5 -91q0 -72 36.5 -105t99.5 -33q45 0 76.5 8.5t56.5 22.5h2v-57q0 -27 -13.5 -51t-36.5 -42t-55.5 -28.5t-69.5 -10.5q-63 0 -115.5 20.5t-90.5 57.5t-59 89.5t-21 117.5q0 59 20 112t58.5 93t95 63.5
t129.5 23.5q33 0 61.5 -10t50.5 -27.5t34.5 -40.5t12.5 -50v-67h-5z" />
    <glyph glyph-name="uni0064" unicode="d" horiz-adv-x="679" 
d="M627 288q0 -75 -16 -131.5t-52 -95t-93 -58t-139 -19.5q-61 0 -113.5 23t-91 62t-60.5 90t-22 107q0 69 20 124.5t55 94.5t82.5 60t102.5 21q54 0 90.5 -21t51.5 -53v248h68q57 0 87 -31.5t30 -101.5v-319zM438 262q0 46 -8.5 76.5t-23.5 48.5t-36.5 25t-46.5 7
q-19 0 -36 -9.5t-30 -27.5t-20.5 -43.5t-7.5 -56.5q0 -81 33.5 -116.5t85.5 -35.5q90 0 90 132z" />
    <glyph glyph-name="uni0065" unicode="e" 
d="M579 346q0 -41 -16 -68t-49 -43t-83.5 -22t-120.5 -6h-82q16 -81 135 -81q66 0 108.5 9.5t65.5 25.5h7v-44q0 -26 -11.5 -50t-37 -42.5t-66.5 -29.5t-99 -11q-71 0 -125.5 22.5t-91 60.5t-55 89t-18.5 108q0 63 20.5 118t57.5 96t89 65t116 24q54 0 100.5 -15t81 -43
t54.5 -69.5t20 -93.5zM403 367q0 21 -19 39.5t-61 18.5q-50 0 -73 -28t-27 -68h74q34 0 54.5 2.5t32 7.5t15.5 12t4 16z" />
    <glyph glyph-name="uni0066" unicode="f" horiz-adv-x="378" 
d="M57 497q0 74 20 123t52.5 78t72 40.5t78.5 11.5q35 0 59.5 -8t39.5 -22.5t22 -33.5t7 -40v-44h-5q-16 8 -41 11.5t-44 3.5q-34 0 -55 -17t-21 -42v-65h126v-69q0 -28 -23 -44.5t-59 -16.5h-44v-363h-58q-69 0 -98 27.5t-29 90.5v379z" />
    <glyph glyph-name="uni0067" unicode="g" horiz-adv-x="646" 
d="M591 174q0 -10 0.5 -24.5t1.5 -34.5q1 -13 1 -27v-29q0 -50 -20.5 -94t-58 -76.5t-91 -51.5t-118.5 -19q-59 0 -100.5 12t-67.5 31.5t-38 45t-12 51.5v59h6q26 -23 73 -36t114 -13q60 0 91.5 29t31.5 74q0 7 -1 15.5t-1 16.5v19q-9 -26 -39.5 -47.5t-71.5 -21.5
q-53 0 -98.5 13.5t-79.5 43t-53.5 75t-19.5 109.5q0 57 21.5 106.5t61.5 86t96.5 58t126.5 21.5q63 0 109 -17.5t76 -50t45 -78t15 -101.5v-145zM319 413q-43 0 -66.5 -26.5t-23.5 -74.5q0 -62 26 -87t69 -25q40 0 61 27.5t21 75.5q0 61 -22 85.5t-65 24.5z" />
    <glyph glyph-name="uni0068" unicode="h" horiz-adv-x="666" 
d="M121 740q60 0 92 -27.5t32 -81.5v-142q21 33 58.5 55t102.5 22q42 0 79.5 -16t66 -46t45.5 -74t17 -99v-331h-73q-38 0 -60.5 8.5t-35.5 23.5t-17 36t-4 47v184q0 60 -20 86.5t-62 26.5q-55 0 -73.5 -29.5t-18.5 -87.5v-295h-64q-69 0 -97.5 28.5t-28.5 86.5v625h61z" />
    <glyph glyph-name="uni0069" unicode="i" horiz-adv-x="366" 
d="M256 675q0 -39 -28.5 -66.5t-70.5 -27.5q-21 0 -39 7.5t-31.5 20t-21.5 29.5t-8 37q0 19 8 36.5t21.5 30t31.5 20t39 7.5q42 0 70.5 -27.5t28.5 -66.5zM356 80q0 -25 -8.5 -41.5t-23.5 -27t-35 -15t-42 -4.5q-38 0 -71 10t-57 31.5t-38 55.5t-14 83v361h47
q40 0 67.5 -6.5t44.5 -21.5t24 -40.5t7 -62.5v-202q0 -37 18 -50.5t58 -13.5h23v-56z" />
    <glyph glyph-name="uni006A" unicode="j" horiz-adv-x="325" 
d="M268 675q0 -20 -8 -37t-21.5 -29.5t-31.5 -20t-39 -7.5t-39 7.5t-31.5 20t-21.5 29.5t-8 37q0 19 8 36.5t21.5 30t31.5 20t39 7.5t39 -7.5t31.5 -20t21.5 -30t8 -36.5zM265 53q0 -54 -14 -98.5t-42.5 -76t-71.5 -49t-100 -17.5q-42 0 -69.5 20t-27.5 55v56l21 1
q29 1 51 7t36.5 18.5t22 34.5t7.5 57v472h56q71 0 101 -36t30 -91v-353z" />
    <glyph glyph-name="uni006B" unicode="k" horiz-adv-x="630" 
d="M60 740h73q32 0 54.5 -9.5t36.5 -25.5t20 -35.5t6 -40.5v-313q34 51 68.5 101.5t76.5 95.5q9 10 17.5 17t20 11.5t26.5 6.5t37 2h133v-5q-13 -13 -39.5 -43.5t-57 -67t-60 -73.5t-48.5 -64l49 -73.5t54 -71.5q15 -18 26.5 -28.5t22.5 -16.5t22.5 -9.5t27.5 -7.5
q-5 -46 -35 -70.5t-81 -24.5q-22 0 -50.5 8.5t-47.5 29.5q-48 54 -85.5 111.5t-76.5 117.5v-262h-75q-54 0 -84.5 30.5t-30.5 81.5v628z" />
    <glyph glyph-name="uni006C" unicode="l" horiz-adv-x="372" 
d="M369 80q0 -25 -11 -42t-28.5 -27t-40 -14.5t-44.5 -4.5q-38 0 -72 11.5t-60 35t-41 59t-15 84.5v558h67q63 0 93 -30.5t30 -100.5v-399q0 -37 20 -50.5t60 -13.5h42v-66z" />
    <glyph glyph-name="uni006D" unicode="m" horiz-adv-x="967" 
d="M52 304q0 60 17 108.5t51 82.5t83.5 52.5t115.5 18.5q32 0 60 -9t49.5 -23t37 -31.5t22.5 -34.5q10 16 27 33t39.5 31.5t49 24t56.5 9.5q121 0 188 -66t67 -201v-299h-66q-38 0 -62 8t-38 22t-19 34.5t-5 46.5v203q0 54 -18.5 75.5t-60.5 21.5q-40 0 -55.5 -26t-15.5 -68
v-317h-66q-58 0 -88 23.5t-30 87.5v208q0 49 -18.5 70.5t-56.5 21.5q-40 0 -57 -22t-17 -73v-316h-66q-64 0 -94 28.5t-30 82.5v193z" />
    <glyph glyph-name="uni006E" unicode="n" horiz-adv-x="658" 
d="M52 305q0 59 19 107.5t55 82.5t88 52.5t118 18.5q73 0 125 -18.5t85 -53t48.5 -84t15.5 -110.5v-300h-80q-63 0 -86.5 24.5t-23.5 87.5v193q0 57 -20.5 82t-68.5 25q-85 0 -85 -104v-308h-64q-61 0 -93.5 26t-32.5 86v193z" />
    <glyph glyph-name="uni006F" unicode="o" horiz-adv-x="664" 
d="M40 263q0 68 22.5 124t62 95.5t94.5 61t120 21.5q56 0 107.5 -20.5t91 -58t63 -89.5t23.5 -116q0 -68 -20 -122.5t-58.5 -93t-94 -59.5t-126.5 -21q-59 0 -111 20.5t-90.5 57.5t-61 88t-22.5 112zM436 264q0 75 -29 113t-80 38q-20 0 -37.5 -10t-31.5 -27t-22 -41t-8 -52
q0 -81 29 -116.5t80 -35.5q45 0 72 37t27 94z" />
    <glyph glyph-name="uni0070" unicode="p" horiz-adv-x="678" 
d="M638 287q0 -71 -19.5 -127t-54 -95t-82.5 -60t-104 -21q-57 0 -90 22t-51 53v-229h-69q-57 0 -86.5 31.5t-29.5 101.5v291q0 153 76.5 232.5t227.5 79.5q60 0 112 -19.5t89.5 -56t59 -88t21.5 -115.5zM448 267q0 44 -7 73.5t-21 47.5t-35.5 25.5t-50.5 7.5
q-39 0 -66.5 -35t-27.5 -96q0 -44 9 -74t24.5 -49t36.5 -27t45 -8q45 0 69 36t24 99z" />
    <glyph glyph-name="uni0071" unicode="q" horiz-adv-x="678" 
d="M344 566q141 0 210 -72.5t69 -210.5v-453h-58q-70 0 -97.5 30t-27.5 93v109q-17 -31 -47 -54.5t-83 -23.5q-59 0 -108.5 19.5t-85.5 55.5t-56.5 88t-20.5 117q0 64 22 119.5t62 96t96 63.5t125 23zM327 421q-17 0 -34.5 -8.5t-31.5 -26t-23 -43t-9 -59.5q0 -42 8.5 -70
t23.5 -45.5t36 -25t45 -7.5q19 0 36.5 8t30.5 24.5t21 42t8 60.5q0 82 -28.5 116t-82.5 34z" />
    <glyph glyph-name="uni0072" unicode="r" horiz-adv-x="396" 
d="M390 408q-18 7 -33 9t-34 2q-35 0 -58.5 -19.5t-23.5 -70.5v-329h-52q-63 0 -97.5 30.5t-34.5 99.5v239q0 42 13.5 78t39.5 63t63 42.5t84 15.5q72 0 105.5 -26t33.5 -64v-70h-6z" />
    <glyph glyph-name="uni0073" unicode="s" horiz-adv-x="540" 
d="M500 177q0 -91 -64 -142t-179 -51q-56 0 -95 10t-63 27.5t-35 42.5t-11 55v55h5q27 -20 68 -34t101 -14q52 0 71.5 11.5t19.5 31.5q0 9 -4 15.5t-17 12.5t-38 11.5t-68 11.5q-75 11 -113 46t-38 101q0 49 21.5 86.5t56.5 62.5t80.5 37.5t92.5 12.5q94 0 145 -34t51 -97
v-57h-5q-28 20 -70 33t-99 13q-54 0 -74 -12.5t-20 -29.5q0 -8 3.5 -13.5t16.5 -10.5t38 -10.5t69 -12.5q69 -11 111.5 -49.5t42.5 -108.5z" />
    <glyph glyph-name="uni0074" unicode="t" horiz-adv-x="415" 
d="M57 529q0 30 14.5 58t38 49.5t53 34.5t59.5 13h20v-134h161v-67q0 -18 -8.5 -33t-22 -26t-30 -17.5t-32.5 -6.5h-68v-199q0 -28 16 -43.5t44 -15.5q34 0 52.5 3t33.5 9h5v-74q0 -35 -33.5 -61.5t-107.5 -26.5q-35 0 -70 9.5t-62.5 32t-45 60t-17.5 94.5v341z" />
    <glyph glyph-name="uni0075" unicode="u" horiz-adv-x="660" 
d="M52 550h74q63 0 91 -24.5t28 -87.5v-196q0 -61 25.5 -83.5t64.5 -22.5q34 0 57.5 24t23.5 89v301h74q57 0 87.5 -26t30.5 -86v-196q0 -66 -20 -114.5t-57 -80.5t-89 -47.5t-115 -15.5q-137 0 -206 63.5t-69 199.5v303z" />
    <glyph glyph-name="uni0076" unicode="v" horiz-adv-x="585" 
d="M104 550q23 0 42 -7.5t32.5 -19t22 -25.5t11.5 -27q6 -33 18 -72t25 -76t26 -68t22 -49q13 24 28 63.5t29 86.5t26.5 97.5t20.5 96.5h91q36 0 56.5 -20t20.5 -55q0 -29 -11.5 -71t-30 -89.5t-42.5 -96.5t-48 -93t-47 -79t-40 -54h-51q-46 0 -73 21t-52 59
q-28 43 -55.5 100.5t-51 121.5t-41.5 130t-27 126h99z" />
    <glyph glyph-name="uni0077" unicode="w" horiz-adv-x="885" 
d="M106 550q24 0 42 -7.5t31 -18.5t20.5 -25t9.5 -27q11 -57 27.5 -115t41.5 -119q30 70 52.5 142t39.5 147h74q18 0 35 -7t31.5 -18t24.5 -26t14 -31q4 -19 12 -45t17.5 -54t20.5 -56t22 -52q11 26 22.5 61t22.5 75.5t20.5 85t16.5 90.5h89q44 0 63.5 -22.5t19.5 -46.5
q0 -9 -3 -24.5t-7.5 -33t-10 -35.5t-9.5 -32q-12 -41 -30.5 -91.5t-40.5 -100.5t-46.5 -95.5t-47.5 -76.5h-53q-35 0 -54.5 10.5t-30.5 27.5q-13 20 -26.5 48t-26.5 58.5t-24.5 62t-20.5 57.5q-8 -30 -21.5 -67t-30 -74t-35 -69.5t-36.5 -53.5h-47q-33 0 -52.5 7.5
t-35.5 30.5q-29 43 -57 103t-52 129.5t-43 143.5t-29 144h101z" />
    <glyph glyph-name="uni0078" unicode="x" horiz-adv-x="586" 
d="M127 550q23 0 42 -9t35 -23.5t29.5 -32t25.5 -34.5l41 -58q26 28 43.5 50.5t28.5 41t16 34.5t7 31h65q37 0 56.5 -20t19.5 -49q0 -23 -13.5 -53t-43.5 -68q-17 -21 -38.5 -43.5t-44.5 -48.5l49 -69q22 -31 38 -50t31 -31t30 -19t35 -13q0 -45 -29 -68t-80 -23
q-29 0 -52.5 8.5t-43 23t-35.5 33.5t-31 41l-44 64q-19 -21 -33.5 -39.5t-24.5 -38t-16.5 -40.5t-9.5 -47h-77q-29 0 -52 18t-23 47q0 23 5.5 45t18 45.5t33 49t50.5 55.5l34 34q-30 42 -60 80.5t-56 81.5q-12 20 -19 41t-9 53h102z" />
    <glyph glyph-name="uni0079" unicode="y" horiz-adv-x="583" 
d="M107 550q18 0 35.5 -5.5t32 -15.5t25 -24.5t14.5 -32.5q7 -33 17.5 -68t22 -69.5t23.5 -66t23 -56.5q15 31 30 72.5t28 87.5t23 92t15 86h91q42 0 61.5 -18.5t19.5 -51.5q0 -22 -9 -60.5t-24.5 -85t-36 -96t-43.5 -93.5q-39 -74 -69 -127t-54.5 -89t-45.5 -58t-42 -33.5
t-44.5 -15t-52.5 -3.5q-46 0 -79 24t-33 71v46l82 6q38 3 58 19t35 50q-30 44 -62.5 109.5t-61 137t-49.5 142.5t-29 126h99z" />
    <glyph glyph-name="uni007A" unicode="z" horiz-adv-x="558" 
d="M528 77q0 -30 -26.5 -53.5t-65.5 -23.5h-294q-21 0 -41 5t-35.5 16t-25 28.5t-9.5 43.5q0 25 15.5 55t51.5 65l164 160q6 6 15 17.5t12 18.5h-259v53q0 22 9.5 38.5t24 27.5t32.5 16.5t35 5.5h278q49 0 79.5 -26.5t30.5 -74.5q0 -29 -23 -64.5t-59 -70.5l-136 -132
q-5 -5 -13 -16t-13 -21h253v-68z" />
    <glyph glyph-name="uni007B" unicode="{" horiz-adv-x="459" 
d="M40 336l59 10q26 5 34.5 23t8.5 40q0 18 -1 34.5t-3 36.5q-2 22 -2.5 39t-0.5 38q0 43 13 77.5t35.5 57.5t53.5 35.5t67 12.5h56q30 0 54.5 -20.5t24.5 -55.5v-51h-84q-23 0 -37 -18t-14 -63q0 -14 0.5 -26.5t2.5 -29.5t3.5 -30t1.5 -34q0 -54 -26.5 -82t-64.5 -39v-3
q40 -11 65.5 -40.5t25.5 -84.5q0 -21 -1.5 -35t-3.5 -32q-2 -17 -2.5 -31t-0.5 -29q0 -39 13.5 -59.5t37.5 -20.5h16q13 0 25 -6t21.5 -15.5t15.5 -21.5t6 -23v-60h-134q-38 0 -69 13t-53.5 36.5t-35 57t-12.5 74.5q0 21 0.5 39.5t2.5 41.5q2 17 4.5 35.5t2.5 35.5
q0 26 -12.5 43.5t-33.5 21.5q-59 11 -59 61v47z" />
    <glyph glyph-name="uni007C" unicode="|" horiz-adv-x="257" 
d="M140 -170q-14 0 -27.5 12t-13.5 33v866h20q15 0 28.5 -10t13.5 -30v-871h-21z" />
    <glyph glyph-name="uni007D" unicode="}" horiz-adv-x="459" 
d="M104 -44q23 0 37 18t14 63q0 14 -0.5 26.5t-2.5 29.5q-2 18 -3.5 30.5t-1.5 33.5q0 54 26.5 82t64.5 39v3q-40 11 -65.5 40.5t-25.5 84.5q0 21 1.5 35t3.5 32q3 33 3 60q0 39 -13.5 59.5t-37.5 20.5h-16q-13 0 -25 6t-21.5 15.5t-15.5 21.5t-6 23v60h134q37 0 68.5 -13
t54 -36.5t35 -57t12.5 -74.5q0 -21 -0.5 -39.5t-2.5 -41.5q-2 -17 -4.5 -35.5t-2.5 -35.5q0 -26 12.5 -43.5t33.5 -21.5q59 -11 59 -61v-47l-59 -10q-26 -5 -34.5 -23t-8.5 -40q0 -18 1 -34.5t3 -36.5q2 -22 2.5 -39t0.5 -38q0 -44 -13 -78t-35.5 -57t-53.5 -35.5t-67 -12.5
h-56q-30 0 -54.5 20.5t-24.5 55.5v51h84z" />
    <glyph glyph-name="uni007E" unicode="~" horiz-adv-x="591" 
d="M522 327q0 -26 -10 -48.5t-28 -39t-44.5 -26t-59.5 -9.5q-34 0 -58.5 11t-46.5 22q-18 9 -35.5 12.5t-26.5 3.5q-14 0 -23 -13.5t-9 -42.5h-48q-26 0 -46 22t-20 57t14 59t35.5 38.5t46 21t45.5 6.5q33 0 58 -9.5t45 -19.5q17 -8 36.5 -14t29.5 -6q17 0 24.5 11.5
t7.5 42.5h55q24 0 41 -21.5t17 -57.5z" />
    <glyph glyph-name="uni00A1" unicode="&#xa1;" horiz-adv-x="314" 
d="M56 442q0 22 8.5 42t23 34t34 22.5t41.5 8.5t41.5 -8.5t34 -22.5t23 -34t8.5 -42t-8.5 -41.5t-23 -34t-34 -23t-41.5 -8.5t-41.5 8.5t-34 23t-23 34t-8.5 41.5zM87 280h62q48 0 72.5 -28t26.5 -73l11 -359h-89q-48 0 -73 28t-23 74z" />
    <glyph glyph-name="uni00A2" unicode="&#xa2;" 
d="M277 683h50q83 0 83 -85v-46q52 -9 86.5 -39.5t34.5 -75.5v-67h-5q-12 14 -45 26t-71 12q-31 0 -58.5 -6.5t-48 -21t-32.5 -38.5t-12 -58q0 -66 33.5 -102t102.5 -36q35 0 68 6.5t65 24.5h2v-57q0 -45 -33 -75.5t-87 -41.5v-141h-41q-45 0 -68.5 17t-23.5 59v68
q-47 10 -85.5 33t-65.5 57t-42 78.5t-15 98.5q0 49 13.5 92.5t40 78.5t65.5 61t89 39v139z" />
    <glyph glyph-name="uni00A3" unicode="&#xa3;" 
d="M43 321q0 38 21 60.5t69 22.5h6q-5 16 -8.5 34.5t-3.5 36.5q0 48 16.5 89t48 71t78 47t106.5 17q28 0 55 -9t48 -25t34 -38.5t13 -49.5v-75h-5q-29 26 -61 37.5t-71 11.5q-35 0 -61 -20t-26 -62q0 -16 2 -32t6 -33h176v-48q0 -38 -25 -59t-67 -21h-70q1 -5 1.5 -10.5
t0.5 -10.5q0 -29 -10 -55.5t-27 -49.5h272v-64q0 -38 -28 -62t-89 -24h-366v52q0 29 15 52t30 40t30.5 42t15.5 60q0 8 -0.5 15t-2.5 15h-123v45z" />
    <glyph glyph-name="uni00A4" unicode="&#xa4;" 
d="M23 363v38q0 28 15.5 44.5t47.5 16.5h28q13 61 39.5 106.5t64 75.5t84 45t100.5 15q39 0 73 -9t58.5 -27t39 -46t14.5 -66v-63h-4q-19 29 -55.5 48t-93.5 19q-54 0 -89 -25t-44 -73h212v-29q0 -31 -20 -50.5t-60 -19.5h-145q-1 -1 -1 -8q-1 -3 -1 -7v-7q0 -13 1 -14
q0 -7 1 -8h225v-29q0 -31 -20 -50.5t-60 -19.5h-131q8 -46 41 -68t87 -22t93.5 18.5t59.5 41.5h4v-62q0 -66 -51.5 -104t-142.5 -38q-56 0 -103.5 17.5t-84.5 48.5t-61 74t-33 94h-88v40q0 28 15.5 43.5t47.5 15.5h15q-1 1 -1 7q-1 3 -1 7v7v7t1 8q0 7 1 8h-78z" />
    <glyph glyph-name="uni00A5" unicode="&#xa5;" 
d="M95 690q45 0 75.5 -16t40.5 -35q12 -24 26 -49.5t28 -48.5t26.5 -41.5t22.5 -28.5q11 12 29 36.5t37.5 55t37 64t28.5 63.5h74q29 0 46 -17t17 -40q0 -15 -19.5 -48t-46 -70.5t-54 -71.5t-43.5 -50h147v-48q0 -30 -21 -46.5t-52 -16.5h-108v-70h181v-50q0 -28 -21 -45
t-52 -17h-108v-100h-85q-30 0 -50.5 19t-20.5 56v25h-182v42q0 31 18 50.5t55 19.5h109v70h-182v45q0 31 18 48.5t55 17.5h67q-19 22 -42.5 57.5t-47 76t-45.5 83.5t-38 80h80z" />
    <glyph glyph-name="uni00A6" unicode="&#xa6;" horiz-adv-x="257" 
d="M94 720h20q15 0 28.5 -10t13.5 -30v-358h-21q-14 0 -27.5 12t-13.5 33v353zM94 228h20q15 0 28.5 -10t13.5 -30v-358h-21q-14 0 -27.5 12t-13.5 33v353z" />
    <glyph glyph-name="uni00A7" unicode="&#xa7;" 
d="M515 510q-32 30 -77.5 42.5t-96.5 12.5t-73 -12t-22 -31q0 -11 3 -20t14.5 -18t34.5 -19t64 -23q36 -12 72 -27.5t65 -37.5t47.5 -51.5t18.5 -69.5q0 -23 -8 -44t-19.5 -38.5t-24.5 -30t-23 -18.5q9 -6 19 -17t18 -25.5t13.5 -31.5t5.5 -34q0 -38 -14.5 -74t-46 -64
t-81.5 -44.5t-120 -16.5q-103 0 -155.5 36t-52.5 91v72h6q37 -29 86 -49.5t121 -20.5q42 0 62.5 13.5t20.5 43.5q0 10 -5 19.5t-21.5 20t-47.5 22.5t-82 28q-36 11 -66 28t-51.5 39t-34 47.5t-12.5 54.5q0 48 26 78t64 48q-29 14 -47.5 41.5t-18.5 78.5q0 35 15.5 68t48 59
t81.5 41.5t117 15.5q36 0 69 -9t57.5 -24.5t39.5 -36t15 -43.5v-70h-4zM343 298q-35 13 -58.5 21t-48.5 19q-9 -6 -17.5 -19.5t-8.5 -30.5q0 -23 16 -41t59 -32q32 -11 56 -18.5t48 -17.5q6 5 13 18t7 38q0 20 -13.5 34.5t-52.5 28.5z" />
    <glyph glyph-name="uni00A8" unicode="&#xa8;" horiz-adv-x="555" 
d="M487 714q0 -18 -7 -34t-19.5 -28.5t-28.5 -19.5t-34 -7q-36 0 -61 26.5t-25 62.5t25 60t61 24t62.5 -24t26.5 -60zM243 714q0 -18 -7 -34t-19 -28.5t-28 -19.5t-34 -7t-34 7t-27.5 19.5t-18.5 28.5t-7 34q0 36 25.5 60t61.5 24t62 -24t26 -60z" />
    <glyph glyph-name="uni00A9" unicode="&#xa9;" horiz-adv-x="806" 
d="M760 345q0 -75 -28.5 -141t-77.5 -115t-115 -77.5t-141 -28.5t-141 28.5t-115 77.5t-77.5 115t-28.5 141t28.5 141t77.5 115t115 77.5t141 28.5t141 -28.5t115 -77.5t77.5 -115t28.5 -141zM679 345q0 58 -22 109t-60.5 89.5t-89.5 60.5t-109 22t-109 -22t-89.5 -60.5
t-60.5 -89.5t-22 -109t22 -109t60.5 -89.5t89.5 -60.5t109 -22t109 22t89.5 60.5t60.5 89.5t22 109zM542 409q-14 18 -45 28t-62 10q-45 0 -73 -26.5t-28 -69.5q0 -54 29.5 -80t74.5 -26q30 0 59 9.5t43 24.5h11v-44q0 -40 -36 -65.5t-93 -25.5q-40 0 -77 13.5t-65.5 39
t-45.5 62t-17 82.5q0 43 14 80.5t40.5 65.5t66 44t90.5 16q57 0 91 -25.5t34 -68.5v-44h-11z" />
    <glyph glyph-name="uni00AA" unicode="&#xaa;" horiz-adv-x="423" 
d="M197 314q-25 0 -52 6.5t-49 20t-36.5 35.5t-14.5 53q0 61 44.5 90.5t141.5 29.5h13v12q0 18 -15 25t-51 7q-48 0 -70.5 -10t-40.5 -28h-8v46q0 18 8.5 34t26.5 29t45.5 20.5t65.5 7.5q75 0 119 -37.5t44 -118.5v-54q0 -49 -8.5 -81t-28.5 -51.5t-53 -27.5t-81 -8z
M226 468q-34 0 -47 -8.5t-13 -23.5q0 -14 9.5 -21.5t34.5 -7.5q15 0 25.5 8.5t10.5 30.5v22h-20z" />
    <glyph glyph-name="uni00AB" unicode="&#xab;" horiz-adv-x="643" 
d="M316 283l97 154q17 27 45 40t79 13h64l-125 -207l125 -208h-64q-45 0 -74.5 12t-49.5 43zM145 437q17 25 45 39t79 14h65l-135 -207l135 -208h-65q-45 0 -74.5 13t-49.5 42l-108 153z" />
    <glyph glyph-name="uni00AC" unicode="&#xac;" horiz-adv-x="584" 
d="M419 307h-391v136h529v-357h-138v221z" />
    <glyph glyph-name="uni00AE" unicode="&#xae;" horiz-adv-x="806" 
d="M36 345q0 75 28.5 141t77.5 115t115 77.5t141 28.5t141 -28.5t115 -77.5t77.5 -115t28.5 -141t-28.5 -141t-77.5 -115t-115 -77.5t-141 -28.5t-141 28.5t-115 77.5t-77.5 115t-28.5 141zM117 345q0 -58 22 -109t60.5 -89.5t89.5 -60.5t109 -22t109 22t89.5 60.5
t60.5 89.5t22 109t-22 109t-60.5 89.5t-89.5 60.5t-109 22t-109 -22t-89.5 -60.5t-60.5 -89.5t-22 -109zM233 521q12 4 28.5 7.5t33.5 5.5t33 3.5t27 1.5h44q32 0 59 -8.5t47 -24t31 -37t11 -48.5q0 -34 -18 -61.5t-44 -38.5q14 -11 24 -29.5t18 -33.5q17 -32 27.5 -49
t21.5 -23v-12q-12 -12 -29 -17t-35 -5q-26 0 -42 9t-27 23t-18.5 32t-16.5 36q-11 24 -21.5 30t-34.5 8v-138h-47q-34 0 -53 18t-19 47v304zM352 374q8 -1 17 -1h20q20 0 29.5 11t9.5 25q0 36 -39 36h-22h-6t-9 -1v-70z" />
    <glyph glyph-name="uni00AF" unicode="&#xaf;" horiz-adv-x="304" 
d="M293 688q0 -26 -19.5 -42t-44.5 -16h-218v44q0 32 19.5 52t56.5 20h206v-58z" />
    <glyph glyph-name="uni00B0" unicode="&#xb0;" horiz-adv-x="415" 
d="M376 560q0 -33 -12 -62t-33.5 -50.5t-52.5 -33.5t-69 -12q-39 0 -70.5 12t-53.5 33.5t-34 50t-12 61.5t11.5 62.5t33 51t53 34.5t72.5 13q34 0 64.5 -10t53.5 -30t36 -50t13 -70zM265 559q0 25 -15 39t-41 14q-25 0 -40.5 -12.5t-15.5 -41.5q0 -21 15 -35t38 -14
q27 0 43 13t16 37z" />
    <glyph glyph-name="uni00B1" unicode="&#xb1;" 
d="M40 417q0 30 24 53t62 23h105v157h77q31 0 55 -23t24 -59v-75h187v-67q0 -34 -27 -59t-75 -25h-85v-176h-69q-35 0 -61 26t-26 71v79h-191v75zM555 121v-51q0 -29 -21.5 -49.5t-48.5 -20.5h-432v48q0 30 19.5 51.5t50.5 21.5h432z" />
    <glyph glyph-name="uni00B2" unicode="&#xb2;" horiz-adv-x="435" 
d="M110 265q-26 0 -46.5 15t-20.5 44q0 32 22 59.5t56 53.5l95 72q23 17 23 39q0 13 -12 24t-45 11q-47 0 -72.5 -11t-47.5 -37h-8v47q0 23 9 44t28.5 37t50 25.5t74.5 9.5q37 0 67.5 -11.5t51.5 -30t32.5 -43.5t11.5 -52q0 -33 -13 -56.5t-34 -42t-46.5 -34.5t-50.5 -32
l-27 -18h180v-50q0 -30 -20 -46.5t-56 -16.5h-202z" />
    <glyph glyph-name="uni00B3" unicode="&#xb3;" horiz-adv-x="388" 
d="M173 264q-23 0 -46.5 4.5t-42.5 16t-30.5 30t-11.5 46.5v53h7q18 -18 47.5 -28t64.5 -10q34 0 47.5 8.5t13.5 14.5q0 7 -1.5 13.5t-7.5 12t-18 9t-33 3.5q-24 0 -41 11t-17 38v35l65 6q36 3 43 10.5t7 18.5q0 10 -14.5 20t-55.5 10q-60 0 -99 -39h-6v56q0 38 36 66.5
t109 28.5q31 0 59.5 -8.5t50.5 -25t35 -40t13 -54.5q0 -29 -13 -50.5t-31 -35.5q19 -12 32.5 -32.5t13.5 -46.5q0 -70 -47.5 -105.5t-128.5 -35.5z" />
    <glyph glyph-name="uni00B4" unicode="&#xb4;" horiz-adv-x="442" 
d="M96 635q13 31 33 59.5t43 51.5q24 25 53.5 39.5t63.5 14.5q31 0 47.5 -17t16.5 -42q0 -31 -19 -55t-42 -34q-48 -22 -150 -22h-46v5z" />
    <glyph glyph-name="uni00B5" unicode="&#xb5;" 
d="M53 550h71q61 0 89 -24.5t28 -87.5v-206q0 -54 16 -75.5t62 -21.5q33 0 51.5 24.5t18.5 89.5v301h72q57 0 86.5 -26t29.5 -86v-196q0 -60 -15.5 -107.5t-46.5 -81.5t-77 -52t-107 -18q-31 0 -55 15.5t-41 36.5v-215h-83q-18 0 -35.5 7t-32 20.5t-23 33.5t-8.5 46v623z
" />
    <glyph glyph-name="uni00B6" unicode="&#xb6;" horiz-adv-x="531" 
d="M23 481q0 45 13.5 83.5t42.5 67t74.5 44.5t110.5 16h104q58 0 88 -28t30 -79v-585h-38q-31 0 -50 14.5t-19 62.5v492q0 13 -3.5 17t-17.5 4h-8l-24 -1v-589h-33q-10 0 -22.5 3t-24 11.5t-19.5 23.5t-8 39v192h-21q-32 0 -63.5 14t-56 41t-40 66.5t-15.5 90.5z" />
    <glyph glyph-name="uni00B7" unicode="&#xb7;" horiz-adv-x="250" 
d="M22 301q0 21 8 40t22 32.5t33 21.5t40 8q43 0 72.5 -29.5t29.5 -72.5q0 -21 -8 -40t-21.5 -33t-32.5 -22t-40 -8t-40 8t-33 22t-22 33t-8 40z" />
    <glyph glyph-name="uni00B8" unicode="&#xb8;" horiz-adv-x="581" 
d="M323 0q0 -8 -0.5 -14.5t-1.5 -11.5q-1 -1 -1 -11q46 -2 78 -21.5t32 -59.5q0 -54 -33.5 -79.5t-106.5 -25.5q-52 0 -81.5 17.5t-29.5 43.5v35h6q29 -23 93 -23q27 0 38 7.5t11 20.5q0 29 -55 29q-8 0 -17 -0.5t-17 -1.5l-17 -2q6 22 12.5 48t9.5 49h80z" />
    <glyph glyph-name="uni00B9" unicode="&#xb9;" horiz-adv-x="363" 
d="M215 274q-31 0 -52 19.5t-21 53.5v220l-24 -7q-29 -8 -55.5 2.5t-31.5 37.5l-7 37q14 6 34 14t39 16l45 18q34 13 71 13q24 0 45.5 -16.5t21.5 -45.5v-362h-65z" />
    <glyph glyph-name="uni00BA" unicode="&#xba;" horiz-adv-x="423" 
d="M209 316q-41 0 -73 15t-54 40.5t-33 58.5t-11 69q0 40 11.5 75.5t34 62t56 42t77.5 15.5q41 0 73 -15t53.5 -40.5t32.5 -58.5t11 -68q0 -40 -11.5 -75.5t-34 -62.5t-56 -42.5t-76.5 -15.5zM209 585q-24 0 -38 -17.5t-14 -55.5q0 -48 15.5 -67t44.5 -19q24 0 37.5 17.5
t13.5 55.5q0 48 -15 67t-44 19z" />
    <glyph glyph-name="uni00BB" unicode="&#xbb;" horiz-adv-x="643" 
d="M36 490h64q51 0 79 -13.5t45 -39.5l97 -154l-97 -153q-20 -31 -49.5 -43t-74.5 -12h-64l125 208zM303 75l135 208l-135 207h65q51 0 79 -14t45 -39l108 -154l-108 -153q-20 -29 -49.5 -42t-74.5 -13h-65z" />
    <glyph glyph-name="uni00BC" unicode="&#xbc;" horiz-adv-x="900" 
d="M613 637q0 -8 -1.5 -21.5t-6.5 -22.5l-290 -593h-31q-25 0 -43 16t-18 46q0 12 4 27t10 28l280 573h41q22 0 38.5 -13t16.5 -40zM215 274q-31 0 -52 19.5t-21 53.5v220l-24 -7q-29 -8 -55.5 2.5t-31.5 37.5l-7 37q14 6 34 14t39 16l45 18q34 13 71 13q24 0 45.5 -16.5
t21.5 -45.5v-362h-65zM789 87v-87h-67q-33 0 -52 14.5t-19 49.5v23h-99q-13 0 -26 4t-24 11t-18 17.5t-7 24.5q0 19 4.5 34t12.5 30q16 28 39 60.5t48 62.5t49 53.5t43 34.5h39q32 0 54.5 -20t22.5 -56v-151h82v-48q0 -24 -16 -40.5t-44 -16.5h-22zM651 266
q-14 -17 -31.5 -38.5t-27.5 -36.5h59v75z" />
    <glyph glyph-name="uni00BD" unicode="&#xbd;" horiz-adv-x="900" 
d="M697 244q23 17 23 39q0 14 -12 25t-45 11q-46 0 -72 -10.5t-48 -38.5h-7v47q0 23 8.5 44t28 37t50 25.5t74.5 9.5q37 0 67.5 -11.5t51.5 -30t32.5 -43.5t11.5 -52q0 -34 -13 -58t-34 -42t-46.5 -33t-50.5 -31q-6 -5 -12.5 -9t-14.5 -10h180v-50q0 -30 -19.5 -46.5
t-56.5 -16.5h-201q-26 0 -47 15t-21 44q0 32 22 59t57 54zM223 62q0 12 4 27t10 28l280 573h41q22 0 38.5 -13t16.5 -40q0 -8 -1.5 -21.5t-6.5 -22.5l-290 -593h-31q-25 0 -43 16t-18 46zM24 637q14 6 34 14t39 16l45 18q33 13 71 13q24 0 45.5 -16.5t21.5 -45.5v-362h-65
q-31 0 -52 19.5t-21 53.5v220l-24 -7q-6 -2 -12.5 -3t-12.5 -1q-23 0 -40.5 11.5t-21.5 32.5z" />
    <glyph glyph-name="uni00BE" unicode="&#xbe;" horiz-adv-x="900" 
d="M671 266q-7 -8 -15 -17.5t-16 -20.5t-15.5 -20t-12.5 -17h59v75zM891 144q0 -26 -17 -41.5t-43 -15.5h-22v-87h-67q-33 0 -52 14.5t-19 49.5v23h-99q-12 0 -25 3.5t-24.5 11t-18.5 18t-7 24.5q0 33 17 64q12 21 33 52t46 62.5t51.5 58t48.5 38.5h39q35 0 56 -20.5
t21 -55.5v-151h82v-48zM173 264q-15 0 -32.5 2.5t-34 8t-30.5 15.5t-22 25q-12 18 -12 46v53h7q21 -21 52 -29.5t60 -8.5q34 0 48 9q13 7 13 14q0 9 -1 14t-8 12q-6 4 -18 9q-12 3 -33 3q-25 0 -41.5 11t-16.5 38v35l65 6q35 3 43 11q7 7 7 18t-8.5 17t-20 9t-23 3.5
t-18.5 0.5q-60 0 -99 -39h-6v56q0 28 14.5 46.5t36 29t47 15t47.5 4.5q30 0 58 -8t50.5 -24t36 -40t13.5 -56q0 -26 -12 -48.5t-32 -37.5q22 -14 34 -33.5t12 -45.5q0 -39 -14.5 -66t-38.5 -43.5t-56 -24t-67 -7.5zM643 637q0 -12 -1.5 -22.5t-6.5 -21.5l-290 -593h-31
q-28 0 -44.5 17t-16.5 45q0 14 4 28t10 27l280 573h41q25 0 40 -13.5t15 -39.5z" />
    <glyph glyph-name="uni00BF" unicode="&#xbf;" horiz-adv-x="500" 
d="M168 442q0 22 8.5 42t23 34t34 22.5t41.5 8.5t41.5 -8.5t34 -22.5t23 -34t8.5 -42t-8.5 -41.5t-23 -34t-34 -23t-41.5 -8.5t-41.5 8.5t-34 23t-23 34t-8.5 41.5zM179 203q19 15 27 29t8 38v29h66q45 0 65 -22.5t20 -51.5q0 -30 -11.5 -52.5t-25.5 -35.5l-70 -64
q-22 -19 -22 -47q0 -24 20.5 -40.5t62.5 -16.5q101 0 145 60h5v-60q0 -32 -13 -58.5t-38.5 -46.5t-62 -31t-83.5 -11q-53 0 -94.5 15t-70.5 41t-44.5 59.5t-15.5 71.5q0 86 64 138z" />
    <glyph glyph-name="uni00C0" unicode="&#xc0;" horiz-adv-x="670" 
d="M330 690q51 0 84 -21.5t50 -50.5q25 -41 55 -110t58.5 -152.5t52 -175.5t35.5 -180h-86q-52 0 -80 17t-37 65q-4 19 -8.5 39t-10.5 42h-238q-6 -19 -11 -40.5t-9.5 -43.5t-8 -42.5t-6.5 -36.5h-77q-46 0 -67 23.5t-21 61.5q0 25 10.5 71t28 103t42 119.5t52 121.5t58 109
t60.5 81h74zM155 887q0 25 16.5 42t47.5 17q33 0 63 -15t55 -39t44 -53.5t31 -57.5v-5h-46q-28 0 -64.5 2.5t-69 14t-55 33.5t-22.5 61zM404 312q-17 51 -37.5 107.5t-40.5 98.5q-23 -43 -44 -99t-36 -107h158z" />
    <glyph glyph-name="uni00C1" unicode="&#xc1;" horiz-adv-x="670" 
d="M5 85q0 25 10.5 71t28 103t42 119.5t52 121.5t58 109t60.5 81h74q51 0 84 -21.5t50 -50.5q25 -41 55 -110t58.5 -152.5t52 -175.5t35.5 -180h-86q-52 0 -80 17t-37 65q-4 19 -8.5 39t-10.5 42h-238q-6 -19 -11 -40.5t-9.5 -43.5t-8 -42.5t-6.5 -36.5h-77q-46 0 -67 23.5
t-21 61.5zM254 781q12 28 31 57.5t44 53.5t55 39t63 15q31 0 47.5 -17t16.5 -42q0 -39 -22.5 -61t-55 -33.5t-69 -14t-64.5 -2.5h-46v5zM404 312q-17 51 -37.5 107.5t-40.5 98.5q-23 -43 -44 -99t-36 -107h158z" />
    <glyph glyph-name="uni00C2" unicode="&#xc2;" horiz-adv-x="670" 
d="M5 85q0 25 10.5 71t28 103t42 119.5t52 121.5t58 109t60.5 81h74q51 0 84 -21.5t50 -50.5q25 -41 55 -110t58.5 -152.5t52 -175.5t35.5 -180h-86q-52 0 -80 17t-37 65q-4 19 -8.5 39t-10.5 42h-238q-6 -19 -11 -40.5t-9.5 -43.5t-8 -42.5t-6.5 -36.5h-77q-46 0 -67 23.5
t-21 61.5zM136 716v28q0 29 5 48.5t16 34t28.5 26t42.5 24.5l89 46l87 -45q25 -13 43 -25t29 -27.5t16.5 -36t5.5 -50.5v-23l-182 71zM404 312q-17 51 -37.5 107.5t-40.5 98.5q-23 -43 -44 -99t-36 -107h158z" />
    <glyph glyph-name="uni00C3" unicode="&#xc3;" horiz-adv-x="670" 
d="M330 690q51 0 84 -21.5t50 -50.5q25 -41 55 -110t58.5 -152.5t52 -175.5t35.5 -180h-86q-52 0 -80 17t-37 65q-4 19 -8.5 39t-10.5 42h-238q-6 -19 -11 -40.5t-9.5 -43.5t-8 -42.5t-6.5 -36.5h-77q-46 0 -67 23.5t-21 61.5q0 25 10.5 71t28 103t42 119.5t52 121.5t58 109
t60.5 81h74zM132 857q0 38 26.5 66.5t74.5 28.5q25 0 47 -7.5t39 -20.5q23 -17 35 -24t24 -7q17 0 27.5 8t10.5 28v23h20q13 0 26 -5t23.5 -16t17 -27.5t6.5 -39.5q0 -33 -25.5 -60.5t-74.5 -27.5q-31 0 -49.5 7t-37.5 21q-26 19 -37.5 25.5t-24.5 6.5q-14 0 -24.5 -10
t-10.5 -29v-21h-22q-27 0 -49 23t-22 58zM404 312q-17 51 -37.5 107.5t-40.5 98.5q-23 -43 -44 -99t-36 -107h158z" />
    <glyph glyph-name="uni00C4" unicode="&#xc4;" horiz-adv-x="670" 
d="M5 85q0 25 10.5 71t28 103t42 119.5t52 121.5t58 109t60.5 81h74q51 0 84 -21.5t50 -50.5q25 -41 55 -110t58.5 -152.5t52 -175.5t35.5 -180h-86q-52 0 -80 17t-37 65q-4 19 -8.5 39t-10.5 42h-238q-6 -19 -11 -40.5t-9.5 -43.5t-8 -42.5t-6.5 -36.5h-77q-46 0 -67 23.5
t-21 61.5zM205 913q36 0 62 -24t26 -60q0 -18 -7 -34t-19 -28.5t-28 -19.5t-34 -7t-34 7t-27.5 19.5t-18.5 28.5t-7 34q0 36 25.5 60t61.5 24zM448 913q36 0 62.5 -24t26.5 -60q0 -18 -7 -34t-19.5 -28.5t-28.5 -19.5t-34 -7q-36 0 -61 26.5t-25 62.5t25 60t61 24zM404 312
q-17 51 -37.5 107.5t-40.5 98.5q-23 -43 -44 -99t-36 -107h158z" />
    <glyph glyph-name="uni00C5" unicode="&#xc5;" horiz-adv-x="670" 
d="M217 642q-33 33 -33 83q0 32 12 56t32.5 39.5t47 23.5t55.5 8q67 0 105 -34.5t38 -91.5q0 -25 -8.5 -45.5t-23.5 -36.5q12 -8 22 -26q25 -42 55 -111t58.5 -152t52 -175t35.5 -180h-86q-52 0 -81 18.5t-36 63.5q-4 26 -7 44.5t-7 36.5h-245q-10 -38 -17 -75t-16 -88h-77
q-46 0 -67 23.5t-21 61.5q0 22 8.5 61t23 88t34.5 104.5t43.5 110t49.5 104.5t53 89zM405 312q-17 51 -38 107.5t-41 98.5q-23 -43 -44 -99t-36 -107h159zM282 725q0 -14 11.5 -29.5t35.5 -15.5q26 0 37.5 14.5t11.5 31.5t-11 32t-37 15q-22 0 -35 -13t-13 -35z" />
    <glyph glyph-name="uni00C6" unicode="&#xc6;" horiz-adv-x="951" 
d="M913 96q0 -50 -35 -77t-118 -27h-100q-59 0 -100 11t-69 32.5t-44.5 53.5t-25.5 75h-212q-6 -15 -13 -36t-13.5 -44t-12 -45t-8.5 -39h-86q-36 0 -53.5 19t-17.5 50q0 20 9 59t29 94q7 21 21.5 56t33.5 78t43 90t50 92t53.5 84.5t55.5 67.5h621v-53q0 -45 -30.5 -73.5
t-82.5 -28.5h-261q2 -7 4.5 -21t4.5 -30.5t4.5 -33.5t4.5 -29h284v-62q0 -45 -26 -63t-71 -18h-175l5 -43q6 -51 32 -69.5t87 -18.5h59q34 0 62.5 3t48.5 7q12 2 22.5 4.5t19.5 6.5v-72zM401 308q-2 28 -6.5 60t-9.5 63t-10.5 58t-9.5 46q-9 -13 -23.5 -41t-30.5 -61
t-30.5 -66.5t-24.5 -58.5h145z" />
    <glyph glyph-name="uni00C7" unicode="&#xc7;" horiz-adv-x="651" 
d="M422 -15q-1 -5 -1 -9v-7q0 -5 -1 -6q46 -2 78 -21.5t32 -59.5q0 -54 -33.5 -79.5t-106.5 -25.5q-52 0 -81.5 17.5t-29.5 43.5v35h6q29 -23 93 -23q27 0 38 7.5t11 20.5q0 29 -55 29q-8 0 -17 -0.5t-17 -1.5l-17 -2q4 14 10 38t11 47q-62 9 -117 37t-96 73t-65 105.5
t-24 134.5q0 75 25.5 142t73.5 117.5t117 79.5t155 29q103 0 159 -45.5t56 -118.5v-71h-5q-13 17 -35 30t-48.5 22t-56 14t-57.5 5q-42 0 -77.5 -13.5t-61.5 -37.5t-40.5 -58.5t-14.5 -76.5q0 -53 15 -92t42 -65t63 -38.5t78 -12.5q27 0 55.5 5t54 13.5t46.5 20t34 25.5h5
v-71q0 -32 -14.5 -59t-40.5 -47.5t-63 -33.5t-83 -16z" />
    <glyph glyph-name="uni00C8" unicode="&#xc8;" horiz-adv-x="606" 
d="M575 92q0 -24 -8 -42.5t-27 -31.5t-49.5 -20t-76.5 -7h-78q-138 0 -209.5 69t-71.5 214v116q0 48 3 97t9 89q10 66 46 90t87 24h376v-45q0 -51 -27.5 -80.5t-87.5 -29.5h-210q-3 -26 -5 -59t-2 -58h267v-69q0 -78 -104 -78h-163v-25q0 -28 5 -47t18.5 -31t37 -17t59.5 -5
h50q43 0 81 4t80 15v-73zM410 776h-46q-102 0 -150 22q-23 10 -42 34t-19 55q0 25 16.5 42t47.5 17q34 0 63.5 -14.5t53.5 -39.5q23 -23 43 -51.5t33 -59.5v-5z" />
    <glyph glyph-name="uni00C9" unicode="&#xc9;" horiz-adv-x="606" 
d="M575 92q0 -24 -8 -42.5t-27 -31.5t-49.5 -20t-76.5 -7h-78q-138 0 -209.5 69t-71.5 214v116q0 48 3 97t9 89q10 66 46 90t87 24h376v-45q0 -51 -27.5 -80.5t-87.5 -29.5h-210q-3 -26 -5 -59t-2 -58h267v-69q0 -78 -104 -78h-163v-25q0 -28 5 -47t18.5 -31t37 -17t59.5 -5
h50q43 0 81 4t80 15v-73zM223 786q13 31 33 59.5t43 51.5q24 25 53.5 39.5t63.5 14.5q31 0 47.5 -17t16.5 -42q0 -31 -19 -55t-42 -34q-48 -22 -150 -22h-46v5z" />
    <glyph glyph-name="uni00CA" unicode="&#xca;" horiz-adv-x="606" 
d="M575 92q0 -24 -8 -42.5t-27 -31.5t-49.5 -20t-76.5 -7h-78q-138 0 -209.5 69t-71.5 214v116q0 48 3 97t9 89q10 66 46 90t87 24h376v-45q0 -51 -27.5 -80.5t-87.5 -29.5h-210q-3 -26 -5 -59t-2 -58h267v-69q0 -78 -104 -78h-163v-25q0 -28 5 -47t18.5 -31t37 -17t59.5 -5
h50q43 0 81 4t80 15v-73zM322 788l-180 -71v28q0 29 5 48.5t16 34t28.5 26t42.5 24.5l89 46l87 -45q25 -13 43 -25t29 -27.5t16.5 -36t5.5 -50.5v-23z" />
    <glyph glyph-name="uni00CB" unicode="&#xcb;" horiz-adv-x="606" 
d="M575 92q0 -24 -8 -42.5t-27 -31.5t-49.5 -20t-76.5 -7h-78q-138 0 -209.5 69t-71.5 214v116q0 48 3 97t9 89q10 66 46 90t87 24h376v-45q0 -51 -27.5 -80.5t-87.5 -29.5h-210q-3 -26 -5 -59t-2 -58h267v-69q0 -78 -104 -78h-163v-25q0 -28 5 -47t18.5 -31t37 -17t59.5 -5
h50q43 0 81 4t80 15v-73zM531 829q0 -18 -7 -34t-19.5 -28.5t-28.5 -19.5t-34 -7q-36 0 -61 26.5t-25 62.5t25 60t61 24t62.5 -24t26.5 -60zM287 829q0 -18 -7 -34t-19 -28.5t-28 -19.5t-34 -7t-34 7t-27.5 19.5t-18.5 28.5t-7 34q0 36 25.5 60t61.5 24t62 -24t26 -60z" />
    <glyph glyph-name="uni00CC" unicode="&#xcc;" horiz-adv-x="330" 
d="M176 690q14 0 29 -6t27 -17.5t20 -28t8 -37.5v-601h-102q-33 0 -60.5 27.5t-27.5 79.5v583h106zM67 946q33 0 63 -15t55 -39t44 -53.5t31 -57.5v-5h-46q-28 0 -64.5 2.5t-69 14t-55 33.5t-22.5 61q0 25 16.5 42t47.5 17z" />
    <glyph glyph-name="uni00CD" unicode="&#xcd;" horiz-adv-x="330" 
d="M158 0q-33 0 -60.5 27.5t-27.5 79.5v583h106q14 0 29 -6t27 -17.5t20 -28t8 -37.5v-601h-102zM71 781q13 31 33 59.5t43 51.5q24 25 53.5 39.5t63.5 14.5q31 0 47.5 -17t16.5 -42q0 -31 -19 -55t-42 -34q-48 -22 -150 -22h-46v5z" />
    <glyph glyph-name="uni00CE" unicode="&#xce;" horiz-adv-x="330" 
d="M158 0q-33 0 -60.5 27.5t-27.5 79.5v583h106q14 0 29 -6t27 -17.5t20 -28t8 -37.5v-601h-102zM163 786l-180 -71v28q0 29 5 48.5t16 34t28.5 26t42.5 24.5l89 46l87 -45q25 -13 43 -25t29 -27.5t16.5 -36t5.5 -50.5v-23z" />
    <glyph glyph-name="uni00CF" unicode="&#xcf;" horiz-adv-x="330" 
d="M158 0q-33 0 -60.5 27.5t-27.5 79.5v583h106q14 0 29 -6t27 -17.5t20 -28t8 -37.5v-601h-102zM368 829q0 -18 -7 -34t-19.5 -28.5t-28.5 -19.5t-34 -7q-36 0 -61 26.5t-25 62.5t25 60t61 24t62.5 -24t26.5 -60zM124 829q0 -18 -7 -34t-19 -28.5t-28 -19.5t-34 -7t-34 7
t-27.5 19.5t-18.5 28.5t-7 34q0 36 25.5 60t61.5 24t62 -24t26 -60z" />
    <glyph glyph-name="uni00D0" unicode="&#xd0;" horiz-adv-x="720" 
d="M-9 289v51q0 24 13.5 40.5t38.5 16.5h17v270q19 7 44.5 13t52.5 10.5t53.5 7t46.5 2.5h72q63 0 126 -20.5t113 -63t81 -107.5t31 -153q0 -79 -24.5 -146t-68.5 -115.5t-105.5 -76t-135.5 -27.5h-68q-47 0 -86.5 9t-69 29.5t-46 52t-16.5 76.5v131h-69zM250 289v-100
q0 -18 10.5 -31.5t29.5 -13.5h31q84 0 126.5 53.5t42.5 143.5q0 51 -13.5 90t-36.5 64.5t-54 38.5t-66 13h-40q-5 0 -13.5 -1t-16.5 -3v-146h105v-53q0 -55 -54 -55h-51z" />
    <glyph glyph-name="uni00D1" unicode="&#xd1;" horiz-adv-x="725" 
d="M60 690h92q76 0 128 -36t87 -106l84 -166l44 -84v392h84q17 0 34 -6t31 -17.5t22.5 -28t8.5 -37.5v-601h-75q-57 0 -107.5 31t-96.5 115l-117 212q-8 14 -14 26l-11 22q-3 5 -5 10t-4 9v-425h-78q-20 0 -39 6.5t-34 20t-24.5 33.5t-9.5 46v584zM278 901q25 0 47 -7.5
t39 -20.5q23 -17 35 -24t24 -7q17 0 27.5 8t10.5 28v23h20q13 0 26 -5t23.5 -16t17 -27.5t6.5 -39.5q0 -33 -25.5 -60.5t-74.5 -27.5q-31 0 -49.5 7t-37.5 21q-26 19 -37.5 25.5t-24.5 6.5q-14 0 -24.5 -10t-10.5 -29v-21h-22q-27 0 -49 23t-22 58q0 38 26.5 66.5t74.5 28.5
z" />
    <glyph glyph-name="uni00D2" unicode="&#xd2;" horiz-adv-x="764" 
d="M724 355q0 -86 -23.5 -154.5t-68.5 -116.5t-110.5 -74t-149.5 -26q-71 0 -131.5 24.5t-105 70.5t-70 111t-25.5 146q0 84 24 152t69.5 116.5t111 75t148.5 26.5q63 0 123 -23t106 -68t74 -110.5t28 -149.5zM534 338q0 114 -40 164t-120 50q-35 0 -62 -14.5t-45 -40.5
t-27.5 -62.5t-9.5 -79.5q0 -112 41 -164t119 -52q66 0 105 51t39 148zM443 776h-46q-102 0 -150 22q-23 10 -42 34t-19 55q0 25 16.5 42t47.5 17q34 0 63.5 -14.5t53.5 -39.5q23 -23 43 -51.5t33 -59.5v-5z" />
    <glyph glyph-name="uni00D3" unicode="&#xd3;" horiz-adv-x="764" 
d="M724 355q0 -86 -23.5 -154.5t-68.5 -116.5t-110.5 -74t-149.5 -26q-71 0 -131.5 24.5t-105 70.5t-70 111t-25.5 146q0 84 24 152t69.5 116.5t111 75t148.5 26.5q63 0 123 -23t106 -68t74 -110.5t28 -149.5zM534 338q0 114 -40 164t-120 50q-35 0 -62 -14.5t-45 -40.5
t-27.5 -62.5t-9.5 -79.5q0 -112 41 -164t119 -52q66 0 105 51t39 148zM286 781q13 31 33 59.5t43 51.5q24 25 53.5 39.5t63.5 14.5q31 0 47.5 -17t16.5 -42q0 -31 -19 -55t-42 -34q-48 -22 -150 -22h-46v5z" />
    <glyph glyph-name="uni00D4" unicode="&#xd4;" horiz-adv-x="764" 
d="M724 355q0 -86 -23.5 -154.5t-68.5 -116.5t-110.5 -74t-149.5 -26q-71 0 -131.5 24.5t-105 70.5t-70 111t-25.5 146q0 84 24 152t69.5 116.5t111 75t148.5 26.5q63 0 123 -23t106 -68t74 -110.5t28 -149.5zM534 338q0 114 -40 164t-120 50q-35 0 -62 -14.5t-45 -40.5
t-27.5 -62.5t-9.5 -79.5q0 -112 41 -164t119 -52q66 0 105 51t39 148zM382 787l-180 -71v28q0 29 5 48.5t16 34t28.5 26t42.5 24.5l89 46l87 -45q25 -13 43 -25t29 -27.5t16.5 -36t5.5 -50.5v-23z" />
    <glyph glyph-name="uni00D5" unicode="&#xd5;" horiz-adv-x="764" 
d="M724 355q0 -86 -23.5 -154.5t-68.5 -116.5t-110.5 -74t-149.5 -26q-71 0 -131.5 24.5t-105 70.5t-70 111t-25.5 146q0 84 24 152t69.5 116.5t111 75t148.5 26.5q63 0 123 -23t106 -68t74 -110.5t28 -149.5zM534 338q0 114 -40 164t-120 50q-35 0 -62 -14.5t-45 -40.5
t-27.5 -62.5t-9.5 -79.5q0 -112 41 -164t119 -52q66 0 105 51t39 148zM571 864q0 -33 -25.5 -60.5t-74.5 -27.5q-31 0 -49.5 7t-37.5 21q-26 19 -37.5 25.5t-24.5 6.5q-14 0 -24.5 -10t-10.5 -29v-21h-22q-27 0 -49 23t-22 58q0 38 26.5 66.5t74.5 28.5q25 0 47 -7.5
t39 -20.5q23 -17 35 -24t24 -7q17 0 27.5 8t10.5 28v23h20q13 0 26 -5t23.5 -16t17 -27.5t6.5 -39.5z" />
    <glyph glyph-name="uni00D6" unicode="&#xd6;" horiz-adv-x="764" 
d="M724 355q0 -86 -23.5 -154.5t-68.5 -116.5t-110.5 -74t-149.5 -26q-71 0 -131.5 24.5t-105 70.5t-70 111t-25.5 146q0 84 24 152t69.5 116.5t111 75t148.5 26.5q63 0 123 -23t106 -68t74 -110.5t28 -149.5zM534 338q0 114 -40 164t-120 50q-35 0 -62 -14.5t-45 -40.5
t-27.5 -62.5t-9.5 -79.5q0 -112 41 -164t119 -52q66 0 105 51t39 148zM590 829q0 -18 -7 -34t-19.5 -28.5t-28.5 -19.5t-34 -7q-36 0 -61 26.5t-25 62.5t25 60t61 24t62.5 -24t26.5 -60zM346 829q0 -18 -7 -34t-19 -28.5t-28 -19.5t-34 -7t-34 7t-27.5 19.5t-18.5 28.5
t-7 34q0 36 25.5 60t61.5 24t62 -24t26 -60z" />
    <glyph glyph-name="uni00D7" unicode="&#xd7;" horiz-adv-x="589" 
d="M87 503q20 20 43 20q26 0 50 -24l113 -112l154 154l41 -41q20 -20 19.5 -45t-23.5 -48l-105 -106l171 -171l-43 -42q-19 -19 -41 -19q-27 0 -53 26l-120 120l-162 -161l-35 40q-7 8 -11.5 20.5t-5 26t3.5 27t13 22.5l111 111l-161 161z" />
    <glyph glyph-name="uni00D8" unicode="&#xd8;" horiz-adv-x="764" 
d="M632 706q19 0 33 -13.5t14 -34.5q0 -14 -5 -30t-13 -26l-13 -16q35 -45 55.5 -102t20.5 -129q0 -85 -23.5 -153.5t-68.5 -117t-110.5 -74.5t-149.5 -26q-46 0 -88 11t-79 31l-32 -42h-39q-19 0 -32.5 14t-13.5 38q0 14 4.5 30t12.5 26l9 11q-35 45 -54.5 104t-19.5 129
q0 82 24 150.5t69.5 117t111 75.5t148.5 27q43 0 84.5 -11.5t79.5 -32.5l37 44h38zM455 535q-34 19 -81 19q-35 0 -62 -15t-45 -41.5t-27.5 -63t-9.5 -79.5q0 -26 2 -50t7 -44zM309 156q35 -20 81 -20q66 0 105 52.5t39 149.5q0 54 -9 93z" />
    <glyph glyph-name="uni00D9" unicode="&#xd9;" horiz-adv-x="742" 
d="M60 690h81q46 0 77.5 -30t31.5 -101v-264q0 -87 32 -121t98 -34q57 0 84.5 36t27.5 114v400h81q54 0 81.5 -29t27.5 -98v-268q0 -65 -20 -122t-60 -99t-100 -66t-140 -24q-66 0 -121.5 21.5t-95.5 61t-62.5 96t-22.5 126.5v401zM173 887q0 25 16.5 42t47.5 17
q33 0 63 -15t55 -39t44 -53.5t31 -57.5v-5h-46q-28 0 -64.5 2.5t-69 14t-55 33.5t-22.5 61z" />
    <glyph glyph-name="uni00DA" unicode="&#xda;" horiz-adv-x="742" 
d="M60 690h81q46 0 77.5 -30t31.5 -101v-264q0 -87 32 -121t98 -34q57 0 84.5 36t27.5 114v400h81q54 0 81.5 -29t27.5 -98v-268q0 -65 -20 -122t-60 -99t-100 -66t-140 -24q-66 0 -121.5 21.5t-95.5 61t-62.5 96t-22.5 126.5v401zM257 781q12 28 31 57.5t44 53.5t55 39
t63 15q31 0 47.5 -17t16.5 -42q0 -39 -22.5 -61t-55 -33.5t-69 -14t-64.5 -2.5h-46v5z" />
    <glyph glyph-name="uni00DB" unicode="&#xdb;" horiz-adv-x="742" 
d="M141 690q46 0 77.5 -30t31.5 -101v-264q0 -87 32 -121t98 -34q57 0 84.5 36t27.5 114v400h81q54 0 81.5 -29t27.5 -98v-268q0 -65 -20 -122t-60 -99t-100 -66t-140 -24q-66 0 -121.5 21.5t-95.5 61t-62.5 96t-22.5 126.5v401h81zM182 716v28q0 29 5 48.5t16 34t28.5 26
t42.5 24.5l89 46l87 -45q25 -13 43 -25t29 -27.5t16.5 -36t5.5 -50.5v-23l-182 71z" />
    <glyph glyph-name="uni00DC" unicode="&#xdc;" horiz-adv-x="742" 
d="M60 690h81q46 0 77.5 -30t31.5 -101v-264q0 -87 32 -121t98 -34q57 0 84.5 36t27.5 114v400h81q54 0 81.5 -29t27.5 -98v-268q0 -65 -20 -122t-60 -99t-100 -66t-140 -24q-66 0 -121.5 21.5t-95.5 61t-62.5 96t-22.5 126.5v401zM471 913q36 0 62.5 -24t26.5 -60
q0 -18 -7 -34t-19.5 -28.5t-28.5 -19.5t-34 -7q-36 0 -61 26.5t-25 62.5t25 60t61 24zM228 913q36 0 62 -24t26 -60q0 -18 -7 -34t-19 -28.5t-28 -19.5t-34 -7t-34 7t-27.5 19.5t-18.5 28.5t-7 34q0 36 25.5 60t61.5 24z" />
    <glyph glyph-name="uni00DD" unicode="&#xdd;" horiz-adv-x="629" 
d="M101 690q48 0 76 -18.5t38 -40.5q22 -48 52 -100t59 -94q16 23 34 52t35.5 61.5t33.5 68t28 71.5h90q33 0 52.5 -19t19.5 -42q0 -14 -11 -40t-28.5 -57.5t-40 -66.5t-45.5 -68.5t-44.5 -61.5t-37.5 -46v-289h-83q-20 0 -39 6.5t-34 20t-24.5 33.5t-9.5 46v184
q-30 37 -61 83t-59.5 97.5t-53.5 107t-43 112.5h96zM254 781q12 28 31 57.5t44 53.5t55 39t63 15q31 0 47.5 -17t16.5 -42q0 -39 -22.5 -61t-55 -33.5t-69 -14t-64.5 -2.5h-46v5z" />
    <glyph glyph-name="uni00DE" unicode="&#xde;" horiz-adv-x="628" 
d="M60 690h112q31 0 53 -22.5t22 -61.5v-23q11 4 31 4h60q67 0 116 -17t81 -47t47.5 -71t15.5 -89q0 -55 -16.5 -100t-48.5 -77.5t-78.5 -50t-106.5 -17.5q-38 0 -62 4.5t-39 12.5v-136h-87q-11 0 -28 5t-33 16.5t-27.5 30.5t-11.5 47v592zM250 279q16 -5 34 -7t38 -2
q45 0 65 20t20 58q0 54 -22 72t-59 18h-38q-7 0 -19 -1.5t-19 -3.5v-154z" />
    <glyph glyph-name="uni00DF" unicode="&#xdf;" horiz-adv-x="674" 
d="M441 -8q-40 0 -67 7t-43.5 20t-24 31t-7.5 40v77h5q19 -15 43.5 -24t54.5 -9q29 0 43 12.5t14 31.5q0 25 -14 39t-54 32q-39 18 -60 45.5t-21 72.5q0 40 23 69.5t57 49.5q24 14 33 25.5t9 24.5q0 24 -16 36.5t-64 12.5q-58 0 -82.5 -30t-24.5 -103v-452h-55
q-66 0 -98 31.5t-32 88.5v345q0 64 23.5 113.5t64 83.5t94.5 51t116 17q52 0 99 -12.5t83 -35.5t57.5 -57.5t21.5 -77.5q0 -45 -19.5 -73.5t-57.5 -47.5q-21 -10 -34 -17t-20.5 -13t-10.5 -12t-3 -13q0 -15 11.5 -24.5t49.5 -25.5q57 -24 83 -58.5t26 -82.5q0 -41 -11.5 -75
t-36.5 -59.5t-63 -39.5t-92 -14z" />
    <glyph glyph-name="uni00E0" unicode="&#xe0;" horiz-adv-x="584" 
d="M539 242q0 -75 -13 -124.5t-44 -79t-81.5 -41.5t-125.5 -12q-40 0 -81.5 10t-75.5 31t-56 54t-22 80q0 91 69 137.5t219 46.5h27v23q0 34 -26.5 45t-83.5 11q-39 0 -66.5 -4.5t-47.5 -12t-35.5 -19t-30.5 -24.5h-5v67q0 25 13.5 49.5t41.5 44t71 31t102 11.5
q57 0 103.5 -14.5t79 -44t50.5 -74.5t18 -106v-85zM359 226h-38q-54 0 -77.5 -13.5t-23.5 -41.5q0 -26 17.5 -39.5t57.5 -13.5q26 0 45 14.5t19 52.5v41zM370 630h-46q-102 0 -150 22q-23 10 -42 34t-19 55q0 25 16.5 42t47.5 17q34 0 63.5 -14.5t53.5 -39.5
q23 -23 43 -51.5t33 -59.5v-5z" />
    <glyph glyph-name="uni00E1" unicode="&#xe1;" horiz-adv-x="584" 
d="M539 242q0 -75 -13 -124.5t-44 -79t-81.5 -41.5t-125.5 -12q-40 0 -81.5 10t-75.5 31t-56 54t-22 80q0 91 69 137.5t219 46.5h27v23q0 34 -26.5 45t-83.5 11q-39 0 -66.5 -4.5t-47.5 -12t-35.5 -19t-30.5 -24.5h-5v67q0 25 13.5 49.5t41.5 44t71 31t102 11.5
q57 0 103.5 -14.5t79 -44t50.5 -74.5t18 -106v-85zM359 226h-38q-54 0 -77.5 -13.5t-23.5 -41.5q0 -26 17.5 -39.5t57.5 -13.5q26 0 45 14.5t19 52.5v41zM206 636q13 31 33 59.5t43 51.5q24 25 53.5 39.5t63.5 14.5q31 0 47.5 -17t16.5 -42q0 -31 -19 -55t-42 -34
q-48 -22 -150 -22h-46v5z" />
    <glyph glyph-name="uni00E2" unicode="&#xe2;" horiz-adv-x="584" 
d="M539 242q0 -75 -13 -124.5t-44 -79t-81.5 -41.5t-125.5 -12q-40 0 -81.5 10t-75.5 31t-56 54t-22 80q0 91 69 137.5t219 46.5h27v23q0 34 -26.5 45t-83.5 11q-39 0 -66.5 -4.5t-47.5 -12t-35.5 -19t-30.5 -24.5h-5v67q0 25 13.5 49.5t41.5 44t71 31t102 11.5
q57 0 103.5 -14.5t79 -44t50.5 -74.5t18 -106v-85zM359 226h-38q-54 0 -77.5 -13.5t-23.5 -41.5q0 -26 17.5 -39.5t57.5 -13.5q26 0 45 14.5t19 52.5v41zM292 663l-180 -71v28q0 29 5 48.5t16 34t28.5 26t42.5 24.5l89 46l87 -45q25 -13 43 -25t29 -27.5t16.5 -36t5.5 -50.5
v-23z" />
    <glyph glyph-name="uni00E3" unicode="&#xe3;" horiz-adv-x="584" 
d="M539 242q0 -75 -13 -124.5t-44 -79t-81.5 -41.5t-125.5 -12q-40 0 -81.5 10t-75.5 31t-56 54t-22 80q0 91 69 137.5t219 46.5h27v23q0 34 -26.5 45t-83.5 11q-39 0 -66.5 -4.5t-47.5 -12t-35.5 -19t-30.5 -24.5h-5v67q0 25 13.5 49.5t41.5 44t71 31t102 11.5
q57 0 103.5 -14.5t79 -44t50.5 -74.5t18 -106v-85zM359 226h-38q-54 0 -77.5 -13.5t-23.5 -41.5q0 -26 17.5 -39.5t57.5 -13.5q26 0 45 14.5t19 52.5v41zM485 700q0 -33 -25.5 -60.5t-74.5 -27.5q-31 0 -49.5 7t-37.5 21q-26 19 -37.5 25.5t-24.5 6.5q-14 0 -24.5 -10
t-10.5 -29v-21h-22q-27 0 -49 23t-22 58q0 38 26.5 66.5t74.5 28.5q25 0 47 -7.5t39 -20.5q23 -17 35 -24t24 -7q17 0 27.5 8t10.5 28v23h20q13 0 26 -5t23.5 -16t17 -27.5t6.5 -39.5z" />
    <glyph glyph-name="uni00E4" unicode="&#xe4;" horiz-adv-x="584" 
d="M539 242q0 -75 -13 -124.5t-44 -79t-81.5 -41.5t-125.5 -12q-40 0 -81.5 10t-75.5 31t-56 54t-22 80q0 91 69 137.5t219 46.5h27v23q0 34 -26.5 45t-83.5 11q-39 0 -66.5 -4.5t-47.5 -12t-35.5 -19t-30.5 -24.5h-5v67q0 25 13.5 49.5t41.5 44t71 31t102 11.5
q57 0 103.5 -14.5t79 -44t50.5 -74.5t18 -106v-85zM359 226h-38q-54 0 -77.5 -13.5t-23.5 -41.5q0 -26 17.5 -39.5t57.5 -13.5q26 0 45 14.5t19 52.5v41zM487 709q0 -18 -7 -34t-19.5 -28.5t-28.5 -19.5t-34 -7q-36 0 -61 26.5t-25 62.5t25 60t61 24t62.5 -24t26.5 -60z
M243 709q0 -18 -7 -34t-19 -28.5t-28 -19.5t-34 -7t-34 7t-27.5 19.5t-18.5 28.5t-7 34q0 36 25.5 60t61.5 24t62 -24t26 -60z" />
    <glyph glyph-name="uni00E5" unicode="&#xe5;" horiz-adv-x="584" 
d="M539 242q0 -75 -13 -124.5t-44 -79t-81.5 -41.5t-125.5 -12q-40 0 -81.5 10t-75.5 31t-56 54t-22 80q0 91 69 137.5t219 46.5h27v23q0 34 -26.5 45t-83.5 11q-39 0 -66.5 -4.5t-47.5 -12t-35.5 -19t-30.5 -24.5h-5v67q0 25 13.5 49.5t41.5 44t71 31t102 11.5
q57 0 103.5 -14.5t79 -44t50.5 -74.5t18 -106v-85zM359 226h-38q-54 0 -77.5 -13.5t-23.5 -41.5q0 -26 17.5 -39.5t57.5 -13.5q26 0 45 14.5t19 52.5v41zM438 726q0 -28 -10.5 -51t-29.5 -39.5t-45.5 -25.5t-57.5 -9q-32 0 -59 9t-46.5 25.5t-30.5 39.5t-11 50q0 32 12 56
t32.5 39.5t47.5 23.5t56 8q67 0 104.5 -34.5t37.5 -91.5zM342 726q0 17 -11 32t-37 15q-22 0 -34.5 -13t-12.5 -35q0 -14 11 -29.5t35 -15.5q26 0 37.5 14.5t11.5 31.5z" />
    <glyph glyph-name="uni00E6" unicode="&#xe6;" horiz-adv-x="910" 
d="M355 356q0 36 -21 51t-78 15q-75 0 -120 -16t-67 -43h-5v60q0 27 12.5 52.5t38 46t65.5 32.5t96 12q55 0 103 -17t75 -56q31 40 80 56.5t100 16.5q48 0 91.5 -15t76.5 -43.5t52.5 -68.5t19.5 -89q0 -43 -17 -70.5t-51 -43t-85 -21t-118 -4.5l-75 1q4 -39 36.5 -61.5
t95.5 -22.5q57 0 101 9t73 29h6v-48q0 -62 -49.5 -97.5t-165.5 -35.5q-57 0 -104.5 21.5t-75.5 55.5q-22 -34 -59.5 -55.5t-95.5 -21.5h-27q-47 0 -87.5 11.5t-70.5 33t-47 53.5t-17 74q0 90 65.5 137t204.5 47h44v15zM563 335q45 0 72 1.5t40.5 5t17.5 9.5t4 15
q0 28 -19.5 43.5t-61.5 15.5q-25 0 -42.5 -8.5t-29 -21.5t-17 -29t-6.5 -31h42zM317 228q-97 0 -97 -58q0 -23 15 -37.5t57 -14.5q32 0 50 19.5t18 54.5v36h-43z" />
    <glyph glyph-name="uni00E7" unicode="&#xe7;" horiz-adv-x="527" 
d="M497 370q-13 14 -47.5 26t-74.5 12q-70 0 -107.5 -33t-37.5 -91q0 -72 36.5 -105t99.5 -33q45 0 76.5 8.5t56.5 22.5h2v-57q0 -27 -13.5 -51t-36.5 -42t-55.5 -28.5t-69.5 -10.5h-2q-1 -5 -1 -10v-8q0 -6 -1 -7q46 -2 78 -21.5t32 -59.5q0 -54 -33.5 -79.5t-106.5 -25.5
q-52 0 -81.5 17.5t-29.5 43.5v35h6q29 -23 93 -23q27 0 38 7.5t11 20.5q0 29 -55 29q-8 0 -17 -0.5t-17 -1.5l-17 -2q5 15 11.5 42t11.5 52q-94 24 -150 95.5t-56 180.5q0 59 20 112t58.5 93t95 63.5t129.5 23.5q33 0 61.5 -10t50.5 -27.5t34.5 -40.5t12.5 -50v-67h-5z" />
    <glyph glyph-name="uni00E8" unicode="&#xe8;" 
d="M579 346q0 -41 -16 -68t-49 -43t-83.5 -22t-120.5 -6h-82q16 -81 135 -81q66 0 108.5 9.5t65.5 25.5h7v-44q0 -26 -11.5 -50t-37 -42.5t-66.5 -29.5t-99 -11q-71 0 -125.5 22.5t-91 60.5t-55 89t-18.5 108q0 63 20.5 118t57.5 96t89 65t116 24q54 0 100.5 -15t81 -43
t54.5 -69.5t20 -93.5zM403 367q0 21 -19 39.5t-61 18.5q-50 0 -73 -28t-27 -68h74q34 0 54.5 2.5t32 7.5t15.5 12t4 16zM380 630h-46q-102 0 -150 22q-23 10 -42 34t-19 55q0 25 16.5 42t47.5 17q34 0 63.5 -14.5t53.5 -39.5q23 -23 43 -51.5t33 -59.5v-5z" />
    <glyph glyph-name="uni00E9" unicode="&#xe9;" 
d="M579 346q0 -41 -16 -68t-49 -43t-83.5 -22t-120.5 -6h-82q16 -81 135 -81q66 0 108.5 9.5t65.5 25.5h7v-44q0 -26 -11.5 -50t-37 -42.5t-66.5 -29.5t-99 -11q-71 0 -125.5 22.5t-91 60.5t-55 89t-18.5 108q0 63 20.5 118t57.5 96t89 65t116 24q54 0 100.5 -15t81 -43
t54.5 -69.5t20 -93.5zM403 367q0 21 -19 39.5t-61 18.5q-50 0 -73 -28t-27 -68h74q34 0 54.5 2.5t32 7.5t15.5 12t4 16zM227 635q13 31 33 59.5t43 51.5q24 25 53.5 39.5t63.5 14.5q31 0 47.5 -17t16.5 -42q0 -31 -19 -55t-42 -34q-48 -22 -150 -22h-46v5z" />
    <glyph glyph-name="uni00EA" unicode="&#xea;" 
d="M579 346q0 -41 -16 -68t-49 -43t-83.5 -22t-120.5 -6h-82q16 -81 135 -81q66 0 108.5 9.5t65.5 25.5h7v-44q0 -26 -11.5 -50t-37 -42.5t-66.5 -29.5t-99 -11q-71 0 -125.5 22.5t-91 60.5t-55 89t-18.5 108q0 63 20.5 118t57.5 96t89 65t116 24q54 0 100.5 -15t81 -43
t54.5 -69.5t20 -93.5zM403 367q0 21 -19 39.5t-61 18.5q-50 0 -73 -28t-27 -68h74q34 0 54.5 2.5t32 7.5t15.5 12t4 16zM322 662l-180 -71v28q0 29 5 48.5t16 34t28.5 26t42.5 24.5l89 46l87 -45q25 -13 43 -25t29 -27.5t16.5 -36t5.5 -50.5v-23z" />
    <glyph glyph-name="uni00EB" unicode="&#xeb;" 
d="M579 346q0 -41 -16 -68t-49 -43t-83.5 -22t-120.5 -6h-82q16 -81 135 -81q66 0 108.5 9.5t65.5 25.5h7v-44q0 -26 -11.5 -50t-37 -42.5t-66.5 -29.5t-99 -11q-71 0 -125.5 22.5t-91 60.5t-55 89t-18.5 108q0 63 20.5 118t57.5 96t89 65t116 24q54 0 100.5 -15t81 -43
t54.5 -69.5t20 -93.5zM403 367q0 21 -19 39.5t-61 18.5q-50 0 -73 -28t-27 -68h74q34 0 54.5 2.5t32 7.5t15.5 12t4 16zM517 713q0 -18 -7 -34t-19.5 -28.5t-28.5 -19.5t-34 -7q-36 0 -61 26.5t-25 62.5t25 60t61 24t62.5 -24t26.5 -60zM273 713q0 -18 -7 -34t-19 -28.5
t-28 -19.5t-34 -7t-34 7t-27.5 19.5t-18.5 28.5t-7 34q0 36 25.5 60t61.5 24t62 -24t26 -60z" />
    <glyph glyph-name="uni00EC" unicode="&#xec;" horiz-adv-x="366" 
d="M354 80q0 -25 -8.5 -41.5t-23.5 -27t-35 -15t-42 -4.5q-38 0 -71 10t-57 31.5t-38 55.5t-14 83v361h47q40 0 67.5 -6.5t44.5 -21.5t24 -40.5t7 -62.5v-202q0 -37 18 -50.5t58 -13.5h23v-56zM250 630h-46q-102 0 -150 22q-23 10 -42 34t-19 55q0 25 16.5 42t47.5 17
q34 0 63.5 -14.5t53.5 -39.5q23 -23 43 -51.5t33 -59.5v-5z" />
    <glyph glyph-name="uni00ED" unicode="&#xed;" horiz-adv-x="366" 
d="M354 80q0 -25 -8.5 -41.5t-23.5 -27t-35 -15t-42 -4.5q-38 0 -71 10t-57 31.5t-38 55.5t-14 83v361h47q40 0 67.5 -6.5t44.5 -21.5t24 -40.5t7 -62.5v-202q0 -37 18 -50.5t58 -13.5h23v-56zM81 635q13 31 33 59.5t43 51.5q24 25 53.5 39.5t63.5 14.5q31 0 47.5 -17
t16.5 -42q0 -31 -19 -55t-42 -34q-48 -22 -150 -22h-46v5z" />
    <glyph glyph-name="uni00EE" unicode="&#xee;" horiz-adv-x="366" 
d="M354 80q0 -25 -8.5 -41.5t-23.5 -27t-35 -15t-42 -4.5q-38 0 -71 10t-57 31.5t-38 55.5t-14 83v361h47q40 0 67.5 -6.5t44.5 -21.5t24 -40.5t7 -62.5v-202q0 -37 18 -50.5t58 -13.5h23v-56zM168 663l-180 -71v28q0 29 5 48.5t16 34t28.5 26t42.5 24.5l89 46l87 -45
q25 -13 43 -25t29 -27.5t16.5 -36t5.5 -50.5v-23z" />
    <glyph glyph-name="uni00EF" unicode="&#xef;" horiz-adv-x="366" 
d="M354 80q0 -25 -8.5 -41.5t-23.5 -27t-35 -15t-42 -4.5q-38 0 -71 10t-57 31.5t-38 55.5t-14 83v361h47q40 0 67.5 -6.5t44.5 -21.5t24 -40.5t7 -62.5v-202q0 -37 18 -50.5t58 -13.5h23v-56zM367 714q0 -18 -7 -34t-19.5 -28.5t-28.5 -19.5t-34 -7q-36 0 -61 26.5
t-25 62.5t25 60t61 24t62.5 -24t26.5 -60zM123 714q0 -18 -7 -34t-19 -28.5t-28 -19.5t-34 -7t-34 7t-27.5 19.5t-18.5 28.5t-7 34q0 36 25.5 60t61.5 24t62 -24t26 -60z" />
    <glyph glyph-name="uni00F0" unicode="&#xf0;" horiz-adv-x="664" 
d="M624 279q0 -68 -21.5 -121.5t-61 -91.5t-94.5 -58t-122 -20q-60 0 -112 19.5t-90.5 55t-60.5 85.5t-22 112q0 65 20 118t57 90t90 57t118 20q34 0 59.5 -10.5t49.5 -30.5q-11 39 -38.5 72t-62.5 45l-105 -70q-14 10 -27 20.5t-13 29.5q0 21 10.5 32.5t36.5 27.5
q-48 9 -65 22.5t-17 37.5v50q56 0 104.5 -5.5t102.5 -22.5l96 65q11 -9 26 -21t15 -28q0 -23 -14.5 -37t-31.5 -25q48 -32 81 -73t53.5 -88.5t29.5 -100.5t9 -109v-47zM437 269q0 28 -4.5 54.5t-17 47t-33.5 33t-54 12.5q-28 0 -46.5 -11.5t-30 -30t-16.5 -42t-5 -47.5
q0 -27 4.5 -54t17 -48.5t33.5 -34.5t54 -13q28 0 47 12t30 31t16 43t5 48z" />
    <glyph glyph-name="uni00F1" unicode="&#xf1;" horiz-adv-x="658" 
d="M52 305q0 59 19 107.5t55 82.5t88 52.5t118 18.5q73 0 125 -18.5t85 -53t48.5 -84t15.5 -110.5v-300h-80q-63 0 -86.5 24.5t-23.5 87.5v193q0 57 -20.5 82t-68.5 25q-85 0 -85 -104v-308h-64q-61 0 -93.5 26t-32.5 86v193zM236 791q25 0 47 -7.5t39 -20.5q23 -17 35 -24
t24 -7q17 0 27.5 8t10.5 28v23h20q13 0 26 -5t23.5 -16t17 -27.5t6.5 -39.5q0 -33 -25.5 -60.5t-74.5 -27.5q-31 0 -49.5 7t-37.5 21q-26 19 -37.5 25.5t-24.5 6.5q-14 0 -24.5 -10t-10.5 -29v-21h-22q-27 0 -49 23t-22 58q0 38 26.5 66.5t74.5 28.5z" />
    <glyph glyph-name="uni00F2" unicode="&#xf2;" horiz-adv-x="664" 
d="M40 263q0 68 22.5 124t62 95.5t94.5 61t120 21.5q56 0 107.5 -20.5t91 -58t63 -89.5t23.5 -116q0 -68 -20 -122.5t-58.5 -93t-94 -59.5t-126.5 -21q-59 0 -111 20.5t-90.5 57.5t-61 88t-22.5 112zM436 264q0 75 -29 113t-80 38q-20 0 -37.5 -10t-31.5 -27t-22 -41t-8 -52
q0 -81 29 -116.5t80 -35.5q45 0 72 37t27 94zM380 630h-46q-102 0 -150 22q-23 10 -42 34t-19 55q0 25 16.5 42t47.5 17q34 0 63.5 -14.5t53.5 -39.5q23 -23 43 -51.5t33 -59.5v-5z" />
    <glyph glyph-name="uni00F3" unicode="&#xf3;" horiz-adv-x="664" 
d="M40 263q0 68 22.5 124t62 95.5t94.5 61t120 21.5q56 0 107.5 -20.5t91 -58t63 -89.5t23.5 -116q0 -68 -20 -122.5t-58.5 -93t-94 -59.5t-126.5 -21q-59 0 -111 20.5t-90.5 57.5t-61 88t-22.5 112zM436 264q0 75 -29 113t-80 38q-20 0 -37.5 -10t-31.5 -27t-22 -41t-8 -52
q0 -81 29 -116.5t80 -35.5q45 0 72 37t27 94zM236 635q13 31 33 59.5t43 51.5q24 25 53.5 39.5t63.5 14.5q31 0 47.5 -17t16.5 -42q0 -31 -19 -55t-42 -34q-48 -22 -150 -22h-46v5z" />
    <glyph glyph-name="uni00F4" unicode="&#xf4;" horiz-adv-x="664" 
d="M40 263q0 68 22.5 124t62 95.5t94.5 61t120 21.5q56 0 107.5 -20.5t91 -58t63 -89.5t23.5 -116q0 -68 -20 -122.5t-58.5 -93t-94 -59.5t-126.5 -21q-59 0 -111 20.5t-90.5 57.5t-61 88t-22.5 112zM436 264q0 75 -29 113t-80 38q-20 0 -37.5 -10t-31.5 -27t-22 -41t-8 -52
q0 -81 29 -116.5t80 -35.5q45 0 72 37t27 94zM330 663l-180 -71v28q0 29 5 48.5t16 34t28.5 26t42.5 24.5l89 46l87 -45q25 -13 43 -25t29 -27.5t16.5 -36t5.5 -50.5v-23z" />
    <glyph glyph-name="uni00F5" unicode="&#xf5;" horiz-adv-x="664" 
d="M40 263q0 68 22.5 124t62 95.5t94.5 61t120 21.5q56 0 107.5 -20.5t91 -58t63 -89.5t23.5 -116q0 -68 -20 -122.5t-58.5 -93t-94 -59.5t-126.5 -21q-59 0 -111 20.5t-90.5 57.5t-61 88t-22.5 112zM436 264q0 75 -29 113t-80 38q-20 0 -37.5 -10t-31.5 -27t-22 -41t-8 -52
q0 -81 29 -116.5t80 -35.5q45 0 72 37t27 94zM515 703q0 -33 -25.5 -60.5t-74.5 -27.5q-31 0 -49.5 7t-37.5 21q-26 19 -37.5 25.5t-24.5 6.5q-14 0 -24.5 -10t-10.5 -29v-21h-22q-27 0 -49 23t-22 58q0 38 26.5 66.5t74.5 28.5q25 0 47 -7.5t39 -20.5q23 -17 35 -24t24 -7
q17 0 27.5 8t10.5 28v23h20q13 0 26 -5t23.5 -16t17 -27.5t6.5 -39.5z" />
    <glyph glyph-name="uni00F6" unicode="&#xf6;" horiz-adv-x="664" 
d="M40 263q0 68 22.5 124t62 95.5t94.5 61t120 21.5q56 0 107.5 -20.5t91 -58t63 -89.5t23.5 -116q0 -68 -20 -122.5t-58.5 -93t-94 -59.5t-126.5 -21q-59 0 -111 20.5t-90.5 57.5t-61 88t-22.5 112zM436 264q0 75 -29 113t-80 38q-20 0 -37.5 -10t-31.5 -27t-22 -41t-8 -52
q0 -81 29 -116.5t80 -35.5q45 0 72 37t27 94zM535 712q0 -18 -7 -34t-19.5 -28.5t-28.5 -19.5t-34 -7q-36 0 -61 26.5t-25 62.5t25 60t61 24t62.5 -24t26.5 -60zM291 712q0 -18 -7 -34t-19 -28.5t-28 -19.5t-34 -7t-34 7t-27.5 19.5t-18.5 28.5t-7 34q0 36 25.5 60t61.5 24
t62 -24t26 -60z" />
    <glyph glyph-name="uni00F7" unicode="&#xf7;" horiz-adv-x="230" 
 />
    <glyph glyph-name="uni00F8" unicode="&#xf8;" horiz-adv-x="664" 
d="M615 527q0 -11 -3 -25t-11 -22l-27 -28q23 -34 36.5 -76.5t13.5 -93.5q0 -68 -20 -123t-58.5 -94t-94 -60t-126.5 -21q-91 0 -161 46l-44 -46h-31q-15 0 -26 10.5t-11 30.5q0 14 3 26.5t11 20.5l26 27q-25 34 -38.5 75.5t-13.5 89.5q0 64 22.5 119.5t62.5 96t94.5 63.5
t119.5 23q45 0 86.5 -11t76.5 -34l44 45h31q15 0 26.5 -11t11.5 -28zM385 401q-13 8 -27 13t-31 5q-21 0 -39.5 -10.5t-32 -28.5t-21.5 -42.5t-8 -52.5q0 -25 3 -44zM438 266q0 22 -3 42l-155 -159q25 -18 57 -18q48 0 74.5 36t26.5 99z" />
    <glyph glyph-name="uni00F9" unicode="&#xf9;" horiz-adv-x="660" 
d="M52 550h74q63 0 91 -24.5t28 -87.5v-196q0 -61 25.5 -83.5t64.5 -22.5q34 0 57.5 24t23.5 89v301h74q57 0 87.5 -26t30.5 -86v-196q0 -66 -20 -114.5t-57 -80.5t-89 -47.5t-115 -15.5q-137 0 -206 63.5t-69 199.5v303zM137 741q0 25 16.5 42t47.5 17q33 0 63 -15t55 -39
t44 -53.5t31 -57.5v-5h-46q-28 0 -64.5 2.5t-69 14t-55 33.5t-22.5 61z" />
    <glyph glyph-name="uni00FA" unicode="&#xfa;" horiz-adv-x="660" 
d="M52 550h74q63 0 91 -24.5t28 -87.5v-196q0 -61 25.5 -83.5t64.5 -22.5q34 0 57.5 24t23.5 89v301h74q57 0 87.5 -26t30.5 -86v-196q0 -66 -20 -114.5t-57 -80.5t-89 -47.5t-115 -15.5q-137 0 -206 63.5t-69 199.5v303zM236 635q12 28 31 57.5t44 53.5t55 39t63 15
q31 0 47.5 -17t16.5 -42q0 -39 -22.5 -61t-55 -33.5t-69 -14t-64.5 -2.5h-46v5z" />
    <glyph glyph-name="uni00FB" unicode="&#xfb;" horiz-adv-x="660" 
d="M126 550q63 0 91 -24.5t28 -87.5v-196q0 -61 25.5 -83.5t64.5 -22.5q34 0 57.5 24t23.5 89v301h74q57 0 87.5 -26t30.5 -86v-196q0 -66 -20 -114.5t-57 -80.5t-89 -47.5t-115 -15.5q-137 0 -206 63.5t-69 199.5v303h74zM142 592v28q0 29 5 48.5t16 34t28.5 26t42.5 24.5
l89 46l87 -45q25 -13 43 -25t29 -27.5t16.5 -36t5.5 -50.5v-23l-182 71z" />
    <glyph glyph-name="uni00FC" unicode="&#xfc;" horiz-adv-x="660" 
d="M126 550q63 0 91 -24.5t28 -87.5v-196q0 -61 25.5 -83.5t64.5 -22.5q34 0 57.5 24t23.5 89v301h74q57 0 87.5 -26t30.5 -86v-196q0 -66 -20 -114.5t-57 -80.5t-89 -47.5t-115 -15.5q-137 0 -206 63.5t-69 199.5v303h74zM352 712q0 36 25 60t61 24t62.5 -24t26.5 -60
q0 -18 -7 -34t-19.5 -28.5t-28.5 -19.5t-34 -7q-36 0 -61 26.5t-25 62.5zM195 796q36 0 62 -24t26 -60q0 -18 -7 -34t-19 -28.5t-28 -19.5t-34 -7t-34 7t-27.5 19.5t-18.5 28.5t-7 34q0 36 25.5 60t61.5 24z" />
    <glyph glyph-name="uni00FD" unicode="&#xfd;" horiz-adv-x="583" 
d="M107 550q18 0 35.5 -5.5t32 -15.5t25 -24.5t14.5 -32.5q7 -33 17.5 -68t22 -69.5t23.5 -66t23 -56.5q15 31 30 72.5t28 87.5t23 92t15 86h91q42 0 61.5 -18.5t19.5 -51.5q0 -22 -9 -60.5t-24.5 -85t-36 -96t-43.5 -93.5q-39 -74 -69 -127t-54.5 -89t-45.5 -58t-42 -33.5
t-44.5 -15t-52.5 -3.5q-46 0 -79 24t-33 71v46l82 6q38 3 58 19t35 50q-30 44 -62.5 109.5t-61 137t-49.5 142.5t-29 126h99zM216 635q12 28 31 57.5t44 53.5t55 39t63 15q31 0 47.5 -17t16.5 -42q0 -39 -22.5 -61t-55 -33.5t-69 -14t-64.5 -2.5h-46v5z" />
    <glyph glyph-name="uni00FE" unicode="&#xfe;" horiz-adv-x="678" 
d="M241 263q0 -36 9.5 -61t25 -40.5t36 -22.5t43.5 -7q45 0 69 36t24 99q0 44 -7 73.5t-21 47.5t-35.5 25.5t-50.5 7.5q-35 0 -61.5 -29.5t-31.5 -80.5v-48zM119 740q63 0 93 -30.5t30 -100.5v-59q44 16 114 16q60 0 112 -19.5t89.5 -56t59 -88t21.5 -115.5
q0 -71 -19.5 -127t-54 -95t-82.5 -60t-104 -21q-57 0 -89.5 13.5t-51.5 47.5v-215h-69q-57 0 -86.5 31.5t-29.5 101.5v777h67z" />
    <glyph glyph-name="uni00FF" unicode="&#xff;" horiz-adv-x="583" 
d="M107 550q18 0 35.5 -5.5t32 -15.5t25 -24.5t14.5 -32.5q7 -33 17.5 -68t22 -69.5t23.5 -66t23 -56.5q15 31 30 72.5t28 87.5t23 92t15 86h91q42 0 61.5 -18.5t19.5 -51.5q0 -22 -9 -60.5t-24.5 -85t-36 -96t-43.5 -93.5q-39 -74 -69 -127t-54.5 -89t-45.5 -58t-42 -33.5
t-44.5 -15t-52.5 -3.5q-46 0 -79 24t-33 71v46l82 6q38 3 58 19t35 50q-30 44 -62.5 109.5t-61 137t-49.5 142.5t-29 126h99zM408 798q36 0 62.5 -24t26.5 -60q0 -18 -7 -34t-19.5 -28.5t-28.5 -19.5t-34 -7q-36 0 -61 26.5t-25 62.5t25 60t61 24zM78 714q0 36 25.5 60
t61.5 24t62 -24t26 -60q0 -18 -7 -34t-19 -28.5t-28 -19.5t-34 -7t-34 7t-27.5 19.5t-18.5 28.5t-7 34z" />
    <glyph glyph-name="uni0102" unicode="&#x102;" horiz-adv-x="666" 
d="M330 690q51 0 84 -21.5t50 -50.5q25 -41 55 -110t58.5 -152.5t52 -175.5t35.5 -180h-86q-52 0 -80 17t-37 65q-4 19 -8.5 39t-10.5 42h-238q-6 -19 -11 -40.5t-9.5 -43.5t-8 -42.5t-6.5 -36.5h-77q-46 0 -67 23.5t-21 61.5q0 25 10.5 71t28 103t42 119.5t52 121.5t58 109
t60.5 81h74zM178 911q26 -29 63 -51.5t91 -22.5q26 0 50 7t43.5 18t34.5 24.5t24 26.5v-36q0 -32 -12.5 -58.5t-33.5 -45.5t-48.5 -30t-58.5 -11q-32 0 -59.5 11t-48.5 30.5t-33 47.5t-12 61v29zM404 312q-17 51 -37.5 107.5t-40.5 98.5q-23 -43 -44 -99t-36 -107h158z" />
    <glyph glyph-name="uni0103" unicode="&#x103;" horiz-adv-x="584" 
d="M359 185q0 -38 -19 -52.5t-45 -14.5q-40 0 -57.5 13.5t-17.5 39.5q0 28 23.5 41.5t77.5 13.5h38v-41zM539 327q0 61 -18 106t-50.5 74.5t-79 44t-103.5 14.5q-59 0 -102 -11.5t-71 -31t-41.5 -44t-13.5 -49.5v-67h5q15 13 30.5 24.5t35.5 19t47.5 12t66.5 4.5
q57 0 83.5 -11t26.5 -45v-23h-27q-150 0 -219 -46.5t-69 -137.5q0 -47 22 -80t56 -54t75.5 -31t81.5 -10q75 0 125.5 12t81.5 41.5t44 79t13 124.5v85zM140 804q26 -29 63 -51.5t91 -22.5q26 0 50 7t43.5 18t34.5 24.5t24 26.5v-36q0 -32 -12.5 -58.5t-33.5 -45.5t-48.5 -30
t-58.5 -11q-32 0 -59.5 11t-48.5 30.5t-33 47.5t-12 61v29z" />
    <glyph glyph-name="uni0110" unicode="&#x110;" horiz-adv-x="720" 
d="M-9 289v51q0 24 13.5 40.5t38.5 16.5h17v270q19 7 44.5 13t52.5 10.5t53.5 7t46.5 2.5h72q63 0 126 -20.5t113 -63t81 -107.5t31 -153q0 -79 -24.5 -146t-68.5 -115.5t-105.5 -76t-135.5 -27.5h-68q-47 0 -86.5 9t-69 29.5t-46 52t-16.5 76.5v131h-69zM250 289v-100
q0 -18 10.5 -31.5t29.5 -13.5h31q84 0 126.5 53.5t42.5 143.5q0 51 -13.5 90t-36.5 64.5t-54 38.5t-66 13h-40q-5 0 -13.5 -1t-16.5 -3v-146h105v-53q0 -55 -54 -55h-51z" />
    <glyph glyph-name="uni0111" unicode="&#x111;" horiz-adv-x="679" 
d="M669 650q0 -23 -19.5 -40.5t-50.5 -17.5h-240v41q0 60 80 60h230v-43zM627 288q0 -75 -16 -131.5t-52 -95t-93 -58t-139 -19.5q-61 0 -113.5 23t-91 62t-60.5 90t-22 107q0 69 20 124.5t55 94.5t82.5 60t102.5 21q54 0 90.5 -21t51.5 -53v248h68q57 0 87 -31.5t30 -101.5
v-319zM438 262q0 46 -8.5 76.5t-23.5 48.5t-36.5 25t-46.5 7q-19 0 -36 -9.5t-30 -27.5t-20.5 -43.5t-7.5 -56.5q0 -81 33.5 -116.5t85.5 -35.5q90 0 90 132z" />
    <glyph glyph-name="uni0128" unicode="&#x128;" horiz-adv-x="330" 
d="M158 0q-33 0 -60.5 27.5t-27.5 79.5v583h106q14 0 29 -6t27 -17.5t20 -28t8 -37.5v-601h-102zM358 864q0 -33 -25.5 -60.5t-74.5 -27.5q-31 0 -49.5 7t-37.5 21q-26 19 -37.5 25.5t-24.5 6.5q-14 0 -24.5 -10t-10.5 -29v-21h-22q-27 0 -49 23t-22 58q0 38 26.5 66.5
t74.5 28.5q25 0 47 -7.5t39 -20.5q23 -17 35 -24t24 -7q17 0 27.5 8t10.5 28v23h20q13 0 26 -5t23.5 -16t17 -27.5t6.5 -39.5z" />
    <glyph glyph-name="uni0129" unicode="&#x129;" horiz-adv-x="366" 
d="M354 80q0 -25 -8.5 -41.5t-23.5 -27t-35 -15t-42 -4.5q-38 0 -71 10t-57 31.5t-38 55.5t-14 83v361h47q40 0 67.5 -6.5t44.5 -21.5t24 -40.5t7 -62.5v-202q0 -37 18 -50.5t58 -13.5h23v-56zM376 719q0 -33 -25.5 -60.5t-74.5 -27.5q-31 0 -49.5 7t-37.5 21
q-26 19 -37.5 25.5t-24.5 6.5q-14 0 -24.5 -10t-10.5 -29v-21h-22q-27 0 -49 23t-22 58q0 38 26.5 66.5t74.5 28.5q25 0 47 -7.5t39 -20.5q23 -17 35 -24t24 -7q17 0 27.5 8t10.5 28v23h20q13 0 26 -5t23.5 -16t17 -27.5t6.5 -39.5z" />
    <glyph glyph-name="uni0131" unicode="&#x131;" horiz-adv-x="366" 
d="M354 80q0 -25 -8.5 -41.5t-23.5 -27t-35 -15t-42 -4.5q-38 0 -71 10t-57 31.5t-38 55.5t-14 83v361h47q40 0 67.5 -6.5t44.5 -21.5t24 -40.5t7 -62.5v-202q0 -37 18 -50.5t58 -13.5h23v-56z" />
    <glyph glyph-name="uni0141" unicode="&#x141;" horiz-adv-x="556" 
d="M-9 263q0 31 13 55t56 41l10 4v327h80q110 0 110 -117v-128l122 53v-57q0 -35 -15 -56.5t-57 -40.5l-50 -22v-55q0 -34 5 -56.5t17.5 -36t34 -19t53.5 -5.5h30q42 0 83.5 5.5t62.5 15.5h5v-65q0 -54 -34.5 -84t-116.5 -30h-80q-129 0 -187.5 61t-62.5 186l-79 -34v58z
" />
    <glyph glyph-name="uni0142" unicode="&#x142;" horiz-adv-x="381" 
d="M57 371v369h67q63 0 93 -30.5t30 -100.5v-156l105 45v-57q0 -35 -15.5 -56.5t-56.5 -40.5l-33 -15v-119q0 -37 20 -50.5t60 -13.5h42v-66q0 -25 -11 -42t-28.5 -27t-40 -14.5t-44.5 -4.5q-38 0 -72 11.5t-60 35t-41 59t-15 84.5v64l-96 -41v58q0 31 13.5 54t55.5 42z" />
    <glyph glyph-name="uni0152" unicode="&#x152;" horiz-adv-x="1027" 
d="M997 90q0 -49 -40.5 -74t-135.5 -25h-47q-84 0 -134 19t-76 68q-37 -48 -86 -71t-118 -23q-66 0 -124.5 24t-102 69t-68.5 110t-25 147q0 80 21.5 148t64 117.5t106 77.5t147.5 28q21 0 45.5 -4.5t48 -14t45 -23t36.5 -31.5q9 21 29.5 39.5t46.5 18.5h363v-62
q0 -40 -30 -65.5t-84 -25.5h-200q-5 -24 -8 -56.5t-3 -58.5h253v-64q0 -45 -29 -64.5t-77 -19.5h-148v-30q0 -27 5.5 -46t19.5 -31.5t38.5 -18t62.5 -5.5h28q54 0 97.5 6t78.5 14v-73zM368 550q-32 0 -57.5 -15.5t-43.5 -41.5t-27.5 -62t-9.5 -76q0 -58 12.5 -99t34 -67.5
t49.5 -38.5t59 -12q20 0 39 7t34 28t24 60t9 103q0 71 -8 113.5t-24 65t-38.5 29t-52.5 6.5z" />
    <glyph glyph-name="uni0153" unicode="&#x153;" horiz-adv-x="1002" 
d="M966 346q0 -41 -16 -67.5t-49 -42.5t-83.5 -22t-120.5 -6h-82q8 -37 38 -58.5t81 -21.5q66 0 115.5 8.5t74.5 25.5h7v-43q0 -26 -11.5 -50t-37 -43t-66.5 -30t-99 -11q-63 0 -116 20.5t-88 55.5q-28 -35 -76 -55.5t-112 -20.5q-59 0 -111 21t-90.5 58.5t-61 88.5
t-22.5 112q0 63 22.5 118t62.5 95.5t94.5 64t119.5 23.5q55 0 109 -20t89 -60q31 36 78.5 58t104.5 22q50 0 95 -15t78.5 -43t53 -69t19.5 -93zM790 367q0 21 -19 39t-61 18q-50 0 -73 -27.5t-27 -67.5h74q34 0 54.5 2.5t32 7.5t15.5 12t4 16zM436 266q0 42 -8.5 70.5
t-23 46.5t-34.5 25.5t-43 7.5q-21 0 -39 -10.5t-31.5 -28.5t-21 -41.5t-7.5 -49.5q0 -81 30.5 -116t78.5 -35t73.5 35t25.5 96z" />
    <glyph glyph-name="uni0160" unicode="&#x160;" horiz-adv-x="616" 
d="M578 219q0 -54 -19.5 -97t-56 -74t-90.5 -47.5t-123 -16.5q-115 0 -174.5 41t-59.5 116v68h5q16 -17 40 -30t52.5 -22t59 -13.5t60.5 -4.5q66 0 91 16t25 51q0 16 -7.5 27t-24.5 19.5t-44.5 15.5t-66.5 15q-112 22 -160 67t-48 123q0 46 20 88t57.5 74.5t90.5 51.5
t119 19q64 0 108.5 -13t72.5 -34t41 -47.5t13 -53.5v-73h-5q-17 17 -40.5 29.5t-50 20.5t-55 12t-55.5 4q-71 0 -98.5 -17.5t-27.5 -46.5q0 -12 4 -21t18.5 -17.5t42.5 -17t76 -18.5q109 -23 159.5 -68t50.5 -126zM319 879l180 71v-28q0 -29 -5 -48.5t-16 -34t-28.5 -26
t-42.5 -24.5l-89 -46l-87 45q-26 13 -43.5 25t-29 27.5t-16.5 36t-5 50.5v23z" />
    <glyph glyph-name="uni0161" unicode="&#x161;" horiz-adv-x="540" 
d="M500 177q0 -91 -64 -142t-179 -51q-56 0 -95 10t-63 27.5t-35 42.5t-11 55v55h5q27 -20 68 -34t101 -14q52 0 71.5 11.5t19.5 31.5q0 9 -4 15.5t-17 12.5t-38 11.5t-68 11.5q-75 11 -113 46t-38 101q0 49 21.5 86.5t56.5 62.5t80.5 37.5t92.5 12.5q94 0 145 -34t51 -97
v-57h-5q-28 20 -70 33t-99 13q-54 0 -74 -12.5t-20 -29.5q0 -8 3.5 -13.5t16.5 -10.5t38 -10.5t69 -12.5q69 -11 111.5 -49.5t42.5 -108.5zM286 741l180 71v-28q0 -29 -5 -48.5t-16 -34t-28.5 -26t-42.5 -24.5l-89 -46l-87 45q-26 13 -43.5 25t-29 27.5t-16.5 36t-5 50.5v23
z" />
    <glyph glyph-name="uni0168" unicode="&#x168;" horiz-adv-x="742" 
d="M60 690h81q46 0 77.5 -30t31.5 -101v-264q0 -87 32 -121t98 -34q57 0 84.5 36t27.5 114v400h81q54 0 81.5 -29t27.5 -98v-268q0 -65 -20 -122t-60 -99t-100 -66t-140 -24q-66 0 -121.5 21.5t-95.5 61t-62.5 96t-22.5 126.5v401zM547 863q0 -33 -25.5 -60.5t-74.5 -27.5
q-31 0 -49.5 7t-37.5 21q-26 19 -37.5 25.5t-24.5 6.5q-14 0 -24.5 -10t-10.5 -29v-21h-22q-27 0 -49 23t-22 58q0 38 26.5 66.5t74.5 28.5q25 0 47 -7.5t39 -20.5q23 -17 35 -24t24 -7q17 0 27.5 8t10.5 28v23h20q13 0 26 -5t23.5 -16t17 -27.5t6.5 -39.5z" />
    <glyph glyph-name="uni0169" unicode="&#x169;" horiz-adv-x="660" 
d="M52 550h74q63 0 91 -24.5t28 -87.5v-196q0 -61 25.5 -83.5t64.5 -22.5q34 0 57.5 24t23.5 89v301h74q57 0 87.5 -26t30.5 -86v-196q0 -66 -20 -114.5t-57 -80.5t-89 -47.5t-115 -15.5q-137 0 -206 63.5t-69 199.5v303zM518 718q0 -33 -25.5 -60.5t-74.5 -27.5
q-31 0 -49.5 7t-37.5 21q-26 19 -37.5 25.5t-24.5 6.5q-14 0 -24.5 -10t-10.5 -29v-21h-22q-27 0 -49 23t-22 58q0 38 26.5 66.5t74.5 28.5q25 0 47 -7.5t39 -20.5q23 -17 35 -24t24 -7q17 0 27.5 8t10.5 28v23h20q13 0 26 -5t23.5 -16t17 -27.5t6.5 -39.5z" />
    <glyph glyph-name="uni0178" unicode="&#x178;" horiz-adv-x="634" 
d="M101 690q48 0 76 -18.5t38 -40.5q22 -48 52 -100t59 -94q16 23 34 52t35.5 61.5t33.5 68t28 71.5h90q33 0 52.5 -19t19.5 -42q0 -14 -11 -40t-28.5 -57.5t-40 -66.5t-45.5 -68.5t-44.5 -61.5t-37.5 -46v-289h-83q-20 0 -39 6.5t-34 20t-24.5 33.5t-9.5 46v184
q-30 37 -61 83t-59.5 97.5t-53.5 107t-43 112.5h96zM342 829q0 36 25 60t61 24t62.5 -24t26.5 -60q0 -18 -7 -34t-19.5 -28.5t-28.5 -19.5t-34 -7q-36 0 -61 26.5t-25 62.5zM98 829q0 36 25.5 60t61.5 24t62 -24t26 -60q0 -18 -7 -34t-19 -28.5t-28 -19.5t-34 -7t-34 7
t-27.5 19.5t-18.5 28.5t-7 34z" />
    <glyph glyph-name="uni017D" unicode="&#x17d;" horiz-adv-x="641" 
d="M605 91q0 -19 -7.5 -35.5t-21 -29t-32 -19.5t-39.5 -7h-380q-12 0 -27.5 6t-29 18t-23 29t-9.5 40q0 19 4 37.5t15 40t32 48.5t54 63l161 177q20 22 31.5 39.5t18.5 29.5h-314v57q0 49 30.5 77t93.5 28h315q52 0 84 -25t32 -70q0 -20 -2.5 -38t-10 -37t-21.5 -40t-36 -46
l-160 -183q-25 -28 -44.5 -49.5t-33.5 -42.5h320v-68zM312 878l180 71v-28q0 -29 -5 -48.5t-16 -34t-28.5 -26t-42.5 -24.5l-89 -46l-87 45q-26 13 -43.5 25t-29 27.5t-16.5 36t-5 50.5v23z" />
    <glyph glyph-name="uni017E" unicode="&#x17e;" horiz-adv-x="558" 
d="M528 77q0 -30 -26.5 -53.5t-65.5 -23.5h-294q-21 0 -41 5t-35.5 16t-25 28.5t-9.5 43.5q0 25 15.5 55t51.5 65l164 160q6 6 15 17.5t12 18.5h-259v53q0 22 9.5 38.5t24 27.5t32.5 16.5t35 5.5h278q49 0 79.5 -26.5t30.5 -74.5q0 -29 -23 -64.5t-59 -70.5l-136 -132
q-5 -5 -13 -16t-13 -21h253v-68zM266 741l180 71v-28q0 -29 -5 -48.5t-16 -34t-28.5 -26t-42.5 -24.5l-89 -46l-87 45q-26 13 -43.5 25t-29 27.5t-16.5 36t-5 50.5v23z" />
    <glyph glyph-name="uni0192" unicode="&#x192;" 
d="M28 45q33 -18 90 -18q32 0 48.5 19t23.5 72l24 184h-129v48q0 16 8 29.5t21 23.5t29 15t32 5h56l6 45q6 48 23 89.5t46 72t70.5 48t96.5 17.5q54 0 83.5 -24t29.5 -58v-68q-22 12 -49 16t-43 4q-38 0 -55.5 -26t-24.5 -74l-6 -41h150v-50q0 -29 -27 -50.5t-81 -21.5h-57
l-30 -202q-8 -55 -23 -94.5t-40 -64.5t-60.5 -37t-84.5 -12q-63 0 -95 24.5t-32 56.5v72z" />
    <glyph glyph-name="uni01A0" unicode="&#x1a0;" horiz-adv-x="764" 
d="M763 696q6 -26 0.5 -48t-18 -41t-30.5 -34.5t-36 -27.5q23 -38 35.5 -85.5t12.5 -104.5q0 -86 -23.5 -155t-69 -117t-111 -73.5t-149.5 -25.5q-71 0 -132 24.5t-105.5 70.5t-70 111.5t-25.5 146.5q0 84 24 152.5t69.5 117.5t111.5 75.5t150 26.5q51 0 100.5 -17t91.5 -47
q13 6 23 13.5t11 18.5q2 37 22 55.5t46 18.5q24 0 43 -12.5t29 -38.5zM391 137q66 0 105 52.5t39 149.5q0 113 -40.5 162.5t-118.5 49.5q-72 0 -109.5 -54t-37.5 -142q0 -109 42 -163.5t120 -54.5z" />
    <glyph glyph-name="uni01A1" unicode="&#x1a1;" horiz-adv-x="664" 
d="M649 567q7 -23 4 -42.5t-13 -36.5t-25 -31.5t-31 -26.5q18 -31 29.5 -68.5t11.5 -79.5q0 -68 -20 -123t-58.5 -93.5t-94.5 -59.5t-127 -21q-60 0 -112 20.5t-91 57.5t-61 88t-22 113q0 68 22.5 123.5t62 95.5t94.5 61.5t121 21.5q40 0 79 -11t72 -32q8 6 13.5 12.5
t6.5 14.5q2 36 23 54t45 18q23 0 42.5 -13t28.5 -42zM337 132q45 0 72 37.5t27 95.5q0 75 -30 113.5t-79 38.5q-20 0 -38 -10t-32 -27.5t-22 -41.5t-8 -52q0 -81 29.5 -117.5t80.5 -36.5z" />
    <glyph glyph-name="uni01AF" unicode="&#x1af;" horiz-adv-x="817" 
d="M60 689h82q45 0 76.5 -30t31.5 -102v-261q0 -45 8 -75t24.5 -48t41.5 -26t58 -8q55 0 84 36t29 114v400h80q30 0 52.5 -8.5t36.5 -30.5q22 8 23 26q2 36 23.5 55.5t45.5 19.5q32 -1 49 -17t25 -39q9 -27 3.5 -50.5t-20 -42.5t-34.5 -34t-39.5 -25.5t-35 -17.5t-21.5 -10
v-219q0 -66 -20 -123t-60 -99t-100 -66t-140 -24q-68 0 -123.5 21.5t-95.5 61t-62 96t-22 126.5v400z" />
    <glyph glyph-name="uni01B0" unicode="&#x1b0;" horiz-adv-x="660" 
d="M51 550h74q64 0 91.5 -24t27.5 -88v-195q0 -31 7 -51t19 -32t28.5 -17t36.5 -5q16 0 31 5.5t25.5 18t17 34t6.5 54.5v300h75q29 0 50 -6t36 -20q7 5 11.5 11.5t4.5 13.5q2 36 23 54t46 18q23 0 41.5 -13t28.5 -42q11 -33 -0.5 -61t-33 -49.5t-47 -36.5t-42.5 -23v-153
q0 -67 -20 -115.5t-57 -80.5t-89 -47.5t-115 -15.5q-136 0 -206 64t-70 200v302z" />
    <glyph glyph-name="uni02C6" unicode="&#x2c6;" horiz-adv-x="606" 
d="M302 663l-180 -71v28q0 29 5 48.5t16 34t28.5 26t42.5 24.5l89 46l87 -45q25 -13 43 -25t29 -27.5t16.5 -36t5.5 -50.5v-23z" />
    <glyph glyph-name="uni02C7" unicode="&#x2c7;" horiz-adv-x="610" 
d="M306 741l180 71v-28q0 -29 -5 -48.5t-16 -34t-28.5 -26t-42.5 -24.5l-89 -46l-87 45q-26 13 -43.5 25t-29 27.5t-16.5 36t-5 50.5v23z" />
    <glyph glyph-name="uni02D8" unicode="&#x2d8;" horiz-adv-x="508" 
d="M87 763q26 -29 63 -51.5t91 -22.5q26 0 50 7t43.5 18t34.5 24.5t24 26.5v-36q0 -32 -12.5 -58.5t-33.5 -45.5t-48.5 -30t-58.5 -11q-32 0 -59.5 11t-48.5 30.5t-33 47.5t-12 61v29z" />
    <glyph glyph-name="uni02D9" unicode="&#x2d9;" horiz-adv-x="417" 
d="M106 717q0 21 8 40t22 32.5t33 21.5t40 8q43 0 72.5 -29.5t29.5 -72.5q0 -21 -8 -40t-21.5 -33t-32.5 -22t-40 -8t-40 8t-33 22t-22 33t-8 40z" />
    <glyph glyph-name="uni02DA" unicode="&#x2da;" horiz-adv-x="400" 
d="M351 726q0 -28 -10.5 -51t-29.5 -39.5t-45.5 -25.5t-57.5 -9q-32 0 -59 9t-46.5 25.5t-30.5 39.5t-11 50q0 32 12 56t32.5 39.5t47.5 23.5t56 8q67 0 104.5 -34.5t37.5 -91.5zM255 726q0 17 -11 32t-37 15q-22 0 -34.5 -13t-12.5 -35q0 -14 11 -29.5t35 -15.5
q26 0 37.5 14.5t11.5 31.5z" />
    <glyph glyph-name="uni02DB" unicode="&#x2db;" horiz-adv-x="480" 
d="M253 -215q-51 0 -82.5 24t-31.5 69q0 21 8 39.5t21.5 34t30.5 28t35 20.5h85l-50 -45q-12 -11 -19.5 -18.5t-11.5 -14.5t-5.5 -14.5t-1.5 -18.5t8.5 -19t28.5 -8q12 0 28.5 5t53.5 28v-48q0 -18 -8.5 -29.5t-22 -19t-31 -10.5t-35.5 -3z" />
    <glyph glyph-name="uni02DC" unicode="&#x2dc;" horiz-adv-x="553" 
d="M465 703q0 -33 -25.5 -60.5t-74.5 -27.5q-31 0 -49.5 7t-37.5 21q-26 19 -37.5 25.5t-24.5 6.5q-14 0 -24.5 -10t-10.5 -29v-21h-22q-27 0 -49 23t-22 58q0 38 26.5 66.5t74.5 28.5q25 0 47 -7.5t39 -20.5q23 -17 35 -24t24 -7q17 0 27.5 8t10.5 28v23h20q13 0 26 -5
t23.5 -16t17 -27.5t6.5 -39.5z" />
    <glyph glyph-name="uni02DD" unicode="&#x2dd;" horiz-adv-x="372" 
d="M326 664q-10 -7 -25 -14.5t-31.5 -14.5t-31.5 -12t-25 -6l-29 -4v11q6 20 22 46.5t30 46.5q16 22 39 41t50 19q26 0 39 -9.5t13 -32.5q0 -21 -17 -40.5t-34 -30.5zM153 664q-10 -7 -25 -14.5t-31.5 -14.5t-31.5 -12t-25 -6l-29 -4v11q6 20 22 46.5t30 46.5q16 22 39 41
t50 19q26 0 39 -9.5t13 -32.5q0 -21 -17 -40.5t-34 -30.5z" />
    <glyph glyph-name="uni1EA0" unicode="&#x1ea0;" horiz-adv-x="670" 
d="M330 690q51 0 84 -21.5t50 -50.5q25 -41 55 -110t58.5 -152.5t52 -175.5t35.5 -180h-86q-52 0 -80 17t-37 65q-4 19 -8.5 39t-10.5 42h-238q-6 -19 -11 -40.5t-9.5 -43.5t-8 -42.5t-6.5 -36.5h-77q-46 0 -67 23.5t-21 61.5q0 25 10.5 71t28 103t42 119.5t52 121.5t58 109
t60.5 81h74zM336 -49q35 0 60 -25t25 -61q0 -35 -25 -60t-60 -25q-36 0 -61 25t-25 60q0 36 25 61t61 25zM404 312q-17 51 -37.5 107.5t-40.5 98.5q-23 -43 -44 -99t-36 -107h158z" />
    <glyph glyph-name="uni1EA1" unicode="&#x1ea1;" horiz-adv-x="584" 
d="M211 -135q0 36 25 61t61 25q35 0 60 -25t25 -61q0 -35 -25 -60t-60 -25q-36 0 -61 25t-25 60zM539 242q0 -75 -13 -124.5t-44 -79t-81.5 -41.5t-125.5 -12q-40 0 -81.5 10t-75.5 31t-56 54t-22 80q0 91 69 137.5t219 46.5h27v23q0 34 -26.5 45t-83.5 11q-39 0 -66.5 -4.5
t-47.5 -12t-35.5 -19t-30.5 -24.5h-5v67q0 25 13.5 49.5t41.5 44t71 31t102 11.5q57 0 103.5 -14.5t79 -44t50.5 -74.5t18 -106v-85zM359 226h-38q-54 0 -77.5 -13.5t-23.5 -41.5q0 -26 17.5 -39.5t57.5 -13.5q26 0 45 14.5t19 52.5v41z" />
    <glyph glyph-name="uni1EA2" unicode="&#x1ea2;" horiz-adv-x="670" 
d="M5 85q0 25 10.5 71t28 103t42 119.5t52 121.5t58 109t60.5 81h74q51 0 84 -21.5t50 -50.5q25 -41 55 -110t58.5 -152.5t52 -175.5t35.5 -180h-86q-52 0 -80 17t-37 65q-4 19 -8.5 39t-10.5 42h-238q-6 -19 -11 -40.5t-9.5 -43.5t-8 -42.5t-6.5 -36.5h-77q-46 0 -67 23.5
t-21 61.5zM241 935q-1 5 -1.5 9t-0.5 8q0 13 6.5 26.5t19 25t30.5 18.5t41 7q26 0 48 -9t38 -24t25 -34t9 -40q0 -23 -12.5 -42t-29.5 -30q-5 -5 -11.5 -9.5t-11.5 -9.5l-12 -11q-7 -6 -9.5 -13.5t-2.5 -14.5q-1 -3 -0.5 -7t1.5 -9h-51q-26 0 -34.5 13t-10.5 26
q-2 14 5.5 25.5t18.5 19.5q20 15 35.5 27.5t13.5 26.5q-2 17 -13.5 23.5t-26.5 6.5q-21 -2 -33.5 -11t-13.5 -23q-8 5 -11.5 11.5t-5.5 13.5zM404 312q-17 51 -37.5 107.5t-40.5 98.5q-23 -43 -44 -99t-36 -107h158z" />
    <glyph glyph-name="uni1EA3" unicode="&#x1ea3;" horiz-adv-x="584" 
d="M359 185q0 -38 -19 -52.5t-45 -14.5q-40 0 -57.5 13.5t-17.5 39.5q0 28 23.5 41.5t77.5 13.5h38v-41zM539 327q0 61 -18 106t-50.5 74.5t-79 44t-103.5 14.5q-59 0 -102 -11.5t-71 -31t-41.5 -44t-13.5 -49.5v-67h5q15 13 30.5 24.5t35.5 19t47.5 12t66.5 4.5
q57 0 83.5 -11t26.5 -45v-23h-27q-150 0 -219 -46.5t-69 -137.5q0 -47 22 -80t56 -54t75.5 -31t81.5 -10q75 0 125.5 12t81.5 41.5t44 79t13 124.5v85zM289 627q-26 0 -35 13t-11 27q-2 13 5.5 24t18.5 20q19 15 35 27.5t14 26.5q-2 19 -15.5 25.5t-22.5 6.5q-47 -5 -49 -34
q-7 4 -10.5 10.5t-5.5 13.5q-1 5 -1.5 9t-0.5 8q0 13 6.5 27t19 24.5t30 17.5t40.5 7q25 0 47.5 -8.5t39 -23t26 -34t9.5 -41.5t-13 -41.5t-30 -30.5q-5 -4 -11 -8.5t-12 -10.5l-11 -12q-7 -6 -9.5 -13t-3.5 -14q-2 -8 0 -16h-50z" />
    <glyph glyph-name="uni1EA4" unicode="&#x1ea4;" horiz-adv-x="670" 
d="M5 85q0 25 10.5 71t28 103t42 119.5t52 121.5t58 109t60.5 81h74q51 0 84 -21.5t50 -50.5q25 -41 55 -110t58.5 -152.5t52 -175.5t35.5 -180h-86q-52 0 -80 17t-37 65q-4 19 -8.5 39t-10.5 42h-238q-6 -19 -11 -40.5t-9.5 -43.5t-8 -42.5t-6.5 -36.5h-77q-46 0 -67 23.5
t-21 61.5zM136 716v28q0 29 5 48.5t16 34t28.5 26t42.5 24.5l89 46l87 -45q25 -13 43 -25t29 -27.5t16.5 -36t5.5 -50.5v-23l-182 71zM404 312q-17 51 -37.5 107.5t-40.5 98.5q-23 -43 -44 -99t-36 -107h158zM344 957q13 31 33 59.5t43 51.5q24 25 53.5 39.5t63.5 14.5
q31 0 47.5 -17t16.5 -42q0 -31 -19 -55t-42 -34q-48 -22 -150 -22h-46v5z" />
    <glyph glyph-name="uni1EA5" unicode="&#x1ea5;" horiz-adv-x="584" 
d="M539 242q0 -75 -13 -124.5t-44 -79t-81.5 -41.5t-125.5 -12q-40 0 -81.5 10t-75.5 31t-56 54t-22 80q0 91 69 137.5t219 46.5h27v23q0 34 -26.5 45t-83.5 11q-39 0 -66.5 -4.5t-47.5 -12t-35.5 -19t-30.5 -24.5h-5v67q0 25 13.5 49.5t41.5 44t71 31t102 11.5
q57 0 103.5 -14.5t79 -44t50.5 -74.5t18 -106v-85zM359 226h-38q-54 0 -77.5 -13.5t-23.5 -41.5q0 -26 17.5 -39.5t57.5 -13.5q26 0 45 14.5t19 52.5v41zM292 663l-180 -71v28q0 29 5 48.5t16 34t28.5 26t42.5 24.5l89 46l87 -45q25 -13 43 -25t29 -27.5t16.5 -36t5.5 -50.5
v-23zM309 829q13 31 33 59.5t43 51.5q24 25 53.5 39.5t63.5 14.5q31 0 47.5 -17t16.5 -42q0 -31 -19 -55t-42 -34q-48 -22 -150 -22h-46v5z" />
    <glyph glyph-name="uni1EA6" unicode="&#x1ea6;" horiz-adv-x="670" 
d="M5 85q0 25 10.5 71t28 103t42 119.5t52 121.5t58 109t60.5 81h74q51 0 84 -21.5t50 -50.5q25 -41 55 -110t58.5 -152.5t52 -175.5t35.5 -180h-86q-52 0 -80 17t-37 65q-4 19 -8.5 39t-10.5 42h-238q-6 -19 -11 -40.5t-9.5 -43.5t-8 -42.5t-6.5 -36.5h-77q-46 0 -67 23.5
t-21 61.5zM136 716v28q0 29 5 48.5t16 34t28.5 26t42.5 24.5l89 46l87 -45q25 -13 43 -25t29 -27.5t16.5 -36t5.5 -50.5v-23l-182 71zM404 312q-17 51 -37.5 107.5t-40.5 98.5q-23 -43 -44 -99t-36 -107h158zM572 952h-46q-102 0 -150 22q-23 10 -42 34t-19 55q0 25 16.5 42
t47.5 17q34 0 63.5 -14.5t53.5 -39.5q23 -23 43 -51.5t33 -59.5v-5z" />
    <glyph glyph-name="uni1EA7" unicode="&#x1ea7;" horiz-adv-x="584" 
d="M539 242q0 -75 -13 -124.5t-44 -79t-81.5 -41.5t-125.5 -12q-40 0 -81.5 10t-75.5 31t-56 54t-22 80q0 91 69 137.5t219 46.5h27v23q0 34 -26.5 45t-83.5 11q-39 0 -66.5 -4.5t-47.5 -12t-35.5 -19t-30.5 -24.5h-5v67q0 25 13.5 49.5t41.5 44t71 31t102 11.5
q57 0 103.5 -14.5t79 -44t50.5 -74.5t18 -106v-85zM359 226h-38q-54 0 -77.5 -13.5t-23.5 -41.5q0 -26 17.5 -39.5t57.5 -13.5q26 0 45 14.5t19 52.5v41zM292 663l-180 -71v28q0 29 5 48.5t16 34t28.5 26t42.5 24.5l89 46l87 -45q25 -13 43 -25t29 -27.5t16.5 -36t5.5 -50.5
v-23zM549 824h-46q-102 0 -150 22q-23 10 -42 34t-19 55q0 25 16.5 42t47.5 17q34 0 63.5 -14.5t53.5 -39.5q23 -23 43 -51.5t33 -59.5v-5z" />
    <glyph glyph-name="uni1EA8" unicode="&#x1ea8;" horiz-adv-x="670" 
d="M330 690q51 0 84 -21.5t50 -50.5q25 -41 55 -110t58.5 -152.5t52 -175.5t35.5 -180h-86q-52 0 -80 17t-37 65q-4 19 -8.5 39t-10.5 42h-238q-6 -19 -11 -40.5t-9.5 -43.5t-8 -42.5t-6.5 -36.5h-77q-46 0 -67 23.5t-21 61.5q0 25 10.5 71t28 103t42 119.5t52 121.5t58 109
t60.5 81h74zM136 716v28q0 29 5 48.5t16 34t28.5 26t42.5 24.5l89 46l87 -45q25 -13 43 -25t29 -27.5t16.5 -36t5.5 -50.5v-23l-182 71zM376 1065q-1 5 -1.5 9t-0.5 8q0 13 6.5 26.5t19 25t30.5 18.5t41 7q26 0 48 -9t38 -24t25 -34t9 -40q0 -23 -12.5 -42t-29.5 -30
q-5 -5 -11.5 -9.5t-11.5 -9.5l-12 -11q-7 -6 -9.5 -13.5t-2.5 -14.5q-1 -3 -0.5 -7t1.5 -9h-51q-26 0 -34.5 13t-10.5 26q-2 14 5.5 25.5t18.5 19.5q20 15 35.5 27.5t13.5 26.5q-2 17 -13.5 23.5t-26.5 6.5q-21 -2 -33.5 -11t-13.5 -23q-8 5 -11.5 11.5t-5.5 13.5zM404 312
q-17 51 -37.5 107.5t-40.5 98.5q-23 -43 -44 -99t-36 -107h158z" />
    <glyph glyph-name="uni1EA9" unicode="&#x1ea9;" horiz-adv-x="584" 
d="M474 592v23q0 30 -5.5 50.5t-16.5 36t-29 27.5t-43 25l-87 45l-89 -46q-25 -13 -42.5 -24.5t-28.5 -26t-16 -34t-5 -48.5v-28l180 71zM359 185q0 -38 -19 -52.5t-45 -14.5q-40 0 -57.5 13.5t-17.5 39.5q0 28 23.5 41.5t77.5 13.5h38v-41zM539 327q0 61 -18 106
t-50.5 74.5t-79 44t-103.5 14.5q-59 0 -102 -11.5t-71 -31t-41.5 -44t-13.5 -49.5v-67h5q15 13 30.5 24.5t35.5 19t47.5 12t66.5 4.5q57 0 83.5 -11t26.5 -45v-23h-27q-150 0 -219 -46.5t-69 -137.5q0 -47 22 -80t56 -54t75.5 -31t81.5 -10q75 0 125.5 12t81.5 41.5t44 79
t13 124.5v85zM418 799q-26 0 -35 13t-11 27q-2 13 5.5 24t18.5 20q19 15 35 27.5t14 26.5q-2 19 -15.5 25.5t-22.5 6.5q-47 -5 -49 -34q-7 4 -10.5 10.5t-5.5 13.5q-1 5 -1.5 9t-0.5 8q0 13 6.5 27t19 24.5t30 17.5t40.5 7q25 0 47.5 -8.5t39 -23t26 -34t9.5 -41.5
t-13 -41.5t-30 -30.5q-5 -4 -11 -8.5t-12 -10.5l-11 -12q-7 -6 -9.5 -13t-3.5 -14q-2 -8 0 -16h-50z" />
    <glyph glyph-name="uni1EAA" unicode="&#x1eaa;" horiz-adv-x="670" 
d="M5 85q0 25 10.5 71t28 103t42 119.5t52 121.5t58 109t60.5 81h74q51 0 84 -21.5t50 -50.5q25 -41 55 -110t58.5 -152.5t52 -175.5t35.5 -180h-86q-52 0 -80 17t-37 65q-4 19 -8.5 39t-10.5 42h-238q-6 -19 -11 -40.5t-9.5 -43.5t-8 -42.5t-6.5 -36.5h-77q-46 0 -67 23.5
t-21 61.5zM136 716v28q0 29 5 48.5t16 34t28.5 26t42.5 24.5l89 46l87 -45q25 -13 43 -25t29 -27.5t16.5 -36t5.5 -50.5v-23l-182 71zM404 312q-17 51 -37.5 107.5t-40.5 98.5q-23 -43 -44 -99t-36 -107h158zM536 1039q0 -33 -25.5 -60.5t-74.5 -27.5q-31 0 -49.5 7
t-37.5 21q-26 19 -37.5 25.5t-24.5 6.5q-14 0 -24.5 -10t-10.5 -29v-21h-22q-27 0 -49 23t-22 58q0 38 26.5 66.5t74.5 28.5q25 0 47 -7.5t39 -20.5q23 -17 35 -24t24 -7q17 0 27.5 8t10.5 28v23h20q13 0 26 -5t23.5 -16t17 -27.5t6.5 -39.5z" />
    <glyph glyph-name="uni1EAB" unicode="&#x1eab;" horiz-adv-x="584" 
d="M539 242q0 -75 -13 -124.5t-44 -79t-81.5 -41.5t-125.5 -12q-40 0 -81.5 10t-75.5 31t-56 54t-22 80q0 91 69 137.5t219 46.5h27v23q0 34 -26.5 45t-83.5 11q-39 0 -66.5 -4.5t-47.5 -12t-35.5 -19t-30.5 -24.5h-5v67q0 25 13.5 49.5t41.5 44t71 31t102 11.5
q57 0 103.5 -14.5t79 -44t50.5 -74.5t18 -106v-85zM359 226h-38q-54 0 -77.5 -13.5t-23.5 -41.5q0 -26 17.5 -39.5t57.5 -13.5q26 0 45 14.5t19 52.5v41zM292 663l-180 -71v28q0 29 5 48.5t16 34t28.5 26t42.5 24.5l89 46l87 -45q25 -13 43 -25t29 -27.5t16.5 -36t5.5 -50.5
v-23zM485 911q0 -33 -25.5 -60.5t-74.5 -27.5q-31 0 -49.5 7t-37.5 21q-26 19 -37.5 25.5t-24.5 6.5q-14 0 -24.5 -10t-10.5 -29v-21h-22q-27 0 -49 23t-22 58q0 38 26.5 66.5t74.5 28.5q25 0 47 -7.5t39 -20.5q23 -17 35 -24t24 -7q17 0 27.5 8t10.5 28v23h20q13 0 26 -5
t23.5 -16t17 -27.5t6.5 -39.5z" />
    <glyph glyph-name="uni1EAC" unicode="&#x1eac;" horiz-adv-x="670" 
d="M5 85q0 25 10.5 71t28 103t42 119.5t52 121.5t58 109t60.5 81h74q51 0 84 -21.5t50 -50.5q25 -41 55 -110t58.5 -152.5t52 -175.5t35.5 -180h-86q-52 0 -80 17t-37 65q-4 19 -8.5 39t-10.5 42h-238q-6 -19 -11 -40.5t-9.5 -43.5t-8 -42.5t-6.5 -36.5h-77q-46 0 -67 23.5
t-21 61.5zM136 716v28q0 29 5 48.5t16 34t28.5 26t42.5 24.5l89 46l87 -45q25 -13 43 -25t29 -27.5t16.5 -36t5.5 -50.5v-23l-182 71zM336 -49q35 0 60 -25t25 -61q0 -35 -25 -60t-60 -25q-36 0 -61 25t-25 60q0 36 25 61t61 25zM404 312q-17 51 -37.5 107.5t-40.5 98.5
q-23 -43 -44 -99t-36 -107h158z" />
    <glyph glyph-name="uni1EAD" unicode="&#x1ead;" horiz-adv-x="584" 
d="M539 242q0 -75 -13 -124.5t-44 -79t-81.5 -41.5t-125.5 -12q-40 0 -81.5 10t-75.5 31t-56 54t-22 80q0 91 69 137.5t219 46.5h27v23q0 34 -26.5 45t-83.5 11q-39 0 -66.5 -4.5t-47.5 -12t-35.5 -19t-30.5 -24.5h-5v67q0 25 13.5 49.5t41.5 44t71 31t102 11.5
q57 0 103.5 -14.5t79 -44t50.5 -74.5t18 -106v-85zM359 226h-38q-54 0 -77.5 -13.5t-23.5 -41.5q0 -26 17.5 -39.5t57.5 -13.5q26 0 45 14.5t19 52.5v41zM292 663l-180 -71v28q0 29 5 48.5t16 34t28.5 26t42.5 24.5l89 46l87 -45q25 -13 43 -25t29 -27.5t16.5 -36t5.5 -50.5
v-23zM209 -135q0 36 25 61t61 25q35 0 60 -25t25 -61q0 -35 -25 -60t-60 -25q-36 0 -61 25t-25 60z" />
    <glyph glyph-name="uni1EAE" unicode="&#x1eae;" horiz-adv-x="670" 
d="M330 690q51 0 84 -21.5t50 -50.5q25 -41 55 -110t58.5 -152.5t52 -175.5t35.5 -180h-86q-52 0 -80 17t-37 65q-4 19 -8.5 39t-10.5 42h-238q-6 -19 -11 -40.5t-9.5 -43.5t-8 -42.5t-6.5 -36.5h-77q-46 0 -67 23.5t-21 61.5q0 25 10.5 71t28 103t42 119.5t52 121.5t58 109
t60.5 81h74zM264 951v5q12 28 31 57.5t44 53.5t55 39t63 15q31 0 47.5 -17t16.5 -42q0 -39 -22.5 -61t-55 -33.5t-69 -14t-64.5 -2.5h-46zM178 911q26 -29 63 -51.5t91 -22.5q26 0 50 7t43.5 18t34.5 24.5t24 26.5v-36q0 -32 -12.5 -58.5t-33.5 -45.5t-48.5 -30t-58.5 -11
q-32 0 -59.5 11t-48.5 30.5t-33 47.5t-12 61v29zM404 312q-17 51 -37.5 107.5t-40.5 98.5q-23 -43 -44 -99t-36 -107h158z" />
    <glyph glyph-name="uni1EAF" unicode="&#x1eaf;" horiz-adv-x="584" 
d="M140 804q26 -29 63 -51.5t91 -22.5q26 0 50 7t43.5 18t34.5 24.5t24 26.5v-36q0 -32 -12.5 -58.5t-33.5 -45.5t-48.5 -30t-58.5 -11q-32 0 -59.5 11t-48.5 30.5t-33 47.5t-12 61v29zM539 242q0 -75 -13 -124.5t-44 -79t-81.5 -41.5t-125.5 -12q-40 0 -81.5 10t-75.5 31
t-56 54t-22 80q0 91 69 137.5t219 46.5h27v23q0 34 -26.5 45t-83.5 11q-39 0 -66.5 -4.5t-47.5 -12t-35.5 -19t-30.5 -24.5h-5v67q0 25 13.5 49.5t41.5 44t71 31t102 11.5q57 0 103.5 -14.5t79 -44t50.5 -74.5t18 -106v-85zM359 226h-38q-54 0 -77.5 -13.5t-23.5 -41.5
q0 -26 17.5 -39.5t57.5 -13.5q26 0 45 14.5t19 52.5v41zM217 829q13 31 33 59.5t43 51.5q24 25 53.5 39.5t63.5 14.5q31 0 47.5 -17t16.5 -42q0 -31 -19 -55t-42 -34q-48 -22 -150 -22h-46v5z" />
    <glyph glyph-name="uni1EB0" unicode="&#x1eb0;" horiz-adv-x="670" 
d="M330 690q51 0 84 -21.5t50 -50.5q25 -41 55 -110t58.5 -152.5t52 -175.5t35.5 -180h-86q-52 0 -80 17t-37 65q-4 19 -8.5 39t-10.5 42h-238q-6 -19 -11 -40.5t-9.5 -43.5t-8 -42.5t-6.5 -36.5h-77q-46 0 -67 23.5t-21 61.5q0 25 10.5 71t28 103t42 119.5t52 121.5t58 109
t60.5 81h74zM157 1062q0 25 16.5 42t47.5 17q33 0 63 -15t55 -39t44 -53.5t31 -57.5v-5h-46q-28 0 -64.5 2.5t-69 14t-55 33.5t-22.5 61zM178 911q26 -29 63 -51.5t91 -22.5q26 0 50 7t43.5 18t34.5 24.5t24 26.5v-36q0 -32 -12.5 -58.5t-33.5 -45.5t-48.5 -30t-58.5 -11
q-32 0 -59.5 11t-48.5 30.5t-33 47.5t-12 61v29zM404 312q-17 51 -37.5 107.5t-40.5 98.5q-23 -43 -44 -99t-36 -107h158z" />
    <glyph glyph-name="uni1EB1" unicode="&#x1eb1;" horiz-adv-x="584" 
d="M140 804q26 -29 63 -51.5t91 -22.5q26 0 50 7t43.5 18t34.5 24.5t24 26.5v-36q0 -32 -12.5 -58.5t-33.5 -45.5t-48.5 -30t-58.5 -11q-32 0 -59.5 11t-48.5 30.5t-33 47.5t-12 61v29zM539 242q0 -75 -13 -124.5t-44 -79t-81.5 -41.5t-125.5 -12q-40 0 -81.5 10t-75.5 31
t-56 54t-22 80q0 91 69 137.5t219 46.5h27v23q0 34 -26.5 45t-83.5 11q-39 0 -66.5 -4.5t-47.5 -12t-35.5 -19t-30.5 -24.5h-5v67q0 25 13.5 49.5t41.5 44t71 31t102 11.5q57 0 103.5 -14.5t79 -44t50.5 -74.5t18 -106v-85zM359 226h-38q-54 0 -77.5 -13.5t-23.5 -41.5
q0 -26 17.5 -39.5t57.5 -13.5q26 0 45 14.5t19 52.5v41zM405 824h-46q-102 0 -150 22q-23 10 -42 34t-19 55q0 25 16.5 42t47.5 17q34 0 63.5 -14.5t53.5 -39.5q23 -23 43 -51.5t33 -59.5v-5z" />
    <glyph glyph-name="uni1EB2" unicode="&#x1eb2;" horiz-adv-x="670" 
d="M330 690q51 0 84 -21.5t50 -50.5q25 -41 55 -110t58.5 -152.5t52 -175.5t35.5 -180h-86q-52 0 -80 17t-37 65q-4 19 -8.5 39t-10.5 42h-238q-6 -19 -11 -40.5t-9.5 -43.5t-8 -42.5t-6.5 -36.5h-77q-46 0 -67 23.5t-21 61.5q0 25 10.5 71t28 103t42 119.5t52 121.5t58 109
t60.5 81h74zM245 1084q-1 5 -1.5 9t-0.5 8q0 13 6.5 26.5t19 25t30.5 18.5t41 7q26 0 48 -9t38 -24t25 -34t9 -40q0 -23 -12.5 -42t-29.5 -30q-5 -5 -11.5 -9.5t-11.5 -9.5l-12 -11q-7 -6 -9.5 -13.5t-2.5 -14.5q-1 -3 -0.5 -7t1.5 -9h-51q-26 0 -34.5 13t-10.5 26
q-2 14 5.5 25.5t18.5 19.5q20 15 35.5 27.5t13.5 26.5q-2 17 -13.5 23.5t-26.5 6.5q-21 -2 -33.5 -11t-13.5 -23q-8 5 -11.5 11.5t-5.5 13.5zM178 911q26 -29 63 -51.5t91 -22.5q26 0 50 7t43.5 18t34.5 24.5t24 26.5v-36q0 -32 -12.5 -58.5t-33.5 -45.5t-48.5 -30
t-58.5 -11q-32 0 -59.5 11t-48.5 30.5t-33 47.5t-12 61v29zM404 312q-17 51 -37.5 107.5t-40.5 98.5q-23 -43 -44 -99t-36 -107h158z" />
    <glyph glyph-name="uni1EB3" unicode="&#x1eb3;" horiz-adv-x="584" 
d="M280 806q-26 0 -34.5 13t-10.5 26q-2 14 5.5 25.5t18.5 19.5q20 15 35.5 27.5t13.5 26.5q-2 18 -15.5 24.5t-24.5 5.5q-21 -2 -33.5 -11t-13.5 -23q-8 5 -11.5 11.5t-5.5 13.5q-1 5 -1.5 9t-0.5 8q0 13 6.5 26.5t19 25t30.5 18.5t41 7q26 0 48 -9t38 -24t25 -34t9 -40
q0 -23 -12.5 -42t-29.5 -30q-5 -5 -11.5 -9.5t-11.5 -9.5l-12 -11q-7 -6 -9.5 -13.5t-2.5 -14.5q-1 -3 -0.5 -7t1.5 -9h-51zM359 185q0 -38 -19 -52.5t-45 -14.5q-40 0 -57.5 13.5t-17.5 39.5q0 28 23.5 41.5t77.5 13.5h38v-41zM539 327q0 61 -18 106t-50.5 74.5t-79 44
t-103.5 14.5q-59 0 -102 -11.5t-71 -31t-41.5 -44t-13.5 -49.5v-67h5q15 13 30.5 24.5t35.5 19t47.5 12t66.5 4.5q57 0 83.5 -11t26.5 -45v-23h-27q-150 0 -219 -46.5t-69 -137.5q0 -47 22 -80t56 -54t75.5 -31t81.5 -10q75 0 125.5 12t81.5 41.5t44 79t13 124.5v85z
M140 804q26 -29 63 -51.5t91 -22.5q26 0 50 7t43.5 18t34.5 24.5t24 26.5v-36q0 -32 -12.5 -58.5t-33.5 -45.5t-48.5 -30t-58.5 -11q-32 0 -59.5 11t-48.5 30.5t-33 47.5t-12 61v29z" />
    <glyph glyph-name="uni1EB4" unicode="&#x1eb4;" horiz-adv-x="666" 
d="M330 690q51 0 84 -21.5t50 -50.5q25 -41 55 -110t58.5 -152.5t52 -175.5t35.5 -180h-86q-52 0 -80 17t-37 65q-4 19 -8.5 39t-10.5 42h-238q-6 -19 -11 -40.5t-9.5 -43.5t-8 -42.5t-6.5 -36.5h-77q-46 0 -67 23.5t-21 61.5q0 25 10.5 71t28 103t42 119.5t52 121.5t58 109
t60.5 81h74zM143 1030q0 38 26.5 66.5t74.5 28.5q25 0 47 -7.5t39 -20.5q23 -17 35 -24t24 -7q17 0 27.5 8t10.5 28v23h20q13 0 26 -5t23.5 -16t17 -27.5t6.5 -39.5q0 -33 -25.5 -60.5t-74.5 -27.5q-31 0 -49.5 7t-37.5 21q-26 19 -37.5 25.5t-24.5 6.5q-14 0 -24.5 -10
t-10.5 -29v-21h-22q-27 0 -49 23t-22 58zM178 911q26 -29 63 -51.5t91 -22.5q26 0 50 7t43.5 18t34.5 24.5t24 26.5v-36q0 -32 -12.5 -58.5t-33.5 -45.5t-48.5 -30t-58.5 -11q-32 0 -59.5 11t-48.5 30.5t-33 47.5t-12 61v29zM404 312q-17 51 -37.5 107.5t-40.5 98.5
q-23 -43 -44 -99t-36 -107h158z" />
    <glyph glyph-name="uni1EB5" unicode="&#x1eb5;" horiz-adv-x="584" 
d="M140 804q26 -29 63 -51.5t91 -22.5q26 0 50 7t43.5 18t34.5 24.5t24 26.5v-36q0 -32 -12.5 -58.5t-33.5 -45.5t-48.5 -30t-58.5 -11q-32 0 -59.5 11t-48.5 30.5t-33 47.5t-12 61v29zM539 242q0 -75 -13 -124.5t-44 -79t-81.5 -41.5t-125.5 -12q-40 0 -81.5 10t-75.5 31
t-56 54t-22 80q0 91 69 137.5t219 46.5h27v23q0 34 -26.5 45t-83.5 11q-39 0 -66.5 -4.5t-47.5 -12t-35.5 -19t-30.5 -24.5h-5v67q0 25 13.5 49.5t41.5 44t71 31t102 11.5q57 0 103.5 -14.5t79 -44t50.5 -74.5t18 -106v-85zM359 226h-38q-54 0 -77.5 -13.5t-23.5 -41.5
q0 -26 17.5 -39.5t57.5 -13.5q26 0 45 14.5t19 52.5v41zM480 912q0 -33 -25.5 -60.5t-74.5 -27.5q-31 0 -49.5 7t-37.5 21q-26 19 -37.5 25.5t-24.5 6.5q-14 0 -24.5 -10t-10.5 -29v-21h-22q-27 0 -49 23t-22 58q0 38 26.5 66.5t74.5 28.5q25 0 47 -7.5t39 -20.5
q23 -17 35 -24t24 -7q17 0 27.5 8t10.5 28v23h20q13 0 26 -5t23.5 -16t17 -27.5t6.5 -39.5z" />
    <glyph glyph-name="uni1EB6" unicode="&#x1eb6;" horiz-adv-x="670" 
d="M330 690q51 0 84 -21.5t50 -50.5q25 -41 55 -110t58.5 -152.5t52 -175.5t35.5 -180h-86q-52 0 -80 17t-37 65q-4 19 -8.5 39t-10.5 42h-238q-6 -19 -11 -40.5t-9.5 -43.5t-8 -42.5t-6.5 -36.5h-77q-46 0 -67 23.5t-21 61.5q0 25 10.5 71t28 103t42 119.5t52 121.5t58 109
t60.5 81h74zM178 911q26 -29 63 -51.5t91 -22.5q26 0 50 7t43.5 18t34.5 24.5t24 26.5v-36q0 -32 -12.5 -58.5t-33.5 -45.5t-48.5 -30t-58.5 -11q-32 0 -59.5 11t-48.5 30.5t-33 47.5t-12 61v29zM250 -135q0 36 25 61t61 25q35 0 60 -25t25 -61q0 -35 -25 -60t-60 -25
q-36 0 -61 25t-25 60zM404 312q-17 51 -37.5 107.5t-40.5 98.5q-23 -43 -44 -99t-36 -107h158z" />
    <glyph glyph-name="uni1EB7" unicode="&#x1eb7;" horiz-adv-x="584" 
d="M222 -135q0 -35 25 -60t61 -25q35 0 60 25t25 60q0 36 -25 61t-60 25q-36 0 -61 -25t-25 -61zM359 185q0 -38 -19 -52.5t-45 -14.5q-40 0 -57.5 13.5t-17.5 39.5q0 28 23.5 41.5t77.5 13.5h38v-41zM539 327q0 61 -18 106t-50.5 74.5t-79 44t-103.5 14.5q-59 0 -102 -11.5
t-71 -31t-41.5 -44t-13.5 -49.5v-67h5q15 13 30.5 24.5t35.5 19t47.5 12t66.5 4.5q57 0 83.5 -11t26.5 -45v-23h-27q-150 0 -219 -46.5t-69 -137.5q0 -47 22 -80t56 -54t75.5 -31t81.5 -10q75 0 125.5 12t81.5 41.5t44 79t13 124.5v85zM140 804q26 -29 63 -51.5t91 -22.5
q26 0 50 7t43.5 18t34.5 24.5t24 26.5v-36q0 -32 -12.5 -58.5t-33.5 -45.5t-48.5 -30t-58.5 -11q-32 0 -59.5 11t-48.5 30.5t-33 47.5t-12 61v29z" />
    <glyph glyph-name="uni1EB8" unicode="&#x1eb8;" horiz-adv-x="606" 
d="M241 -135q0 36 25 61t61 25q35 0 60 -25t25 -61q0 -35 -25 -60t-60 -25q-36 0 -61 25t-25 60zM575 92q0 -24 -8 -42.5t-27 -31.5t-49.5 -20t-76.5 -7h-78q-138 0 -209.5 69t-71.5 214v116q0 48 3 97t9 89q10 66 46 90t87 24h376v-45q0 -51 -27.5 -80.5t-87.5 -29.5h-210
q-3 -26 -5 -59t-2 -58h267v-69q0 -78 -104 -78h-163v-25q0 -28 5 -47t18.5 -31t37 -17t59.5 -5h50q43 0 81 4t80 15v-73z" />
    <glyph glyph-name="uni1EB9" unicode="&#x1eb9;" 
d="M218 -135q0 36 25 61t61 25q35 0 60 -25t25 -61q0 -35 -25 -60t-60 -25q-36 0 -61 25t-25 60zM579 346q0 -41 -16 -68t-49 -43t-83.5 -22t-120.5 -6h-82q16 -81 135 -81q66 0 108.5 9.5t65.5 25.5h7v-44q0 -26 -11.5 -50t-37 -42.5t-66.5 -29.5t-99 -11
q-71 0 -125.5 22.5t-91 60.5t-55 89t-18.5 108q0 63 20.5 118t57.5 96t89 65t116 24q54 0 100.5 -15t81 -43t54.5 -69.5t20 -93.5zM403 367q0 21 -19 39.5t-61 18.5q-50 0 -73 -28t-27 -68h74q34 0 54.5 2.5t32 7.5t15.5 12t4 16z" />
    <glyph glyph-name="uni1EBA" unicode="&#x1eba;" horiz-adv-x="606" 
d="M575 165q-42 -11 -80 -15t-81 -4h-50q-36 0 -59.5 5t-37 17t-18.5 31t-5 47v25h163q104 0 104 78v69h-267q0 25 2 58t5 59h210q60 0 87.5 29.5t27.5 80.5v45h-376q-51 0 -87 -24t-46 -90q-6 -40 -9 -89t-3 -97v-116q0 -145 71.5 -214t209.5 -69h78q46 0 76.5 7t49.5 20
t27 31.5t8 42.5v73zM317 775q-26 0 -34.5 13t-10.5 26q-2 14 5.5 25.5t18.5 19.5q20 15 35.5 27.5t13.5 26.5q-2 18 -15.5 24.5t-24.5 5.5q-21 -2 -33.5 -11t-13.5 -23q-8 5 -11.5 11.5t-5.5 13.5q-1 5 -1.5 9t-0.5 8q0 13 6.5 26.5t19 25t30.5 18.5t41 7q26 0 48 -9t38 -24
t25 -34t9 -40q0 -23 -12.5 -42t-29.5 -30q-5 -5 -11.5 -9.5t-11.5 -9.5l-12 -11q-7 -6 -9.5 -13.5t-2.5 -14.5q-1 -3 -0.5 -7t1.5 -9h-51z" />
    <glyph glyph-name="uni1EBB" unicode="&#x1ebb;" 
d="M403 367q0 -9 -4 -16t-15.5 -12t-32 -7.5t-54.5 -2.5h-74q4 40 27 68t73 28q42 0 61 -18.5t19 -39.5zM579 346q0 52 -20 93.5t-54.5 69.5t-81 43t-100.5 15q-64 0 -116 -24t-89 -65t-57.5 -96t-20.5 -118q0 -57 18.5 -108t55 -89t91 -60.5t125.5 -22.5q58 0 99 11
t66.5 29.5t37 42.5t11.5 50v44h-7q-23 -16 -65.5 -25.5t-108.5 -9.5q-119 0 -135 81h82q70 0 120.5 6t83.5 22t49 43t16 68zM314 627q-26 0 -35 13t-11 27q-2 13 5.5 24t18.5 20q19 15 35 27.5t14 26.5q-2 19 -15.5 25.5t-22.5 6.5q-47 -5 -49 -34q-7 4 -10.5 10.5
t-5.5 13.5q-1 5 -1.5 9t-0.5 8q0 13 6.5 27t19 24.5t30 17.5t40.5 7q25 0 47.5 -8.5t39 -23t26 -34t9.5 -41.5t-13 -41.5t-30 -30.5q-5 -4 -11 -8.5t-12 -10.5l-11 -12q-7 -6 -9.5 -13t-3.5 -14q-2 -8 0 -16h-50z" />
    <glyph glyph-name="uni1EBC" unicode="&#x1ebc;" horiz-adv-x="606" 
d="M575 92q0 -24 -8 -42.5t-27 -31.5t-49.5 -20t-76.5 -7h-78q-138 0 -209.5 69t-71.5 214v116q0 48 3 97t9 89q10 66 46 90t87 24h376v-45q0 -51 -27.5 -80.5t-87.5 -29.5h-210q-3 -26 -5 -59t-2 -58h267v-69q0 -78 -104 -78h-163v-25q0 -28 5 -47t18.5 -31t37 -17t59.5 -5
h50q43 0 81 4t80 15v-73zM491 864q0 -33 -25.5 -60.5t-74.5 -27.5q-31 0 -49.5 7t-37.5 21q-26 19 -37.5 25.5t-24.5 6.5q-14 0 -24.5 -10t-10.5 -29v-21h-22q-27 0 -49 23t-22 58q0 38 26.5 66.5t74.5 28.5q25 0 47 -7.5t39 -20.5q23 -17 35 -24t24 -7q17 0 27.5 8t10.5 28
v23h20q13 0 26 -5t23.5 -16t17 -27.5t6.5 -39.5z" />
    <glyph glyph-name="uni1EBD" unicode="&#x1ebd;" 
d="M579 346q0 -41 -16 -68t-49 -43t-83.5 -22t-120.5 -6h-82q16 -81 135 -81q66 0 108.5 9.5t65.5 25.5h7v-44q0 -26 -11.5 -50t-37 -42.5t-66.5 -29.5t-99 -11q-71 0 -125.5 22.5t-91 60.5t-55 89t-18.5 108q0 63 20.5 118t57.5 96t89 65t116 24q54 0 100.5 -15t81 -43
t54.5 -69.5t20 -93.5zM403 367q0 21 -19 39.5t-61 18.5q-50 0 -73 -28t-27 -68h74q34 0 54.5 2.5t32 7.5t15.5 12t4 16zM509 718q0 -33 -25.5 -60.5t-74.5 -27.5q-31 0 -49.5 7t-37.5 21q-26 19 -37.5 25.5t-24.5 6.5q-14 0 -24.5 -10t-10.5 -29v-21h-22q-27 0 -49 23
t-22 58q0 38 26.5 66.5t74.5 28.5q25 0 47 -7.5t39 -20.5q23 -17 35 -24t24 -7q17 0 27.5 8t10.5 28v23h20q13 0 26 -5t23.5 -16t17 -27.5t6.5 -39.5z" />
    <glyph glyph-name="uni1EBE" unicode="&#x1ebe;" horiz-adv-x="606" 
d="M575 92q0 -24 -8 -42.5t-27 -31.5t-49.5 -20t-76.5 -7h-78q-138 0 -209.5 69t-71.5 214v116q0 48 3 97t9 89q10 66 46 90t87 24h376v-45q0 -51 -27.5 -80.5t-87.5 -29.5h-210q-3 -26 -5 -59t-2 -58h267v-69q0 -78 -104 -78h-163v-25q0 -28 5 -47t18.5 -31t37 -17t59.5 -5
h50q43 0 81 4t80 15v-73zM322 788l-180 -71v28q0 29 5 48.5t16 34t28.5 26t42.5 24.5l89 46l87 -45q25 -13 43 -25t29 -27.5t16.5 -36t5.5 -50.5v-23zM348 956q13 31 33 59.5t43 51.5q24 25 53.5 39.5t63.5 14.5q31 0 47.5 -17t16.5 -42q0 -31 -19 -55t-42 -34
q-48 -22 -150 -22h-46v5z" />
    <glyph glyph-name="uni1EBF" unicode="&#x1ebf;" 
d="M579 346q0 -41 -16 -68t-49 -43t-83.5 -22t-120.5 -6h-82q16 -81 135 -81q66 0 108.5 9.5t65.5 25.5h7v-44q0 -26 -11.5 -50t-37 -42.5t-66.5 -29.5t-99 -11q-71 0 -125.5 22.5t-91 60.5t-55 89t-18.5 108q0 63 20.5 118t57.5 96t89 65t116 24q54 0 100.5 -15t81 -43
t54.5 -69.5t20 -93.5zM403 367q0 21 -19 39.5t-61 18.5q-50 0 -73 -28t-27 -68h74q34 0 54.5 2.5t32 7.5t15.5 12t4 16zM322 662l-180 -71v28q0 29 5 48.5t16 34t28.5 26t42.5 24.5l89 46l87 -45q25 -13 43 -25t29 -27.5t16.5 -36t5.5 -50.5v-23zM334 829q13 31 33 59.5
t43 51.5q24 25 53.5 39.5t63.5 14.5q31 0 47.5 -17t16.5 -42q0 -31 -19 -55t-42 -34q-48 -22 -150 -22h-46v5z" />
    <glyph glyph-name="uni1EC0" unicode="&#x1ec0;" horiz-adv-x="606" 
d="M575 92q0 -24 -8 -42.5t-27 -31.5t-49.5 -20t-76.5 -7h-78q-138 0 -209.5 69t-71.5 214v116q0 48 3 97t9 89q10 66 46 90t87 24h376v-45q0 -51 -27.5 -80.5t-87.5 -29.5h-210q-3 -26 -5 -59t-2 -58h267v-69q0 -78 -104 -78h-163v-25q0 -28 5 -47t18.5 -31t37 -17t59.5 -5
h50q43 0 81 4t80 15v-73zM322 788l-180 -71v28q0 29 5 48.5t16 34t28.5 26t42.5 24.5l89 46l87 -45q25 -13 43 -25t29 -27.5t16.5 -36t5.5 -50.5v-23zM572 952h-46q-102 0 -150 22q-23 10 -42 34t-19 55q0 25 16.5 42t47.5 17q34 0 63.5 -14.5t53.5 -39.5q23 -23 43 -51.5
t33 -59.5v-5z" />
    <glyph glyph-name="uni1EC1" unicode="&#x1ec1;" 
d="M579 346q0 -41 -16 -68t-49 -43t-83.5 -22t-120.5 -6h-82q16 -81 135 -81q66 0 108.5 9.5t65.5 25.5h7v-44q0 -26 -11.5 -50t-37 -42.5t-66.5 -29.5t-99 -11q-71 0 -125.5 22.5t-91 60.5t-55 89t-18.5 108q0 63 20.5 118t57.5 96t89 65t116 24q54 0 100.5 -15t81 -43
t54.5 -69.5t20 -93.5zM403 367q0 21 -19 39.5t-61 18.5q-50 0 -73 -28t-27 -68h74q34 0 54.5 2.5t32 7.5t15.5 12t4 16zM322 662l-180 -71v28q0 29 5 48.5t16 34t28.5 26t42.5 24.5l89 46l87 -45q25 -13 43 -25t29 -27.5t16.5 -36t5.5 -50.5v-23zM581 824h-46
q-102 0 -150 22q-23 10 -42 34t-19 55q0 25 16.5 42t47.5 17q34 0 63.5 -14.5t53.5 -39.5q23 -23 43 -51.5t33 -59.5v-5z" />
    <glyph glyph-name="uni1EC2" unicode="&#x1ec2;" horiz-adv-x="606" 
d="M504 717v23q0 30 -5.5 50.5t-16.5 36t-29 27.5t-43 25l-87 45l-89 -46q-25 -13 -42.5 -24.5t-28.5 -26t-16 -34t-5 -48.5v-28l180 71zM575 165q-42 -11 -80 -15t-81 -4h-50q-36 0 -59.5 5t-37 17t-18.5 31t-5 47v25h163q104 0 104 78v69h-267q0 25 2 58t5 59h210
q60 0 87.5 29.5t27.5 80.5v45h-376q-51 0 -87 -24t-46 -90q-6 -40 -9 -89t-3 -97v-116q0 -145 71.5 -214t209.5 -69h78q46 0 76.5 7t49.5 20t27 31.5t8 42.5v73zM452 906q-26 0 -34.5 13t-10.5 26q-2 14 5.5 25.5t18.5 19.5q20 15 35.5 27.5t13.5 26.5q-2 18 -15.5 24.5
t-24.5 5.5q-21 -2 -33.5 -11t-13.5 -23q-8 5 -11.5 11.5t-5.5 13.5q-1 5 -1.5 9t-0.5 8q0 13 6.5 26.5t19 25t30.5 18.5t41 7q26 0 48 -9t38 -24t25 -34t9 -40q0 -23 -12.5 -42t-29.5 -30q-5 -5 -11.5 -9.5t-11.5 -9.5l-12 -11q-7 -6 -9.5 -13.5t-2.5 -14.5q-1 -3 -0.5 -7
t1.5 -9h-51z" />
    <glyph glyph-name="uni1EC3" unicode="&#x1ec3;" 
d="M504 591v23q0 30 -5.5 50.5t-16.5 36t-29 27.5t-43 25l-87 45l-89 -46q-25 -13 -42.5 -24.5t-28.5 -26t-16 -34t-5 -48.5v-28l180 71zM403 367q0 -9 -4 -16t-15.5 -12t-32 -7.5t-54.5 -2.5h-74q4 40 27 68t73 28q42 0 61 -18.5t19 -39.5zM579 346q0 52 -20 93.5
t-54.5 69.5t-81 43t-100.5 15q-64 0 -116 -24t-89 -65t-57.5 -96t-20.5 -118q0 -57 18.5 -108t55 -89t91 -60.5t125.5 -22.5q58 0 99 11t66.5 29.5t37 42.5t11.5 50v44h-7q-23 -16 -65.5 -25.5t-108.5 -9.5q-119 0 -135 81h82q70 0 120.5 6t83.5 22t49 43t16 68zM447 799
q-26 0 -35 13t-11 27q-2 13 5.5 24t18.5 20q19 15 35 27.5t14 26.5q-2 19 -15.5 25.5t-22.5 6.5q-47 -5 -49 -34q-7 4 -10.5 10.5t-5.5 13.5q-1 5 -1.5 9t-0.5 8q0 13 6.5 27t19 24.5t30 17.5t40.5 7q25 0 47.5 -8.5t39 -23t26 -34t9.5 -41.5t-13 -41.5t-30 -30.5
q-5 -4 -11 -8.5t-12 -10.5l-11 -12q-7 -6 -9.5 -13t-3.5 -14q-2 -8 0 -16h-50z" />
    <glyph glyph-name="uni1EC4" unicode="&#x1ec4;" horiz-adv-x="606" 
d="M575 92q0 -24 -8 -42.5t-27 -31.5t-49.5 -20t-76.5 -7h-78q-138 0 -209.5 69t-71.5 214v116q0 48 3 97t9 89q10 66 46 90t87 24h376v-45q0 -51 -27.5 -80.5t-87.5 -29.5h-210q-3 -26 -5 -59t-2 -58h267v-69q0 -78 -104 -78h-163v-25q0 -28 5 -47t18.5 -31t37 -17t59.5 -5
h50q43 0 81 4t80 15v-73zM322 788l-180 -71v28q0 29 5 48.5t16 34t28.5 26t42.5 24.5l89 46l87 -45q25 -13 43 -25t29 -27.5t16.5 -36t5.5 -50.5v-23zM548 1037q0 -33 -25.5 -60.5t-74.5 -27.5q-31 0 -49.5 7t-37.5 21q-26 19 -37.5 25.5t-24.5 6.5q-14 0 -24.5 -10
t-10.5 -29v-21h-22q-27 0 -49 23t-22 58q0 38 26.5 66.5t74.5 28.5q25 0 47 -7.5t39 -20.5q23 -17 35 -24t24 -7q17 0 27.5 8t10.5 28v23h20q13 0 26 -5t23.5 -16t17 -27.5t6.5 -39.5z" />
    <glyph glyph-name="uni1EC5" unicode="&#x1ec5;" 
d="M579 346q0 -41 -16 -68t-49 -43t-83.5 -22t-120.5 -6h-82q16 -81 135 -81q66 0 108.5 9.5t65.5 25.5h7v-44q0 -26 -11.5 -50t-37 -42.5t-66.5 -29.5t-99 -11q-71 0 -125.5 22.5t-91 60.5t-55 89t-18.5 108q0 63 20.5 118t57.5 96t89 65t116 24q54 0 100.5 -15t81 -43
t54.5 -69.5t20 -93.5zM403 367q0 21 -19 39.5t-61 18.5q-50 0 -73 -28t-27 -68h74q34 0 54.5 2.5t32 7.5t15.5 12t4 16zM322 662l-180 -71v28q0 29 5 48.5t16 34t28.5 26t42.5 24.5l89 46l87 -45q25 -13 43 -25t29 -27.5t16.5 -36t5.5 -50.5v-23zM527 911q0 -33 -25.5 -60.5
t-74.5 -27.5q-31 0 -49.5 7t-37.5 21q-26 19 -37.5 25.5t-24.5 6.5q-14 0 -24.5 -10t-10.5 -29v-21h-22q-27 0 -49 23t-22 58q0 38 26.5 66.5t74.5 28.5q25 0 47 -7.5t39 -20.5q23 -17 35 -24t24 -7q17 0 27.5 8t10.5 28v23h20q13 0 26 -5t23.5 -16t17 -27.5t6.5 -39.5z" />
    <glyph glyph-name="uni1EC6" unicode="&#x1ec6;" horiz-adv-x="606" 
d="M222 -135q0 36 25 61t61 25q35 0 60 -25t25 -61q0 -35 -25 -60t-60 -25q-36 0 -61 25t-25 60zM556 92q0 -24 -8 -42.5t-27 -31.5t-49.5 -20t-76.5 -7h-78q-138 0 -209.5 69t-71.5 214v116q0 48 3 97t9 89q10 66 46 90t87 24h376v-45q0 -51 -27.5 -80.5t-87.5 -29.5h-210
q-3 -26 -5 -59t-2 -58h267v-69q0 -78 -104 -78h-163v-25q0 -28 5 -47t18.5 -31t37 -17t59.5 -5h50q43 0 81 4t80 15v-73zM318 807l-180 -71v28q0 29 5 48.5t16 34t28.5 26t42.5 24.5l89 46l87 -45q25 -13 43 -25t29 -27.5t16.5 -36t5.5 -50.5v-23z" />
    <glyph glyph-name="uni1EC7" unicode="&#x1ec7;" 
d="M579 346q0 -41 -16 -68t-49 -43t-83.5 -22t-120.5 -6h-82q16 -81 135 -81q66 0 108.5 9.5t65.5 25.5h7v-44q0 -26 -11.5 -50t-37 -42.5t-66.5 -29.5t-99 -11q-71 0 -125.5 22.5t-91 60.5t-55 89t-18.5 108q0 63 20.5 118t57.5 96t89 65t116 24q54 0 100.5 -15t81 -43
t54.5 -69.5t20 -93.5zM403 367q0 21 -19 39.5t-61 18.5q-50 0 -73 -28t-27 -68h74q34 0 54.5 2.5t32 7.5t15.5 12t4 16zM322 662l-180 -71v28q0 29 5 48.5t16 34t28.5 26t42.5 24.5l89 46l87 -45q25 -13 43 -25t29 -27.5t16.5 -36t5.5 -50.5v-23zM237 -135q0 36 25 61t61 25
q35 0 60 -25t25 -61q0 -35 -25 -60t-60 -25q-36 0 -61 25t-25 60z" />
    <glyph glyph-name="uni1EC8" unicode="&#x1ec8;" horiz-adv-x="330" 
d="M260 0v601q0 21 -8 37.5t-20 28t-27 17.5t-29 6h-106v-583q0 -52 27.5 -79.5t60.5 -27.5h102zM137 777q-26 0 -34.5 13t-10.5 26q-2 14 5.5 25.5t18.5 19.5q20 15 35.5 27.5t13.5 26.5q-2 18 -15.5 24.5t-24.5 5.5q-21 -2 -33.5 -11t-13.5 -23q-8 5 -11.5 11.5t-5.5 13.5
q-1 5 -1.5 9t-0.5 8q0 13 6.5 26.5t19 25t30.5 18.5t41 7q26 0 48 -9t38 -24t25 -34t9 -40q0 -23 -12.5 -42t-29.5 -30q-5 -5 -11.5 -9.5t-11.5 -9.5l-12 -11q-7 -6 -9.5 -13.5t-2.5 -14.5q-1 -3 -0.5 -7t1.5 -9h-51z" />
    <glyph glyph-name="uni1EC9" unicode="&#x1ec9;" horiz-adv-x="366" 
d="M354 136h-23q-40 0 -58 13.5t-18 50.5v202q0 37 -7 62.5t-24 40.5t-44.5 21.5t-67.5 6.5h-47v-361q0 -49 14 -83t38 -55.5t57 -31.5t71 -10q22 0 42 4.5t35 15t23.5 27t8.5 41.5v56zM146 627q-26 0 -35 13t-11 27q-2 13 5.5 24t18.5 20q19 15 35 27.5t14 26.5
q-2 19 -15.5 25.5t-22.5 6.5q-47 -5 -49 -34q-7 4 -10.5 10.5t-5.5 13.5q-1 5 -1.5 9t-0.5 8q0 13 6.5 27t19 24.5t30 17.5t40.5 7q25 0 47.5 -8.5t39 -23t26 -34t9.5 -41.5t-13 -41.5t-30 -30.5q-5 -4 -11 -8.5t-12 -10.5l-11 -12q-7 -6 -9.5 -13t-3.5 -14q-2 -8 0 -16h-50
z" />
    <glyph glyph-name="uni1ECA" unicode="&#x1eca;" horiz-adv-x="330" 
d="M95 -135q0 36 25 61t61 25q35 0 60 -25t25 -61q0 -35 -25 -60t-60 -25q-36 0 -61 25t-25 60zM158 0q-33 0 -60.5 27.5t-27.5 79.5v583h106q14 0 29 -6t27 -17.5t20 -28t8 -37.5v-601h-102z" />
    <glyph glyph-name="uni1ECB" unicode="&#x1ecb;" horiz-adv-x="366" 
d="M122 -134q0 36 25 61t61 25q35 0 60 -25t25 -61q0 -35 -25 -60t-60 -25q-36 0 -61 25t-25 60zM256 675q0 -39 -28.5 -66.5t-70.5 -27.5q-21 0 -39 7.5t-31.5 20t-21.5 29.5t-8 37q0 19 8 36.5t21.5 30t31.5 20t39 7.5q42 0 70.5 -27.5t28.5 -66.5zM356 80
q0 -25 -8.5 -41.5t-23.5 -27t-35 -15t-42 -4.5q-38 0 -71 10t-57 31.5t-38 55.5t-14 83v361h47q40 0 67.5 -6.5t44.5 -21.5t24 -40.5t7 -62.5v-202q0 -37 18 -50.5t58 -13.5h23v-56z" />
    <glyph glyph-name="uni1ECC" unicode="&#x1ecc;" horiz-adv-x="764" 
d="M283 -135q0 36 25 61t61 25q35 0 60 -25t25 -61q0 -35 -25 -60t-60 -25q-36 0 -61 25t-25 60zM724 355q0 -86 -23.5 -154.5t-68.5 -116.5t-110.5 -74t-149.5 -26q-71 0 -131.5 24.5t-105 70.5t-70 111t-25.5 146q0 84 24 152t69.5 116.5t111 75t148.5 26.5q63 0 123 -23
t106 -68t74 -110.5t28 -149.5zM534 338q0 114 -40 164t-120 50q-35 0 -62 -14.5t-45 -40.5t-27.5 -62.5t-9.5 -79.5q0 -112 41 -164t119 -52q66 0 105 51t39 148z" />
    <glyph glyph-name="uni1ECD" unicode="&#x1ecd;" horiz-adv-x="664" 
d="M239 -134q0 36 25 61t61 25q35 0 60 -25t25 -61q0 -35 -25 -60t-60 -25q-36 0 -61 25t-25 60zM40 263q0 68 22.5 124t62 95.5t94.5 61t120 21.5q56 0 107.5 -20.5t91 -58t63 -89.5t23.5 -116q0 -68 -20 -122.5t-58.5 -93t-94 -59.5t-126.5 -21q-59 0 -111 20.5
t-90.5 57.5t-61 88t-22.5 112zM436 264q0 75 -29 113t-80 38q-20 0 -37.5 -10t-31.5 -27t-22 -41t-8 -52q0 -81 29 -116.5t80 -35.5q45 0 72 37t27 94z" />
    <glyph glyph-name="uni1ECE" unicode="&#x1ece;" horiz-adv-x="764" 
d="M534 338q0 -97 -39 -148t-105 -51q-78 0 -119 52t-41 164q0 43 9.5 79.5t27.5 62.5t45 40.5t62 14.5q80 0 120 -50t40 -164zM724 355q0 84 -28 149.5t-74 110.5t-106 68t-123 23q-83 0 -148.5 -26.5t-111 -75t-69.5 -116.5t-24 -152q0 -81 25.5 -146t70 -111t105 -70.5
t131.5 -24.5q84 0 149.5 26t110.5 74t68.5 116.5t23.5 154.5zM370 777q-26 0 -34.5 13t-10.5 26q-2 14 5.5 25.5t18.5 19.5q20 15 35.5 27.5t13.5 26.5q-2 18 -15.5 24.5t-24.5 5.5q-21 -2 -33.5 -11t-13.5 -23q-8 5 -11.5 11.5t-5.5 13.5q-1 5 -1.5 9t-0.5 8q0 13 6.5 26.5
t19 25t30.5 18.5t41 7q26 0 48 -9t38 -24t25 -34t9 -40q0 -23 -12.5 -42t-29.5 -30q-5 -5 -11.5 -9.5t-11.5 -9.5l-12 -11q-7 -6 -9.5 -13.5t-2.5 -14.5q-1 -3 -0.5 -7t1.5 -9h-51z" />
    <glyph glyph-name="uni1ECF" unicode="&#x1ecf;" horiz-adv-x="664" 
d="M436 264q0 -57 -27 -94t-72 -37q-51 0 -80 35.5t-29 116.5q0 28 8 52t22 41t31.5 27t37.5 10q51 0 80 -38t29 -113zM40 263q0 -61 22.5 -112t61 -88t90.5 -57.5t111 -20.5q71 0 126.5 21t94 59.5t58.5 93t20 122.5q0 64 -23.5 116t-63 89.5t-91 58t-107.5 20.5
q-65 0 -120 -21.5t-94.5 -61t-62 -95.5t-22.5 -124zM320 627q-26 0 -35 13t-11 27q-2 13 5.5 24t18.5 20q19 15 35 27.5t14 26.5q-2 19 -15.5 25.5t-22.5 6.5q-47 -5 -49 -34q-7 4 -10.5 10.5t-5.5 13.5q-1 5 -1.5 9t-0.5 8q0 13 6.5 27t19 24.5t30 17.5t40.5 7
q25 0 47.5 -8.5t39 -23t26 -34t9.5 -41.5t-13 -41.5t-30 -30.5q-5 -4 -11 -8.5t-12 -10.5l-11 -12q-7 -6 -9.5 -13t-3.5 -14q-2 -8 0 -16h-50z" />
    <glyph glyph-name="uni1ED0" unicode="&#x1ed0;" horiz-adv-x="764" 
d="M724 355q0 -86 -23.5 -154.5t-68.5 -116.5t-110.5 -74t-149.5 -26q-71 0 -131.5 24.5t-105 70.5t-70 111t-25.5 146q0 84 24 152t69.5 116.5t111 75t148.5 26.5q63 0 123 -23t106 -68t74 -110.5t28 -149.5zM534 338q0 114 -40 164t-120 50q-35 0 -62 -14.5t-45 -40.5
t-27.5 -62.5t-9.5 -79.5q0 -112 41 -164t119 -52q66 0 105 51t39 148zM382 787l-180 -71v28q0 29 5 48.5t16 34t28.5 26t42.5 24.5l89 46l87 -45q25 -13 43 -25t29 -27.5t16.5 -36t5.5 -50.5v-23zM412 957q13 31 33 59.5t43 51.5q24 25 53.5 39.5t63.5 14.5q31 0 47.5 -17
t16.5 -42q0 -31 -19 -55t-42 -34q-48 -22 -150 -22h-46v5z" />
    <glyph glyph-name="uni1ED1" unicode="&#x1ed1;" horiz-adv-x="664" 
d="M40 263q0 68 22.5 124t62 95.5t94.5 61t120 21.5q56 0 107.5 -20.5t91 -58t63 -89.5t23.5 -116q0 -68 -20 -122.5t-58.5 -93t-94 -59.5t-126.5 -21q-59 0 -111 20.5t-90.5 57.5t-61 88t-22.5 112zM436 264q0 75 -29 113t-80 38q-20 0 -37.5 -10t-31.5 -27t-22 -41t-8 -52
q0 -81 29 -116.5t80 -35.5q45 0 72 37t27 94zM330 663l-180 -71v28q0 29 5 48.5t16 34t28.5 26t42.5 24.5l89 46l87 -45q25 -13 43 -25t29 -27.5t16.5 -36t5.5 -50.5v-23zM348 829q13 31 33 59.5t43 51.5q24 25 53.5 39.5t63.5 14.5q31 0 47.5 -17t16.5 -42q0 -31 -19 -55
t-42 -34q-48 -22 -150 -22h-46v5z" />
    <glyph glyph-name="uni1ED2" unicode="&#x1ed2;" horiz-adv-x="764" 
d="M724 355q0 -86 -23.5 -154.5t-68.5 -116.5t-110.5 -74t-149.5 -26q-71 0 -131.5 24.5t-105 70.5t-70 111t-25.5 146q0 84 24 152t69.5 116.5t111 75t148.5 26.5q63 0 123 -23t106 -68t74 -110.5t28 -149.5zM534 338q0 114 -40 164t-120 50q-35 0 -62 -14.5t-45 -40.5
t-27.5 -62.5t-9.5 -79.5q0 -112 41 -164t119 -52q66 0 105 51t39 148zM382 787l-180 -71v28q0 29 5 48.5t16 34t28.5 26t42.5 24.5l89 46l87 -45q25 -13 43 -25t29 -27.5t16.5 -36t5.5 -50.5v-23zM638 952h-46q-102 0 -150 22q-23 10 -42 34t-19 55q0 25 16.5 42t47.5 17
q34 0 63.5 -14.5t53.5 -39.5q23 -23 43 -51.5t33 -59.5v-5z" />
    <glyph glyph-name="uni1ED3" unicode="&#x1ed3;" horiz-adv-x="664" 
d="M40 263q0 68 22.5 124t62 95.5t94.5 61t120 21.5q56 0 107.5 -20.5t91 -58t63 -89.5t23.5 -116q0 -68 -20 -122.5t-58.5 -93t-94 -59.5t-126.5 -21q-59 0 -111 20.5t-90.5 57.5t-61 88t-22.5 112zM436 264q0 75 -29 113t-80 38q-20 0 -37.5 -10t-31.5 -27t-22 -41t-8 -52
q0 -81 29 -116.5t80 -35.5q45 0 72 37t27 94zM330 663l-180 -71v28q0 29 5 48.5t16 34t28.5 26t42.5 24.5l89 46l87 -45q25 -13 43 -25t29 -27.5t16.5 -36t5.5 -50.5v-23zM589 824h-46q-102 0 -150 22q-23 10 -42 34t-19 55q0 25 16.5 42t47.5 17q34 0 63.5 -14.5
t53.5 -39.5q23 -23 43 -51.5t33 -59.5v-5z" />
    <glyph glyph-name="uni1ED4" unicode="&#x1ed4;" horiz-adv-x="764" 
d="M564 716v23q0 30 -5.5 50.5t-16.5 36t-29 27.5t-43 25l-87 45l-89 -46q-25 -13 -42.5 -24.5t-28.5 -26t-16 -34t-5 -48.5v-28l180 71zM534 338q0 -97 -39 -148t-105 -51q-78 0 -119 52t-41 164q0 43 9.5 79.5t27.5 62.5t45 40.5t62 14.5q80 0 120 -50t40 -164zM724 355
q0 84 -28 149.5t-74 110.5t-106 68t-123 23q-83 0 -148.5 -26.5t-111 -75t-69.5 -116.5t-24 -152q0 -81 25.5 -146t70 -111t105 -70.5t131.5 -24.5q84 0 149.5 26t110.5 74t68.5 116.5t23.5 154.5zM518 906q-26 0 -34.5 13t-10.5 26q-2 14 5.5 25.5t18.5 19.5
q20 15 35.5 27.5t13.5 26.5q-2 18 -15.5 24.5t-24.5 5.5q-21 -2 -33.5 -11t-13.5 -23q-8 5 -11.5 11.5t-5.5 13.5q-1 5 -1.5 9t-0.5 8q0 13 6.5 26.5t19 25t30.5 18.5t41 7q26 0 48 -9t38 -24t25 -34t9 -40q0 -23 -12.5 -42t-29.5 -30q-5 -5 -11.5 -9.5t-11.5 -9.5l-12 -11
q-7 -6 -9.5 -13.5t-2.5 -14.5q-1 -3 -0.5 -7t1.5 -9h-51z" />
    <glyph glyph-name="uni1ED5" unicode="&#x1ed5;" horiz-adv-x="664" 
d="M512 592v23q0 30 -5.5 50.5t-16.5 36t-29 27.5t-43 25l-87 45l-89 -46q-25 -13 -42.5 -24.5t-28.5 -26t-16 -34t-5 -48.5v-28l180 71zM436 264q0 -57 -27 -94t-72 -37q-51 0 -80 35.5t-29 116.5q0 28 8 52t22 41t31.5 27t37.5 10q51 0 80 -38t29 -113zM40 263
q0 -61 22.5 -112t61 -88t90.5 -57.5t111 -20.5q71 0 126.5 21t94 59.5t58.5 93t20 122.5q0 64 -23.5 116t-63 89.5t-91 58t-107.5 20.5q-65 0 -120 -21.5t-94.5 -61t-62 -95.5t-22.5 -124zM447 799q-26 0 -35 13t-11 27q-2 13 5.5 24t18.5 20q19 15 35 27.5t14 26.5
q-2 19 -15.5 25.5t-22.5 6.5q-47 -5 -49 -34q-7 4 -10.5 10.5t-5.5 13.5q-1 5 -1.5 9t-0.5 8q0 13 6.5 27t19 24.5t30 17.5t40.5 7q25 0 47.5 -8.5t39 -23t26 -34t9.5 -41.5t-13 -41.5t-30 -30.5q-5 -4 -11 -8.5t-12 -10.5l-11 -12q-7 -6 -9.5 -13t-3.5 -14q-2 -8 0 -16h-50
z" />
    <glyph glyph-name="uni1ED6" unicode="&#x1ed6;" horiz-adv-x="764" 
d="M724 355q0 -86 -23.5 -154.5t-68.5 -116.5t-110.5 -74t-149.5 -26q-71 0 -131.5 24.5t-105 70.5t-70 111t-25.5 146q0 84 24 152t69.5 116.5t111 75t148.5 26.5q63 0 123 -23t106 -68t74 -110.5t28 -149.5zM534 338q0 114 -40 164t-120 50q-35 0 -62 -14.5t-45 -40.5
t-27.5 -62.5t-9.5 -79.5q0 -112 41 -164t119 -52q66 0 105 51t39 148zM382 787l-180 -71v28q0 29 5 48.5t16 34t28.5 26t42.5 24.5l89 46l87 -45q25 -13 43 -25t29 -27.5t16.5 -36t5.5 -50.5v-23zM594 1039q0 -33 -25.5 -60.5t-74.5 -27.5q-31 0 -49.5 7t-37.5 21
q-26 19 -37.5 25.5t-24.5 6.5q-14 0 -24.5 -10t-10.5 -29v-21h-22q-27 0 -49 23t-22 58q0 38 26.5 66.5t74.5 28.5q25 0 47 -7.5t39 -20.5q23 -17 35 -24t24 -7q17 0 27.5 8t10.5 28v23h20q13 0 26 -5t23.5 -16t17 -27.5t6.5 -39.5z" />
    <glyph glyph-name="uni1ED7" unicode="&#x1ed7;" horiz-adv-x="664" 
d="M40 263q0 68 22.5 124t62 95.5t94.5 61t120 21.5q56 0 107.5 -20.5t91 -58t63 -89.5t23.5 -116q0 -68 -20 -122.5t-58.5 -93t-94 -59.5t-126.5 -21q-59 0 -111 20.5t-90.5 57.5t-61 88t-22.5 112zM436 264q0 75 -29 113t-80 38q-20 0 -37.5 -10t-31.5 -27t-22 -41t-8 -52
q0 -81 29 -116.5t80 -35.5q45 0 72 37t27 94zM330 663l-180 -71v28q0 29 5 48.5t16 34t28.5 26t42.5 24.5l89 46l87 -45q25 -13 43 -25t29 -27.5t16.5 -36t5.5 -50.5v-23zM524 911q0 -33 -25.5 -60.5t-74.5 -27.5q-31 0 -49.5 7t-37.5 21q-26 19 -37.5 25.5t-24.5 6.5
q-14 0 -24.5 -10t-10.5 -29v-21h-22q-27 0 -49 23t-22 58q0 38 26.5 66.5t74.5 28.5q25 0 47 -7.5t39 -20.5q23 -17 35 -24t24 -7q17 0 27.5 8t10.5 28v23h20q13 0 26 -5t23.5 -16t17 -27.5t6.5 -39.5z" />
    <glyph glyph-name="uni1ED8" unicode="&#x1ed8;" horiz-adv-x="764" 
d="M283 -135q0 36 25 61t61 25q35 0 60 -25t25 -61q0 -35 -25 -60t-60 -25q-36 0 -61 25t-25 60zM724 355q0 -86 -23.5 -154.5t-68.5 -116.5t-110.5 -74t-149.5 -26q-71 0 -131.5 24.5t-105 70.5t-70 111t-25.5 146q0 84 24 152t69.5 116.5t111 75t148.5 26.5q63 0 123 -23
t106 -68t74 -110.5t28 -149.5zM534 338q0 114 -40 164t-120 50q-35 0 -62 -14.5t-45 -40.5t-27.5 -62.5t-9.5 -79.5q0 -112 41 -164t119 -52q66 0 105 51t39 148zM381 803l-180 -71v28q0 29 5 48.5t16 34t28.5 26t42.5 24.5l89 46l87 -45q25 -13 43 -25t29 -27.5t16.5 -36
t5.5 -50.5v-23z" />
    <glyph glyph-name="uni1ED9" unicode="&#x1ed9;" horiz-adv-x="664" 
d="M239 -134q0 36 25 61t61 25q35 0 60 -25t25 -61q0 -35 -25 -60t-60 -25q-36 0 -61 25t-25 60zM40 263q0 68 22.5 124t62 95.5t94.5 61t120 21.5q56 0 107.5 -20.5t91 -58t63 -89.5t23.5 -116q0 -68 -20 -122.5t-58.5 -93t-94 -59.5t-126.5 -21q-59 0 -111 20.5
t-90.5 57.5t-61 88t-22.5 112zM436 264q0 75 -29 113t-80 38q-20 0 -37.5 -10t-31.5 -27t-22 -41t-8 -52q0 -81 29 -116.5t80 -35.5q45 0 72 37t27 94zM331 663l-180 -71v28q0 29 5 48.5t16 34t28.5 26t42.5 24.5l89 46l87 -45q25 -13 43 -25t29 -27.5t16.5 -36t5.5 -50.5
v-23z" />
    <glyph glyph-name="uni1EDA" unicode="&#x1eda;" horiz-adv-x="764" 
d="M763 696q6 -26 0.5 -48t-18 -41t-30.5 -34.5t-36 -27.5q23 -38 35.5 -85.5t12.5 -104.5q0 -86 -23.5 -155t-69 -117t-111 -73.5t-149.5 -25.5q-71 0 -132 24.5t-105.5 70.5t-70 111.5t-25.5 146.5q0 84 24 152.5t69.5 117.5t111.5 75.5t150 26.5q51 0 100.5 -17t91.5 -47
q13 6 23 13.5t11 18.5q2 37 22 55.5t46 18.5q24 0 43 -12.5t29 -38.5zM391 137q66 0 105 52.5t39 149.5q0 113 -40.5 162.5t-118.5 49.5q-72 0 -109.5 -54t-37.5 -142q0 -109 42 -163.5t120 -54.5zM400 785q13 31 33 59.5t43 51.5q24 25 53.5 39.5t63.5 14.5q31 0 47.5 -17
t16.5 -42q0 -31 -19 -55t-42 -34q-48 -22 -150 -22h-46v5z" />
    <glyph glyph-name="uni1EDB" unicode="&#x1edb;" horiz-adv-x="664" 
d="M649 567q7 -23 4 -42.5t-13 -36.5t-25 -31.5t-31 -26.5q18 -31 29.5 -68.5t11.5 -79.5q0 -68 -20 -123t-58.5 -93.5t-94.5 -59.5t-127 -21q-60 0 -112 20.5t-91 57.5t-61 88t-22 113q0 68 22.5 123.5t62 95.5t94.5 61.5t121 21.5q40 0 79 -11t72 -32q8 6 13.5 12.5
t6.5 14.5q2 36 23 54t45 18q23 0 42.5 -13t28.5 -42zM337 132q45 0 72 37.5t27 95.5q0 75 -30 113.5t-79 38.5q-20 0 -38 -10t-32 -27.5t-22 -41.5t-8 -52q0 -81 29.5 -117.5t80.5 -36.5zM271 635q13 31 33 59.5t43 51.5q24 25 53.5 39.5t63.5 14.5q31 0 47.5 -17t16.5 -42
q0 -31 -19 -55t-42 -34q-48 -22 -150 -22h-46v5z" />
    <glyph glyph-name="uni1EDC" unicode="&#x1edc;" horiz-adv-x="764" 
d="M763 696q6 -26 0.5 -48t-18 -41t-30.5 -34.5t-36 -27.5q23 -38 35.5 -85.5t12.5 -104.5q0 -86 -23.5 -155t-69 -117t-111 -73.5t-149.5 -25.5q-71 0 -132 24.5t-105.5 70.5t-70 111.5t-25.5 146.5q0 84 24 152.5t69.5 117.5t111.5 75.5t150 26.5q51 0 100.5 -17t91.5 -47
q13 6 23 13.5t11 18.5q2 37 22 55.5t46 18.5q24 0 43 -12.5t29 -38.5zM391 137q66 0 105 52.5t39 149.5q0 113 -40.5 162.5t-118.5 49.5q-72 0 -109.5 -54t-37.5 -142q0 -109 42 -163.5t120 -54.5zM572 780h-46q-102 0 -150 22q-23 10 -42 34t-19 55q0 25 16.5 42t47.5 17
q34 0 63.5 -14.5t53.5 -39.5q23 -23 43 -51.5t33 -59.5v-5z" />
    <glyph glyph-name="uni1EDD" unicode="&#x1edd;" horiz-adv-x="664" 
d="M649 567q7 -23 4 -42.5t-13 -36.5t-25 -31.5t-31 -26.5q18 -31 29.5 -68.5t11.5 -79.5q0 -68 -20 -123t-58.5 -93.5t-94.5 -59.5t-127 -21q-60 0 -112 20.5t-91 57.5t-61 88t-22 113q0 68 22.5 123.5t62 95.5t94.5 61.5t121 21.5q40 0 79 -11t72 -32q8 6 13.5 12.5
t6.5 14.5q2 36 23 54t45 18q23 0 42.5 -13t28.5 -42zM337 132q45 0 72 37.5t27 95.5q0 75 -30 113.5t-79 38.5q-20 0 -38 -10t-32 -27.5t-22 -41.5t-8 -52q0 -81 29.5 -117.5t80.5 -36.5zM460 630h-46q-102 0 -150 22q-23 10 -42 34t-19 55q0 25 16.5 42t47.5 17
q34 0 63.5 -14.5t53.5 -39.5q23 -23 43 -51.5t33 -59.5v-5z" />
    <glyph glyph-name="uni1EDE" unicode="&#x1ede;" horiz-adv-x="764" 
d="M391 137q-78 0 -120 54.5t-42 163.5q0 88 37.5 142t109.5 54q78 0 118.5 -49.5t40.5 -162.5q0 -97 -39 -149.5t-105 -52.5zM762 700q-10 26 -29 38.5t-43 12.5q-26 0 -46 -18.5t-22 -55.5q-1 -11 -11 -18.5t-23 -13.5q-42 30 -91.5 47t-100.5 17q-84 0 -150 -26.5
t-111.5 -75.5t-69.5 -117.5t-24 -152.5q0 -81 25.5 -146.5t70 -111.5t105.5 -70.5t132 -24.5q84 0 149.5 25.5t111 73.5t69 117t23.5 155q0 57 -12.5 104.5t-35.5 85.5q18 12 36 27.5t30.5 34.5t18 41t-0.5 48zM411 774q-26 0 -34.5 13t-10.5 26q-2 14 5.5 25.5t18.5 19.5
q20 15 35.5 27.5t13.5 26.5q-2 18 -15.5 24.5t-24.5 5.5q-21 -2 -33.5 -11t-13.5 -23q-8 5 -11.5 11.5t-5.5 13.5q-1 5 -1.5 9t-0.5 8q0 13 6.5 26.5t19 25t30.5 18.5t41 7q26 0 48 -9t38 -24t25 -34t9 -40q0 -23 -12.5 -42t-29.5 -30q-5 -5 -11.5 -9.5t-11.5 -9.5l-12 -11
q-7 -6 -9.5 -13.5t-2.5 -14.5q-1 -3 -0.5 -7t1.5 -9h-51z" />
    <glyph glyph-name="uni1EDF" unicode="&#x1edf;" horiz-adv-x="664" 
d="M337 132q-51 0 -80.5 36.5t-29.5 117.5q0 28 8 52t22 41.5t32 27.5t38 10q49 0 79 -38.5t30 -113.5q0 -58 -27 -95.5t-72 -37.5zM649 567q-9 29 -28.5 42t-42.5 13q-24 0 -45 -18t-23 -54q-1 -8 -6.5 -14.5t-13.5 -12.5q-33 21 -72 32t-79 11q-66 0 -121 -21.5
t-94.5 -61.5t-62 -95.5t-22.5 -123.5q0 -62 22 -113t61 -88t91 -57.5t112 -20.5q71 0 127 21t94.5 59.5t58.5 93.5t20 123q0 42 -11.5 79.5t-29.5 68.5q16 12 31 26.5t25 31.5t13 36.5t-4 42.5zM343 627q-26 0 -35 13t-11 27q-2 13 5.5 24t18.5 20q19 15 35 27.5t14 26.5
q-2 19 -15.5 25.5t-22.5 6.5q-47 -5 -49 -34q-7 4 -10.5 10.5t-5.5 13.5q-1 5 -1.5 9t-0.5 8q0 13 6.5 27t19 24.5t30 17.5t40.5 7q25 0 47.5 -8.5t39 -23t26 -34t9.5 -41.5t-13 -41.5t-30 -30.5q-5 -4 -11 -8.5t-12 -10.5l-11 -12q-7 -6 -9.5 -13t-3.5 -14q-2 -8 0 -16h-50
z" />
    <glyph glyph-name="uni1EE0" unicode="&#x1ee0;" horiz-adv-x="764" 
d="M763 696q6 -26 0.5 -48t-18 -41t-30.5 -34.5t-36 -27.5q23 -38 35.5 -85.5t12.5 -104.5q0 -86 -23.5 -155t-69 -117t-111 -73.5t-149.5 -25.5q-71 0 -132 24.5t-105.5 70.5t-70 111.5t-25.5 146.5q0 84 24 152.5t69.5 117.5t111.5 75.5t150 26.5q51 0 100.5 -17t91.5 -47
q13 6 23 13.5t11 18.5q2 37 22 55.5t46 18.5q24 0 43 -12.5t29 -38.5zM391 137q66 0 105 52.5t39 149.5q0 113 -40.5 162.5t-118.5 49.5q-72 0 -109.5 -54t-37.5 -142q0 -109 42 -163.5t120 -54.5zM604 861q0 -33 -25.5 -60.5t-74.5 -27.5q-31 0 -49.5 7t-37.5 21
q-26 19 -37.5 25.5t-24.5 6.5q-14 0 -24.5 -10t-10.5 -29v-21h-22q-27 0 -49 23t-22 58q0 38 26.5 66.5t74.5 28.5q25 0 47 -7.5t39 -20.5q23 -17 35 -24t24 -7q17 0 27.5 8t10.5 28v23h20q13 0 26 -5t23.5 -16t17 -27.5t6.5 -39.5z" />
    <glyph glyph-name="uni1EE1" unicode="&#x1ee1;" horiz-adv-x="664" 
d="M649 567q7 -23 4 -42.5t-13 -36.5t-25 -31.5t-31 -26.5q18 -31 29.5 -68.5t11.5 -79.5q0 -68 -20 -123t-58.5 -93.5t-94.5 -59.5t-127 -21q-60 0 -112 20.5t-91 57.5t-61 88t-22 113q0 68 22.5 123.5t62 95.5t94.5 61.5t121 21.5q40 0 79 -11t72 -32q8 6 13.5 12.5
t6.5 14.5q2 36 23 54t45 18q23 0 42.5 -13t28.5 -42zM337 132q45 0 72 37.5t27 95.5q0 75 -30 113.5t-79 38.5q-20 0 -38 -10t-32 -27.5t-22 -41.5t-8 -52q0 -81 29.5 -117.5t80.5 -36.5zM522 719q0 -33 -25.5 -60.5t-74.5 -27.5q-31 0 -49.5 7t-37.5 21q-26 19 -37.5 25.5
t-24.5 6.5q-14 0 -24.5 -10t-10.5 -29v-21h-22q-27 0 -49 23t-22 58q0 38 26.5 66.5t74.5 28.5q25 0 47 -7.5t39 -20.5q23 -17 35 -24t24 -7q17 0 27.5 8t10.5 28v23h20q13 0 26 -5t23.5 -16t17 -27.5t6.5 -39.5z" />
    <glyph glyph-name="uni1EE2" unicode="&#x1ee2;" horiz-adv-x="764" 
d="M286 -135q0 36 25 61t61 25q35 0 60 -25t25 -61q0 -35 -25 -60t-60 -25q-36 0 -61 25t-25 60zM763 696q6 -26 0.5 -48t-18 -41t-30.5 -34.5t-36 -27.5q23 -38 35.5 -85.5t12.5 -104.5q0 -86 -23.5 -155t-69 -117t-111 -73.5t-149.5 -25.5q-71 0 -132 24.5t-105.5 70.5
t-70 111.5t-25.5 146.5q0 84 24 152.5t69.5 117.5t111.5 75.5t150 26.5q51 0 100.5 -17t91.5 -47q13 6 23 13.5t11 18.5q2 37 22 55.5t46 18.5q24 0 43 -12.5t29 -38.5zM391 137q66 0 105 52.5t39 149.5q0 113 -40.5 162.5t-118.5 49.5q-72 0 -109.5 -54t-37.5 -142
q0 -109 42 -163.5t120 -54.5z" />
    <glyph glyph-name="uni1EE3" unicode="&#x1ee3;" horiz-adv-x="664" 
d="M243 -135q0 36 25 61t61 25q35 0 60 -25t25 -61q0 -35 -25 -60t-60 -25q-36 0 -61 25t-25 60zM649 567q7 -23 4 -42.5t-13 -36.5t-25 -31.5t-31 -26.5q18 -31 29.5 -68.5t11.5 -79.5q0 -68 -20 -123t-58.5 -93.5t-94.5 -59.5t-127 -21q-60 0 -112 20.5t-91 57.5t-61 88
t-22 113q0 68 22.5 123.5t62 95.5t94.5 61.5t121 21.5q40 0 79 -11t72 -32q8 6 13.5 12.5t6.5 14.5q2 36 23 54t45 18q23 0 42.5 -13t28.5 -42zM337 132q45 0 72 37.5t27 95.5q0 75 -30 113.5t-79 38.5q-20 0 -38 -10t-32 -27.5t-22 -41.5t-8 -52q0 -81 29.5 -117.5
t80.5 -36.5z" />
    <glyph glyph-name="uni1EE4" unicode="&#x1ee4;" horiz-adv-x="742" 
d="M60 690h81q46 0 77.5 -30t31.5 -101v-264q0 -87 32 -121t98 -34q57 0 84.5 36t27.5 114v400h81q54 0 81.5 -29t27.5 -98v-268q0 -65 -20 -122t-60 -99t-100 -66t-140 -24q-66 0 -121.5 21.5t-95.5 61t-62.5 96t-22.5 126.5v401zM285 -135q0 36 25 61t61 25q35 0 60 -25
t25 -61q0 -35 -25 -60t-60 -25q-36 0 -61 25t-25 60z" />
    <glyph glyph-name="uni1EE5" unicode="&#x1ee5;" horiz-adv-x="660" 
d="M52 550h74q63 0 91 -24.5t28 -87.5v-196q0 -61 25.5 -83.5t64.5 -22.5q34 0 57.5 24t23.5 89v301h74q57 0 87.5 -26t30.5 -86v-196q0 -66 -20 -114.5t-57 -80.5t-89 -47.5t-115 -15.5q-137 0 -206 63.5t-69 199.5v303zM244 -135q0 36 25 61t61 25q35 0 60 -25t25 -61
q0 -35 -25 -60t-60 -25q-36 0 -61 25t-25 60z" />
    <glyph glyph-name="uni1EE6" unicode="&#x1ee6;" horiz-adv-x="742" 
d="M141 690q46 0 77.5 -30t31.5 -101v-264q0 -87 32 -121t98 -34q57 0 84.5 36t27.5 114v400h81q54 0 81.5 -29t27.5 -98v-268q0 -65 -20 -122t-60 -99t-100 -66t-140 -24q-66 0 -121.5 21.5t-95.5 61t-62.5 96t-22.5 126.5v401h81zM272 953q0 13 6.5 26.5t19 25t30.5 18.5
t41 7q26 0 48 -9t38 -24t25 -34t9 -40q0 -23 -12.5 -42t-29.5 -30q-5 -5 -11.5 -9.5t-11.5 -9.5l-12 -11q-7 -6 -9.5 -13.5t-2.5 -14.5q-1 -3 -0.5 -7t1.5 -9h-51q-26 0 -34.5 13t-10.5 26q-2 14 5.5 25.5t18.5 19.5q20 15 35.5 27.5t13.5 26.5q-2 17 -13.5 23.5t-26.5 6.5
q-21 -2 -33.5 -11t-13.5 -23q-8 5 -11.5 11.5t-5.5 13.5q-1 5 -1.5 9t-0.5 8z" />
    <glyph glyph-name="uni1EE7" unicode="&#x1ee7;" horiz-adv-x="660" 
d="M126 550q63 0 91 -24.5t28 -87.5v-196q0 -61 25.5 -83.5t64.5 -22.5q34 0 57.5 24t23.5 89v301h74q57 0 87.5 -26t30.5 -86v-196q0 -66 -20 -114.5t-57 -80.5t-89 -47.5t-115 -15.5q-137 0 -206 63.5t-69 199.5v303h74zM235 787q-1 5 -1.5 9t-0.5 8q0 13 6.5 27t19 24.5
t30 17.5t40.5 7q25 0 47.5 -8.5t39 -23t26 -34t9.5 -41.5t-13 -41.5t-30 -30.5q-5 -4 -11 -8.5t-12 -10.5l-11 -12q-7 -6 -9.5 -13t-3.5 -14q-2 -8 0 -16h-50q-26 0 -35 13t-11 27q-2 13 5.5 24t18.5 20q19 15 35 27.5t14 26.5q-2 19 -15.5 25.5t-22.5 6.5q-47 -5 -49 -34
q-7 4 -10.5 10.5t-5.5 13.5z" />
    <glyph glyph-name="uni1EE8" unicode="&#x1ee8;" horiz-adv-x="808" 
d="M60 689h82q45 0 76.5 -30t31.5 -102v-261q0 -45 8 -75t24.5 -48t41.5 -26t58 -8q55 0 84 36t29 114v400h80q30 0 52.5 -8.5t36.5 -30.5q22 8 23 26q2 36 23.5 55.5t45.5 19.5q32 -1 49 -17t25 -39q9 -27 3.5 -50.5t-20 -42.5t-34.5 -34t-39.5 -25.5t-35 -17.5t-21.5 -10
v-219q0 -66 -20 -123t-60 -99t-100 -66t-140 -24q-68 0 -123.5 21.5t-95.5 61t-62 96t-22 126.5v400zM252 781q13 31 33 59.5t43 51.5q24 25 53.5 39.5t63.5 14.5q31 0 47.5 -17t16.5 -42q0 -31 -19 -55t-42 -34q-48 -22 -150 -22h-46v5z" />
    <glyph glyph-name="uni1EE9" unicode="&#x1ee9;" horiz-adv-x="660" 
d="M51 550h74q64 0 91.5 -24t27.5 -88v-195q0 -31 7 -51t19 -32t28.5 -17t36.5 -5q16 0 31 5.5t25.5 18t17 34t6.5 54.5v300h75q29 0 50 -6t36 -20q7 5 11.5 11.5t4.5 13.5q2 36 23 54t46 18q23 0 41.5 -13t28.5 -42q11 -33 -0.5 -61t-33 -49.5t-47 -36.5t-42.5 -23v-153
q0 -67 -20 -115.5t-57 -80.5t-89 -47.5t-115 -15.5q-136 0 -206 64t-70 200v302zM246 635q13 31 33 59.5t43 51.5q24 25 53.5 39.5t63.5 14.5q31 0 47.5 -17t16.5 -42q0 -31 -19 -55t-42 -34q-48 -22 -150 -22h-46v5z" />
    <glyph glyph-name="uni1EEA" unicode="&#x1eea;" horiz-adv-x="807" 
d="M60 689h82q45 0 76.5 -30t31.5 -102v-261q0 -45 8 -75t24.5 -48t41.5 -26t58 -8q55 0 84 36t29 114v400h80q30 0 52.5 -8.5t36.5 -30.5q22 8 23 26q2 36 23.5 55.5t45.5 19.5q32 -1 49 -17t25 -39q9 -27 3.5 -50.5t-20 -42.5t-34.5 -34t-39.5 -25.5t-35 -17.5t-21.5 -10
v-219q0 -66 -20 -123t-60 -99t-100 -66t-140 -24q-68 0 -123.5 21.5t-95.5 61t-62 96t-22 126.5v400zM466 777h-46q-102 0 -150 22q-23 10 -42 34t-19 55q0 25 16.5 42t47.5 17q34 0 63.5 -14.5t53.5 -39.5q23 -23 43 -51.5t33 -59.5v-5z" />
    <glyph glyph-name="uni1EEB" unicode="&#x1eeb;" horiz-adv-x="660" 
d="M51 550h74q64 0 91.5 -24t27.5 -88v-195q0 -31 7 -51t19 -32t28.5 -17t36.5 -5q16 0 31 5.5t25.5 18t17 34t6.5 54.5v300h75q29 0 50 -6t36 -20q7 5 11.5 11.5t4.5 13.5q2 36 23 54t46 18q23 0 41.5 -13t28.5 -42q11 -33 -0.5 -61t-33 -49.5t-47 -36.5t-42.5 -23v-153
q0 -67 -20 -115.5t-57 -80.5t-89 -47.5t-115 -15.5q-136 0 -206 64t-70 200v302zM403 630h-46q-102 0 -150 22q-23 10 -42 34t-19 55q0 25 16.5 42t47.5 17q34 0 63.5 -14.5t53.5 -39.5q23 -23 43 -51.5t33 -59.5v-5z" />
    <glyph glyph-name="uni1EEC" unicode="&#x1eec;" horiz-adv-x="805" 
d="M60 689h82q45 0 76.5 -30t31.5 -102v-261q0 -45 8 -75t24.5 -48t41.5 -26t58 -8q55 0 84 36t29 114v400h80q30 0 52.5 -8.5t36.5 -30.5q22 8 23 26q2 36 23.5 55.5t45.5 19.5q32 -1 49 -17t25 -39q9 -28 3.5 -51t-19.5 -42t-34 -33.5t-39.5 -25.5t-35.5 -18t-22 -10v-219
q0 -66 -20 -123t-60 -99t-100 -66t-140 -24q-68 0 -123.5 21.5t-95.5 61t-62 96t-22 126.5v400zM282 933q-1 5 -1.5 9t-0.5 8q0 13 6.5 26.5t19 25t30.5 18.5t41 7q26 0 48 -9t38 -24t25 -34t9 -40q0 -23 -12.5 -42t-29.5 -30q-5 -5 -11.5 -9.5t-11.5 -9.5l-12 -11
q-7 -6 -9.5 -13.5t-2.5 -14.5q-1 -3 -0.5 -7t1.5 -9h-51q-26 0 -34.5 13t-10.5 26q-2 14 5.5 25.5t18.5 19.5q20 15 35.5 27.5t13.5 26.5q-2 17 -13.5 23.5t-26.5 6.5q-21 -2 -33.5 -11t-13.5 -23q-8 5 -11.5 11.5t-5.5 13.5z" />
    <glyph glyph-name="uni1EED" unicode="&#x1eed;" horiz-adv-x="660" 
d="M51 550h74q64 0 91.5 -24t27.5 -88v-195q0 -31 7 -51t19 -32t28.5 -17t36.5 -5q16 0 31 5.5t25.5 18t17 34t6.5 54.5v300h75q29 0 50 -6t36 -20q7 5 11.5 11.5t4.5 13.5q2 36 23 54t46 18q23 0 41.5 -13t28.5 -42q11 -33 -0.5 -61t-33 -49.5t-47 -36.5t-42.5 -23v-153
q0 -67 -20 -115.5t-57 -80.5t-89 -47.5t-115 -15.5q-136 0 -206 64t-70 200v302zM241 787q-1 5 -1.5 9t-0.5 8q0 13 6.5 27t19 24.5t30 17.5t40.5 7q25 0 47.5 -8.5t39 -23t26 -34t9.5 -41.5t-13 -41.5t-30 -30.5q-5 -4 -11 -8.5t-12 -10.5l-11 -12q-7 -6 -9.5 -13t-3.5 -14
q-2 -8 0 -16h-50q-26 0 -35 13t-11 27q-2 13 5.5 24t18.5 20q19 15 35 27.5t14 26.5q-2 19 -15.5 25.5t-22.5 6.5q-47 -5 -49 -34q-7 4 -10.5 10.5t-5.5 13.5z" />
    <glyph glyph-name="uni1EEE" unicode="&#x1eee;" horiz-adv-x="800" 
d="M60 689h82q45 0 76.5 -30t31.5 -102v-261q0 -45 8 -75t24.5 -48t41.5 -26t58 -8q55 0 84 36t29 114v400h80q30 0 52.5 -8.5t36.5 -30.5q22 8 23 26q2 36 23.5 55.5t45.5 19.5q32 -1 49 -17t25 -39q9 -27 3.5 -50.5t-20 -42.5t-34.5 -34t-39.5 -25.5t-35 -17.5t-21.5 -10
v-219q0 -66 -20 -123t-60 -99t-100 -66t-140 -24q-68 0 -123.5 21.5t-95.5 61t-62 96t-22 126.5v400zM560 863q0 -33 -25.5 -60.5t-74.5 -27.5q-31 0 -49.5 7t-37.5 21q-26 19 -37.5 25.5t-24.5 6.5q-14 0 -24.5 -10t-10.5 -29v-21h-22q-27 0 -49 23t-22 58q0 38 26.5 66.5
t74.5 28.5q25 0 47 -7.5t39 -20.5q23 -17 35 -24t24 -7q17 0 27.5 8t10.5 28v23h20q13 0 26 -5t23.5 -16t17 -27.5t6.5 -39.5z" />
    <glyph glyph-name="uni1EEF" unicode="&#x1eef;" horiz-adv-x="660" 
d="M51 550h74q64 0 91.5 -24t27.5 -88v-195q0 -31 7 -51t19 -32t28.5 -17t36.5 -5q16 0 31 5.5t25.5 18t17 34t6.5 54.5v300h75q29 0 50 -6t36 -20q7 5 11.5 11.5t4.5 13.5q2 36 23 54t46 18q23 0 41.5 -13t28.5 -42q11 -33 -0.5 -61t-33 -49.5t-47 -36.5t-42.5 -23v-153
q0 -67 -20 -115.5t-57 -80.5t-89 -47.5t-115 -15.5q-136 0 -206 64t-70 200v302zM517 717q0 -33 -25.5 -60.5t-74.5 -27.5q-31 0 -49.5 7t-37.5 21q-26 19 -37.5 25.5t-24.5 6.5q-14 0 -24.5 -10t-10.5 -29v-21h-22q-27 0 -49 23t-22 58q0 38 26.5 66.5t74.5 28.5
q25 0 47 -7.5t39 -20.5q23 -17 35 -24t24 -7q17 0 27.5 8t10.5 28v23h20q13 0 26 -5t23.5 -16t17 -27.5t6.5 -39.5z" />
    <glyph glyph-name="uni1EF0" unicode="&#x1ef0;" horiz-adv-x="801" 
d="M142 689q45 0 76.5 -30t31.5 -102v-261q0 -45 8 -75t24.5 -48t41.5 -26t58 -8q55 0 84 36t29 114v400h80q30 0 52.5 -8.5t36.5 -30.5q22 8 23 26q2 36 23.5 55.5t45.5 19.5q32 -1 49 -17t25 -39q9 -27 3.5 -50.5t-20 -42.5t-34.5 -34t-39.5 -25.5t-35 -17.5t-21.5 -10
v-219q0 -66 -20 -123t-60 -99t-100 -66t-140 -24q-68 0 -123.5 21.5t-95.5 61t-62 96t-22 126.5v400h82zM361 -49q35 0 60 -25t25 -61q0 -35 -25 -60t-60 -25q-36 0 -61 25t-25 60q0 36 25 61t61 25z" />
    <glyph glyph-name="uni1EF1" unicode="&#x1ef1;" horiz-adv-x="660" 
d="M125 550q64 0 91.5 -24t27.5 -88v-195q0 -31 7 -51t19 -32t28.5 -17t36.5 -5q16 0 31 5.5t25.5 18t17 34t6.5 54.5v300h75q29 0 50 -6t36 -20q7 5 11.5 11.5t4.5 13.5q2 36 23 54t46 18q23 0 41.5 -13t28.5 -42q11 -33 -0.5 -61t-33 -49.5t-47 -36.5t-42.5 -23v-153
q0 -67 -20 -115.5t-57 -80.5t-89 -47.5t-115 -15.5q-136 0 -206 64t-70 200v302h74zM330 -49q35 0 60 -25t25 -61q0 -35 -25 -60t-60 -25q-36 0 -61 25t-25 60q0 36 25 61t61 25z" />
    <glyph glyph-name="uni1EF2" unicode="&#x1ef2;" horiz-adv-x="629" 
d="M101 690q48 0 76 -18.5t38 -40.5q22 -48 52 -100t59 -94q16 23 34 52t35.5 61.5t33.5 68t28 71.5h90q33 0 52.5 -19t19.5 -42q0 -14 -11 -40t-28.5 -57.5t-40 -66.5t-45.5 -68.5t-44.5 -61.5t-37.5 -46v-289h-83q-20 0 -39 6.5t-34 20t-24.5 33.5t-9.5 46v184
q-30 37 -61 83t-59.5 97.5t-53.5 107t-43 112.5h96zM446 776h-46q-102 0 -150 22q-23 10 -42 34t-19 55q0 25 16.5 42t47.5 17q34 0 63.5 -14.5t53.5 -39.5q23 -23 43 -51.5t33 -59.5v-5z" />
    <glyph glyph-name="uni1EF3" unicode="&#x1ef3;" horiz-adv-x="583" 
d="M107 550q18 0 35.5 -5.5t32 -15.5t25 -24.5t14.5 -32.5q7 -33 17.5 -68t22 -69.5t23.5 -66t23 -56.5q15 31 30 72.5t28 87.5t23 92t15 86h91q42 0 61.5 -18.5t19.5 -51.5q0 -22 -9 -60.5t-24.5 -85t-36 -96t-43.5 -93.5q-39 -74 -69 -127t-54.5 -89t-45.5 -58t-42 -33.5
t-44.5 -15t-52.5 -3.5q-46 0 -79 24t-33 71v46l82 6q38 3 58 19t35 50q-30 44 -62.5 109.5t-61 137t-49.5 142.5t-29 126h99zM420 630h-46q-102 0 -150 22q-23 10 -42 34t-19 55q0 25 16.5 42t47.5 17q34 0 63.5 -14.5t53.5 -39.5q23 -23 43 -51.5t33 -59.5v-5z" />
    <glyph glyph-name="uni1EF4" unicode="&#x1ef4;" horiz-adv-x="629" 
d="M101 690q48 0 76 -18.5t38 -40.5q22 -48 52 -100t59 -94q16 23 34 52t35.5 61.5t33.5 68t28 71.5h90q33 0 52.5 -19t19.5 -42q0 -14 -11 -40t-28.5 -57.5t-40 -66.5t-45.5 -68.5t-44.5 -61.5t-37.5 -46v-289h-83q-20 0 -39 6.5t-34 20t-24.5 33.5t-9.5 46v184
q-30 37 -61 83t-59.5 97.5t-53.5 107t-43 112.5h96zM336 -49q35 0 60 -25t25 -61q0 -35 -25 -60t-60 -25q-36 0 -61 25t-25 60q0 36 25 61t61 25z" />
    <glyph glyph-name="uni1EF5" unicode="&#x1ef5;" horiz-adv-x="583" 
d="M107 550q18 0 35.5 -5.5t32 -15.5t25 -24.5t14.5 -32.5q7 -33 17.5 -68t22 -69.5t23.5 -66t23 -56.5q15 31 30 72.5t28 87.5t23 92t15 86h91q42 0 61.5 -18.5t19.5 -51.5q0 -22 -9 -60.5t-24.5 -85t-36 -96t-43.5 -93.5q-39 -74 -69 -127t-54.5 -89t-45.5 -58t-42 -33.5
t-44.5 -15t-52.5 -3.5q-46 0 -79 24t-33 71v46l82 6q38 3 58 19t35 50q-30 44 -62.5 109.5t-61 137t-49.5 142.5t-29 126h99zM479 -49q35 0 60 -25t25 -61q0 -35 -25 -60t-60 -25q-36 0 -61 25t-25 60q0 36 25 61t61 25z" />
    <glyph glyph-name="uni1EF6" unicode="&#x1ef6;" horiz-adv-x="629" 
d="M101 690q48 0 76 -18.5t38 -40.5q22 -48 52 -100t59 -94q16 23 34 52t35.5 61.5t33.5 68t28 71.5h90q33 0 52.5 -19t19.5 -42q0 -14 -11 -40t-28.5 -57.5t-40 -66.5t-45.5 -68.5t-44.5 -61.5t-37.5 -46v-289h-83q-20 0 -39 6.5t-34 20t-24.5 33.5t-9.5 46v184
q-30 37 -61 83t-59.5 97.5t-53.5 107t-43 112.5h96zM244 950q0 13 6.5 26.5t19 25t30.5 18.5t41 7q26 0 48 -9t38 -24t25 -34t9 -40q0 -23 -12.5 -42t-29.5 -30q-5 -5 -11.5 -9.5t-11.5 -9.5l-12 -11q-7 -6 -9.5 -13.5t-2.5 -14.5q-1 -3 -0.5 -7t1.5 -9h-51q-26 0 -34.5 13
t-10.5 26q-2 14 5.5 25.5t18.5 19.5q20 15 35.5 27.5t13.5 26.5q-2 17 -13.5 23.5t-26.5 6.5q-21 -2 -33.5 -11t-13.5 -23q-8 5 -11.5 11.5t-5.5 13.5q-1 5 -1.5 9t-0.5 8z" />
    <glyph glyph-name="uni1EF7" unicode="&#x1ef7;" horiz-adv-x="583" 
d="M107 550q18 0 35.5 -5.5t32 -15.5t25 -24.5t14.5 -32.5q7 -33 17.5 -68t22 -69.5t23.5 -66t23 -56.5q15 31 30 72.5t28 87.5t23 92t15 86h91q42 0 61.5 -18.5t19.5 -51.5q0 -22 -9 -60.5t-24.5 -85t-36 -96t-43.5 -93.5q-39 -74 -69 -127t-54.5 -89t-45.5 -58t-42 -33.5
t-44.5 -15t-52.5 -3.5q-46 0 -79 24t-33 71v46l82 6q38 3 58 19t35 50q-30 44 -62.5 109.5t-61 137t-49.5 142.5t-29 126h99zM220 807q0 13 6.5 26.5t19 25t30.5 18.5t41 7q26 0 48 -9t38 -24t25 -34t9 -40q0 -23 -12.5 -42t-29.5 -30q-5 -5 -11.5 -9.5t-11.5 -9.5l-12 -11
q-7 -6 -9.5 -13.5t-2.5 -14.5q-1 -3 -0.5 -7t1.5 -9h-51q-26 0 -34.5 13t-10.5 26q-2 14 5.5 25.5t18.5 19.5q20 15 35.5 27.5t13.5 26.5q-2 17 -13.5 23.5t-26.5 6.5q-21 -2 -33.5 -11t-13.5 -23q-8 5 -11.5 11.5t-5.5 13.5q-1 5 -1.5 9t-0.5 8z" />
    <glyph glyph-name="uni1EF8" unicode="&#x1ef8;" horiz-adv-x="629" 
d="M101 690q48 0 76 -18.5t38 -40.5q22 -48 52 -100t59 -94q16 23 34 52t35.5 61.5t33.5 68t28 71.5h90q33 0 52.5 -19t19.5 -42q0 -14 -11 -40t-28.5 -57.5t-40 -66.5t-45.5 -68.5t-44.5 -61.5t-37.5 -46v-289h-83q-20 0 -39 6.5t-34 20t-24.5 33.5t-9.5 46v184
q-30 37 -61 83t-59.5 97.5t-53.5 107t-43 112.5h96zM514 862q0 -33 -25.5 -60.5t-74.5 -27.5q-31 0 -49.5 7t-37.5 21q-26 19 -37.5 25.5t-24.5 6.5q-14 0 -24.5 -10t-10.5 -29v-21h-22q-27 0 -49 23t-22 58q0 38 26.5 66.5t74.5 28.5q25 0 47 -7.5t39 -20.5q23 -17 35 -24
t24 -7q17 0 27.5 8t10.5 28v23h20q13 0 26 -5t23.5 -16t17 -27.5t6.5 -39.5z" />
    <glyph glyph-name="uni1EF9" unicode="&#x1ef9;" horiz-adv-x="583" 
d="M107 550q18 0 35.5 -5.5t32 -15.5t25 -24.5t14.5 -32.5q7 -33 17.5 -68t22 -69.5t23.5 -66t23 -56.5q15 31 30 72.5t28 87.5t23 92t15 86h91q42 0 61.5 -18.5t19.5 -51.5q0 -22 -9 -60.5t-24.5 -85t-36 -96t-43.5 -93.5q-39 -74 -69 -127t-54.5 -89t-45.5 -58t-42 -33.5
t-44.5 -15t-52.5 -3.5q-46 0 -79 24t-33 71v46l82 6q38 3 58 19t35 50q-30 44 -62.5 109.5t-61 137t-49.5 142.5t-29 126h99zM480 718q0 -33 -25.5 -60.5t-74.5 -27.5q-31 0 -49.5 7t-37.5 21q-26 19 -37.5 25.5t-24.5 6.5q-14 0 -24.5 -10t-10.5 -29v-21h-22q-27 0 -49 23
t-22 58q0 38 26.5 66.5t74.5 28.5q25 0 47 -7.5t39 -20.5q23 -17 35 -24t24 -7q17 0 27.5 8t10.5 28v23h20q13 0 26 -5t23.5 -16t17 -27.5t6.5 -39.5z" />
    <glyph glyph-name="uni2013" unicode="&#x2013;" 
d="M50 231v59q0 38 27 62t72 24h415v-62q0 -17 -7.5 -32.5t-20 -26.5t-28.5 -17.5t-33 -6.5h-425z" />
    <glyph glyph-name="uni2014" unicode="&#x2014;" horiz-adv-x="923" 
d="M33 237v61q0 34 24.5 56t69.5 22h763v-63q0 -15 -7 -29t-18.5 -24.5t-27 -16.5t-31.5 -6h-773z" />
    <glyph glyph-name="uni2018" unicode="&#x2018;" horiz-adv-x="277" 
d="M40 550q0 43 14 81t38.5 66.5t57.5 45t71 16.5h31v-9q-12 -6 -23.5 -18.5t-20.5 -27.5t-14.5 -31.5t-5.5 -31.5q0 -21 8.5 -34t16.5 -20l9 -9t12 -15t10.5 -20t4.5 -24q0 -48 -27.5 -73.5t-72.5 -25.5q-52 0 -80.5 35t-28.5 95z" />
    <glyph glyph-name="uni2019" unicode="&#x2019;" horiz-adv-x="277" 
d="M237 610q0 -43 -14 -81t-39 -66.5t-58 -45t-70 -16.5h-31v9q12 6 23.5 18.5t20.5 27.5t14.5 31.5t5.5 31.5q0 21 -8.5 34t-16.5 20l-9 9t-12 15t-10.5 20t-4.5 24q0 48 27.5 73.5t72.5 25.5q51 0 80 -35t29 -95z" />
    <glyph glyph-name="uni201A" unicode="&#x201a;" horiz-adv-x="277" 
d="M239 79q0 -43 -14 -81t-39 -66.5t-58 -45t-70 -16.5h-31v9q12 6 23.5 18.5t20.5 27.5t14.5 31.5t5.5 31.5q0 21 -8.5 34t-16.5 20l-9 9t-12 15t-10.5 20t-4.5 24q0 48 27.5 73.5t72.5 25.5q52 0 80.5 -35t28.5 -95z" />
    <glyph glyph-name="uni201C" unicode="&#x201c;" horiz-adv-x="544" 
d="M30 550q0 43 14 81t38.5 66.5t57.5 45t71 16.5h31v-9q-12 -6 -23.5 -18.5t-20.5 -27.5t-14.5 -31.5t-5.5 -31.5q0 -21 8.5 -34t16.5 -20l9 -9t12 -15t10.5 -20t4.5 -24q0 -48 -27.5 -73.5t-72.5 -25.5q-52 0 -80.5 35t-28.5 95zM509 759v-9q-12 -6 -23.5 -18.5
t-20.5 -27.5t-14.5 -31.5t-5.5 -31.5q0 -21 8.5 -34t16.5 -20l9 -9t12 -15t10.5 -20t4.5 -24q0 -48 -27.5 -73.5t-72.5 -25.5q-51 0 -80 35t-29 95q0 43 14 81t39 66.5t57.5 45t70.5 16.5h31z" />
    <glyph glyph-name="uni201D" unicode="&#x201d;" horiz-adv-x="544" 
d="M302 411q12 6 23.5 18.5t20.5 27.5t14.5 31.5t5.5 31.5q0 21 -8.5 34t-16.5 20l-9 9t-12 15t-10.5 20t-4.5 24q0 48 27.5 73.5t72.5 25.5q52 0 80.5 -35t28.5 -95q0 -43 -14 -81t-39 -66.5t-58 -45t-70 -16.5h-31v9zM35 402v9q12 6 23.5 18.5t20.5 27.5t14.5 31.5
t5.5 31.5q0 21 -8.5 34t-16.5 20l-9 9t-12 15t-10.5 20t-4.5 24q0 48 27.5 73.5t72.5 25.5q51 0 80 -35t29 -95q0 -43 -14 -81t-39 -66.5t-58 -45t-70 -16.5h-31z" />
    <glyph glyph-name="uni201E" unicode="&#x201e;" horiz-adv-x="544" 
d="M294 -121q12 6 23.5 18.5t20.5 27.5t14.5 31.5t5.5 31.5q0 21 -8.5 34t-16.5 20l-9 9t-12 15t-10.5 20t-4.5 24q0 48 27.5 73.5t72.5 25.5q52 0 80.5 -35t28.5 -95q0 -43 -14 -81t-39 -66.5t-58 -45t-70 -16.5h-31v9zM34 -130v9q12 6 23.5 18.5t20.5 27.5t14.5 31.5
t5.5 31.5q0 21 -8.5 34t-16.5 20l-9 9t-12 15t-10.5 20t-4.5 24q0 48 27.5 73.5t72.5 25.5q52 0 80.5 -35t28.5 -95q0 -43 -14 -81t-39 -66.5t-58 -45t-70 -16.5h-31z" />
    <glyph glyph-name="uni2020" unicode="&#x2020;" horiz-adv-x="552" 
d="M19 398v65q0 16 6.5 31.5t18.5 28t29 20.5t38 8h84v209h67q16 0 32 -6t29 -17.5t21 -28t8 -37.5v-120h176v-56q0 -18 -7 -35.5t-21 -31t-34.5 -22t-47.5 -8.5h-66v-551h-56q-17 0 -35 7t-32.5 21.5t-24 36.5t-9.5 52v434h-176z" />
    <glyph glyph-name="uni2021" unicode="&#x2021;" horiz-adv-x="552" 
d="M31 147q0 13 5.5 28t17 27t28 20t37.5 8h79v177h-167v60q0 14 5.5 28.5t17 26.5t28 19.5t37.5 7.5h79v191h74q38 0 58 -22.5t20 -51.5v-117h168v-58q0 -39 -28 -61.5t-71 -22.5h-69v-177h168v-59q0 -39 -28 -61t-71 -22h-69v-258h-64q-42 0 -65 24.5t-23 58.5v175h-167
v59z" />
    <glyph glyph-name="uni2022" unicode="&#x2022;" horiz-adv-x="380" 
d="M190 519q32 0 60.5 -11.5t49.5 -32t33 -49t12 -62.5q0 -33 -12 -61.5t-32.5 -49.5t-49 -32.5t-61.5 -11.5t-61.5 12t-49 32.5t-32.5 49t-12 61.5t12.5 61.5t33.5 49.5t49 32.5t60 11.5z" />
    <glyph glyph-name="uni2026" unicode="&#x2026;" horiz-adv-x="923" 
d="M656 107q0 22 8.5 41.5t23 34t34 23t41.5 8.5t41.5 -8.5t34 -23t23 -34t8.5 -41.5t-8.5 -41.5t-23 -34t-34 -23t-41.5 -8.5t-41.5 8.5t-34 23t-23 34t-8.5 41.5zM356 107q0 22 8.5 41.5t23 34t34 23t41.5 8.5t41.5 -8.5t34 -23t23 -34t8.5 -41.5t-8.5 -41.5t-23 -34
t-34 -23t-41.5 -8.5t-41.5 8.5t-34 23t-23 34t-8.5 41.5zM56 107q0 22 8.5 41.5t23 34t34 23t41.5 8.5t41.5 -8.5t34 -23t23 -34t8.5 -41.5t-8.5 -41.5t-23 -34t-34 -23t-41.5 -8.5t-41.5 8.5t-34 23t-23 34t-8.5 41.5z" />
    <glyph glyph-name="uni2030" unicode="&#x2030;" horiz-adv-x="1519" 
d="M415 481q0 -48 -12.5 -90t-37 -74t-61.5 -50.5t-86 -18.5q-46 0 -81.5 18.5t-59.5 49t-36.5 70t-12.5 81.5q0 48 12.5 90.5t37 74.5t61.5 51t86 19q46 0 81.5 -18.5t59.5 -49.5t36.5 -71t12.5 -82zM737 624q0 -28 -15 -58l-292 -566h-47q-29 0 -50.5 15.5t-21.5 47.5
q0 28 15 58l295 572h47q29 0 49 -20.5t20 -48.5zM1470 218q0 -48 -12.5 -90.5t-37 -74.5t-61.5 -50.5t-86 -18.5q-46 0 -81.5 18.5t-59.5 49t-36.5 70.5t-12.5 82q0 48 12.5 90.5t37 74.5t61.5 50.5t86 18.5q46 0 81.5 -18.5t59.5 -49t36.5 -70.5t12.5 -82zM1032 218
q0 -48 -12.5 -90.5t-37 -74.5t-61.5 -50.5t-86 -18.5q-46 0 -81.5 18.5t-59.5 49t-36.5 70.5t-12.5 82q0 48 12.5 90.5t37 74.5t61.5 50.5t86 18.5q46 0 81.5 -18.5t59.5 -49t36.5 -70.5t12.5 -82zM274 467q0 66 -15.5 93t-40.5 27q-20 0 -35 -25.5t-15 -79.5
q0 -66 15.5 -93t41.5 -27q21 0 35 25.5t14 79.5zM1329 204q0 66 -15.5 92.5t-40.5 26.5q-20 0 -35 -25t-15 -79q0 -66 15.5 -93.5t41.5 -27.5q21 0 35 26t14 80zM891 204q0 66 -15.5 92.5t-40.5 26.5q-20 0 -35 -25t-15 -79q0 -66 15.5 -93.5t41.5 -27.5q21 0 35 26t14 80z
" />
    <glyph glyph-name="uni2039" unicode="&#x2039;" horiz-adv-x="339" 
d="M245 75q-45 0 -74.5 13t-49.5 42l-108 153l108 154q17 25 45 39t79 14h65l-135 -207l135 -208h-65z" />
    <glyph glyph-name="uni203A" unicode="&#x203a;" horiz-adv-x="339" 
d="M22 75l135 208l-135 207h65q51 0 79 -14t45 -39l108 -154l-108 -153q-20 -29 -49.5 -42t-74.5 -13h-65z" />
    <glyph glyph-name="uni2044" unicode="&#x2044;" horiz-adv-x="483" 
d="M463 661q0 -29 -15 -59l-309 -602h-47q-29 0 -47 22.5t-18 56.5q0 29 15 59l309 602h47q29 0 47 -22.5t18 -56.5z" />
    <glyph glyph-name="uni2122" unicode="&#x2122;" horiz-adv-x="832" 
d="M337 370q0 40 2.5 84.5t7 88t10.5 84t12 72.5h38q45 0 69 -19.5t34 -46.5l24 -65q8 -23 17 -50.5t16 -50.5q6 22 17 55t24.5 67t29.5 64t32 46h20q42 0 62.5 -24t25.5 -66q8 -69 13.5 -145.5t5.5 -158.5h-48q-27 0 -45.5 16.5t-18.5 48.5q0 11 -0.5 28.5t-1.5 38.5
t-2 43.5t-2 43.5q-6 -20 -14.5 -49t-18 -59.5t-21 -60t-23.5 -50.5h-31q-29 0 -49.5 25t-37.5 82l-34 115q-2 -25 -3.5 -54.5t-2.5 -59t-1.5 -57.5t-0.5 -51h-42q-24 0 -43.5 17t-19.5 48zM320 694v-42q0 -10 -4.5 -20t-13 -18.5t-19.5 -13.5t-23 -5h-45v-290h-48
q-23 0 -42 13.5t-19 46.5v230h-101v42q0 20 16 38.5t45 18.5h254z" />
    <glyph glyph-name="uni2212" unicode="&#x2212;" horiz-adv-x="589" 
d="M508 302q0 -32 -18.5 -49t-52.5 -17h-379v61q0 29 18.5 49t50.5 20h381v-64z" />
    <glyph glyph-name="uniFB01" unicode="&#xfb01;" horiz-adv-x="731" 
d="M270 750q34 0 57 -8t36.5 -22.5t19 -33.5t5.5 -40v-44h-5q-16 8 -36 11.5t-39 3.5q-30 0 -48 -17t-18 -42v-65h126v-69q0 -28 -23 -44.5t-59 -16.5h-44v-363h-58q-69 0 -98 27.5t-29 90.5v379q0 68 18.5 116t49 78.5t68.5 44.5t77 14zM433 533h47q40 0 67.5 -6.5
t44.5 -21.5t24 -40.5t7 -62.5v-202q0 -37 18 -50.5t58 -13.5h23v-56q0 -25 -8.5 -41.5t-23.5 -27t-35 -15t-42 -4.5q-38 0 -71 10t-57 31.5t-38 55.5t-14 83v361zM523 769q42 0 70.5 -27.5t28.5 -66.5t-28.5 -66.5t-70.5 -27.5q-21 0 -39 7.5t-31.5 20t-21.5 29.5t-8 37
q0 19 8 36.5t21.5 30t31.5 20t39 7.5z" />
    <glyph glyph-name="uniFB02" unicode="&#xfb02;" horiz-adv-x="748" 
d="M275 750q35 0 58.5 -8t38 -22.5t20.5 -33.5t6 -40v-44h-5q-16 8 -38.5 11.5t-41.5 3.5q-34 0 -52.5 -17t-18.5 -42v-65h126v-69q0 -28 -23 -44.5t-59 -16.5h-44v-363h-58q-69 0 -98 27.5t-29 90.5v379q0 74 20 123t51.5 78t70 40.5t76.5 11.5zM433 740h67q63 0 93 -30.5
t30 -100.5v-399q0 -37 20 -50.5t60 -13.5h42v-66q0 -25 -11 -42t-28.5 -27t-40 -14.5t-44.5 -4.5q-38 0 -72 11.5t-60 35t-41 59t-15 84.5v558z" />
    <glyph glyph-name="uni000D" horiz-adv-x="0" 
 />
    </font>
</defs>
</svg>
